{
.appVersion = "3436";
.formatVersion = 3;
DisplayStrings = (
"̧",
"ç̧ç"
);
axes = (
{
name = Weight;
tag = wght;
}
);
customParameters = (
{
name = "Use Typo Metrics";
value = 1;
}
);
date = "2025-12-20 23:24:10 +0000";
familyName = Arcadia;
featurePrefixes = (
{
automatic = 1;
code = "languagesystem DFLT dflt;
";
name = Languagesystems;
}
);
features = (
{
code = "";
tag = zero;
},
{
code = "";
tag = tnum;
}
);
fontMaster = (
{
axesValues = (
400
);
customParameters = (
{
name = typoAscender;
value = 800;
},
{
name = typoDescender;
value = -200;
},
{
name = typoLineGap;
value = 0;
},
{
name = hheaAscender;
value = 800;
},
{
name = hheaDescender;
value = -200;
},
{
name = winAscent;
value = 800;
},
{
name = winDescent;
value = 200;
},
{
name = hheaLineGap;
value = 0;
}
);
id = m01;
metricValues = (
{
over = 16;
pos = 800;
},
{
over = 16;
pos = 600;
},
{
over = 16;
pos = 430;
},
{
over = -16;
},
{
over = -16;
pos = -200;
},
{
}
);
name = Regular;
stemValues = (
54,
56
);
userData = {
GSCornerRadius = 45;
de.kutilek.MasterGrid.type = units;
de.kutilek.MasterGrid.value = (
40,
40
);
};
},
{
axesValues = (
900
);
customParameters = (
{
name = typoAscender;
value = 800;
},
{
name = typoDescender;
value = -200;
},
{
name = typoLineGap;
value = 0;
},
{
name = hheaAscender;
value = 800;
},
{
name = hheaDescender;
value = -200;
},
{
name = winAscent;
value = 800;
},
{
name = winDescent;
value = 200;
},
{
name = hheaLineGap;
value = 0;
}
);
iconName = Bold;
id = m002;
metricValues = (
{
over = 16;
pos = 800;
},
{
over = 16;
pos = 600;
},
{
over = 16;
pos = 430;
},
{
over = -16;
},
{
over = -16;
pos = -200;
},
{
}
);
name = Black;
stemValues = (
120,
120
);
userData = {
GSCornerRadius = 45;
};
}
);
glyphs = (
{
glyphname = A;
kernLeft = A;
kernRight = A;
lastChange = "2025-12-28 21:14:01 +0000";
layers = (
{
anchors = (
{
name = top;
pos = (271,600);
}
);
layerId = m01;
shapes = (
{
closed = 1;
nodes = (
(77,0,l),
(271,527,l),
(465,0,l),
(527,0,l),
(306,600,l),
(236,600,l),
(15,0,l)
);
},
{
closed = 1;
nodes = (
(436,205,l),
(416,261,l),
(126,261,l),
(106,205,l)
);
}
);
width = 542;
},
{
anchors = (
{
name = top;
pos = (301,600);
}
);
layerId = m002;
shapes = (
{
closed = 1;
nodes = (
(142,0,l),
(301,430,l),
(460,0,l),
(587,0,l),
(366,600,l),
(236,600,l),
(15,0,l)
);
},
{
closed = 1;
nodes = (
(516,121,l),
(476,241,l),
(126,241,l),
(86,121,l)
);
}
);
width = 602;
}
);
metricLeft = "=15";
metricRight = "=15";
unicode = 65;
},
{
glyphname = AE;
kernLeft = A;
kernRight = E;
lastChange = "2025-12-28 21:14:01 +0000";
layers = (
{
layerId = m01;
shapes = (
{
alignment = -1;
pos = (280,0);
ref = E;
},
{
closed = 1;
nodes = (
(77,0,l),
(278,544,l),
(375,544,l),
(375,600,l),
(236,600,l),
(15,0,l)
);
},
{
closed = 1;
nodes = (
(376,205,l),
(376,261,l),
(126,261,l),
(106,205,l)
);
}
);
width = 760;
},
{
layerId = m002;
shapes = (
{
alignment = -1;
pos = (310,0);
ref = E;
},
{
closed = 1;
nodes = (
(143,0,l),
(320,480,l),
(385,480,l),
(385,600,l),
(236,600,l),
(15,0,l)
);
},
{
closed = 1;
nodes = (
(386,165,l),
(386,285,l),
(136,285,l),
(94,165,l)
);
}
);
width = 805;
}
);
metricLeft = A;
metricRight = E;
unicode = 198;
},
{
glyphname = B;
kernLeft = H;
kernRight = B;
lastChange = "2025-12-28 19:45:55 +0000";
layers = (
{
layerId = m01;
shapes = (
{
closed = 1;
nodes = (
(312,544,ls),
(326,544,o),
(336,541,o),
(347,531,cs),
(360,519,o),
(372,507,o),
(384,494,cs),
(394,483,o),
(397,473,o),
(397,459,cs),
(397,413,ls),
(397,399,o),
(393,389,o),
(384,378,cs),
(372,365,o),
(360,353,o),
(347,341,cs),
(336,331,o),
(326,328,o),
(312,328,c),
(317,272,l),
(342,272,o),
(363,280,o),
(383,296,cs),
(401,310,o),
(417,326,o),
(431,344,cs),
(447,364,o),
(455,384,o),
(455,410,cs),
(455,462,ls),
(455,488,o),
(447,508,o),
(431,528,cs),
(417,546,o),
(401,562,o),
(383,576,cs),
(363,592,o),
(342,600,o),
(317,600,cs),
(103,600,l),
(103,544,l)
);
},
{
closed = 1;
nodes = (
(317,0,ls),
(342,0,o),
(363,8,o),
(383,24,cs),
(401,38,o),
(417,54,o),
(431,72,cs),
(447,92,o),
(455,112,o),
(455,138,cs),
(455,190,ls),
(455,216,o),
(447,236,o),
(431,256,cs),
(417,274,o),
(401,290,o),
(383,304,cs),
(363,320,o),
(342,328,o),
(317,328,cs),
(103,328,l),
(103,272,l),
(312,272,ls),
(326,272,o),
(336,269,o),
(347,259,cs),
(360,247,o),
(372,235,o),
(384,222,cs),
(394,211,o),
(397,201,o),
(397,187,cs),
(397,141,ls),
(397,127,o),
(393,117,o),
(384,106,cs),
(372,93,o),
(360,81,o),
(347,69,cs),
(336,59,o),
(326,56,o),
(312,56,cs),
(123,56,l),
(123,600,l),
(65,600,l),
(65,0,l)
);
}
);
width = 515;
},
{
layerId = m002;
shapes = (
{
closed = 1;
nodes = (
(324,480,ls),
(331,480,o),
(338,477,o),
(343,472,c),
(346,469,o),
(349,466,o),
(352,463,c),
(357,458,o),
(360,452,o),
(360,444,cs),
(360,396,ls),
(360,388,o),
(357,382,o),
(352,377,c),
(349,374,o),
(346,371,o),
(343,368,c),
(338,363,o),
(331,360,o),
(324,360,c),
(342,240,l),
(367,240,o),
(388,248,o),
(408,264,cs),
(426,278,o),
(442,294,o),
(456,312,cs),
(472,332,o),
(480,352,o),
(480,378,cs),
(480,462,ls),
(480,488,o),
(472,508,o),
(456,528,cs),
(442,546,o),
(426,562,o),
(408,576,cs),
(388,592,o),
(367,600,o),
(342,600,cs),
(110,600,l),
(110,480,l)
);
},
{
closed = 1;
nodes = (
(342,0,ls),
(367,0,o),
(388,8,o),
(408,24,cs),
(426,38,o),
(442,54,o),
(456,72,cs),
(472,92,o),
(480,112,o),
(480,138,cs),
(480,222,ls),
(480,248,o),
(472,268,o),
(456,288,cs),
(442,306,o),
(426,322,o),
(408,336,cs),
(388,352,o),
(367,360,o),
(342,360,cs),
(150,360,l),
(150,240,l),
(324,240,ls),
(331,240,o),
(338,237,o),
(343,232,c),
(346,229,o),
(349,226,o),
(352,223,c),
(357,218,o),
(360,212,o),
(360,204,cs),
(360,156,ls),
(360,148,o),
(357,142,o),
(352,137,c),
(349,134,o),
(346,131,o),
(343,128,c),
(338,123,o),
(331,120,o),
(324,120,cs),
(170,120,l),
(170,600,l),
(50,600,l),
(50,0,l)
);
}
);
width = 530;
}
);
metricLeft = H;
unicode = 66;
},
{
glyphname = C;
kernLeft = O;
kernRight = C;
lastChange = "2025-12-28 21:21:27 +0000";
layers = (
{
anchors = (
{
name = bottom;
pos = (276,0);
}
);
hints = (
{
origin = (0,58);
target = (0,23);
type = Stem;
},
{
origin = (0,7);
target = (0,6);
type = Stem;
},
{
horizontal = 1;
origin = (0,0);
target = (0,13);
type = Stem;
},
{
horizontal = 1;
origin = (0,47);
target = (0,34);
type = Stem;
}
);
layerId = m01;
shapes = (
{
closed = 1;
nodes = (
(332,-5,ls),
(357,-5,o),
(378,3,o),
(398,19,cs),
(416,33,o),
(432,49,o),
(446,67,c),
(399,101,l),
(387,88,o),
(375,76,o),
(362,64,cs),
(351,54,o),
(341,51,o),
(327,51,cs),
(193,51,ls),
(179,51,o),
(169,54,o),
(158,64,cs),
(145,76,o),
(133,88,o),
(121,101,cs),
(111,112,o),
(108,122,o),
(108,136,cs),
(108,464,ls),
(108,478,o),
(112,488,o),
(121,499,cs),
(133,512,o),
(145,524,o),
(158,536,cs),
(169,546,o),
(179,549,o),
(193,549,cs),
(327,549,ls),
(341,549,o),
(351,546,o),
(362,536,cs),
(375,524,o),
(387,512,o),
(399,499,c),
(446,533,l),
(432,551,o),
(416,567,o),
(398,581,cs),
(378,597,o),
(357,605,o),
(332,605,cs),
(188,605,ls),
(163,605,o),
(143,596,o),
(123,580,cs),
(105,566,o),
(89,550,o),
(75,532,cs),
(59,512,o),
(50,493,o),
(50,467,cs),
(50,133,ls),
(50,107,o),
(58,87,o),
(74,67,cs),
(88,49,o),
(104,33,o),
(122,19,cs),
(142,3,o),
(163,-5,o),
(188,-5,cs)
);
}
);
width = 490;
},
{
anchors = (
{
name = bottom;
pos = (291,0);
}
);
hints = (
{
origin = (0,58);
target = (0,64);
type = Stem;
},
{
origin = (0,3);
target = (0,41);
type = Stem;
},
{
horizontal = 1;
origin = (0,0);
target = (0,6);
type = Stem;
},
{
horizontal = 1;
origin = (0,47);
target = (0,41);
type = Stem;
}
);
layerId = m002;
shapes = (
{
closed = 1;
nodes = (
(352,-5,ls),
(377,-5,o),
(398,3,o),
(418,19,cs),
(436,33,o),
(467,69,o),
(476,97,c),
(362,132,l),
(359,129,o),
(356,126,o),
(353,123,cs),
(348,118,o),
(341,115,o),
(334,115,cs),
(206,115,ls),
(199,115,o),
(193,117,o),
(187,123,cs),
(184,126,o),
(181,129,o),
(178,132,cs),
(173,137,o),
(170,143,o),
(170,151,cs),
(170,449,ls),
(170,457,o),
(172,462,o),
(178,468,cs),
(181,471,o),
(184,474,o),
(187,477,cs),
(193,483,o),
(199,485,o),
(206,485,cs),
(334,485,ls),
(341,485,o),
(348,482,o),
(353,477,cs),
(356,474,o),
(359,471,o),
(362,468,c),
(476,503,l),
(467,531,o),
(436,567,o),
(418,581,cs),
(398,597,o),
(377,605,o),
(352,605,cs),
(188,605,ls),
(163,605,o),
(143,596,o),
(123,580,cs),
(105,566,o),
(89,550,o),
(75,532,cs),
(59,512,o),
(50,493,o),
(50,467,cs),
(50,133,ls),
(50,107,o),
(58,87,o),
(74,67,cs),
(88,49,o),
(104,33,o),
(122,19,cs),
(142,3,o),
(163,-5,o),
(188,-5,cs)
);
}
);
width = 501;
}
);
metricLeft = O;
unicode = 67;
},
{
glyphname = D;
kernLeft = H;
kernRight = O;
lastChange = "2025-12-28 21:09:10 +0000";
layers = (
{
layerId = m01;
shapes = (
{
closed = 1;
nodes = (
(323,-1,ls),
(348,-1,o),
(369,7,o),
(389,23,cs),
(407,37,o),
(423,53,o),
(437,71,cs),
(453,91,o),
(461,111,o),
(461,137,cs),
(461,463,ls),
(461,489,o),
(453,509,o),
(437,529,cs),
(423,547,o),
(407,563,o),
(389,577,cs),
(369,593,o),
(348,601,o),
(323,601,cs),
(65,601,l),
(65,-1,l)
);
},
{
closed = 1;
nodes = (
(123,545,l),
(318,545,ls),
(332,545,o),
(342,542,o),
(353,532,cs),
(390,495,ls),
(400,484,o),
(403,474,o),
(403,460,cs),
(403,140,ls),
(403,126,o),
(399,116,o),
(390,105,c),
(353,68,ls),
(342,58,o),
(332,55,o),
(318,55,cs),
(123,55,l)
);
}
);
width = 511;
},
{
layerId = m002;
shapes = (
{
closed = 1;
nodes = (
(352,-5,ls),
(377,-5,o),
(398,3,o),
(418,19,cs),
(436,33,o),
(452,49,o),
(466,67,cs),
(482,87,o),
(490,107,o),
(490,133,cs),
(490,467,ls),
(490,493,o),
(482,513,o),
(466,533,cs),
(452,551,o),
(436,567,o),
(418,581,cs),
(398,597,o),
(377,605,o),
(352,605,cs),
(50,605,l),
(50,-5,l)
);
},
{
closed = 1;
nodes = (
(170,485,l),
(334,485,ls),
(341,485,o),
(348,482,o),
(353,477,c),
(362,468,l),
(367,463,o),
(370,457,o),
(370,449,cs),
(370,151,ls),
(370,143,o),
(367,137,o),
(362,132,c),
(353,123,l),
(348,118,o),
(341,115,o),
(334,115,cs),
(170,115,l)
);
}
);
width = 540;
}
);
metricLeft = H;
metricRight = O;
unicode = 68;
},
{
glyphname = Eth;
lastChange = "2025-12-28 21:09:10 +0000";
layers = (
{
layerId = m01;
shapes = (
{
alignment = -1;
pos = (10,0);
ref = D;
},
{
closed = 1;
nodes = (
(300,272,l),
(300,328,l),
(20,328,l),
(20,272,l)
);
}
);
width = 521;
},
{
layerId = m002;
shapes = (
{
alignment = -1;
pos = (20,0);
ref = D;
},
{
closed = 1;
nodes = (
(300,240,l),
(300,360,l),
(20,360,l),
(20,240,l)
);
}
);
width = 560;
}
);
metricRight = D;
unicode = 208;
},
{
glyphname = E;
kernLeft = H;
kernRight = E;
lastChange = "2025-12-28 15:37:14 +0000";
layers = (
{
anchors = (
{
name = top;
pos = (240,600);
}
);
layerId = m01;
shapes = (
{
closed = 1;
nodes = (
(435,544,l),
(435,600,l),
(85,600,l),
(85,544,l)
);
},
{
closed = 1;
nodes = (
(123,0,l),
(123,600,l),
(65,600,l),
(65,0,l)
);
},
{
closed = 1;
nodes = (
(435,0,l),
(435,56,l),
(85,56,l),
(85,0,l)
);
},
{
closed = 1;
nodes = (
(415,272,l),
(415,328,l),
(85,328,l),
(85,272,l)
);
}
);
width = 480;
},
{
anchors = (
{
name = top;
pos = (248,600);
}
);
layerId = m002;
shapes = (
{
closed = 1;
nodes = (
(460,480,l),
(460,600,l),
(70,600,l),
(70,480,l)
);
},
{
closed = 1;
nodes = (
(170,0,l),
(170,600,l),
(50,600,l),
(50,0,l)
);
},
{
closed = 1;
nodes = (
(460,0,l),
(460,120,l),
(70,120,l),
(70,0,l)
);
},
{
closed = 1;
nodes = (
(440,240,l),
(440,360,l),
(70,360,l),
(70,240,l)
);
}
);
width = 495;
}
);
metricLeft = H;
unicode = 69;
},
{
glyphname = F;
kernLeft = H;
kernRight = F;
lastChange = "2025-12-28 01:45:48 +0000";
layers = (
{
layerId = m01;
shapes = (
{
closed = 1;
nodes = (
(425,544,l),
(425,600,l),
(85,600,l),
(85,544,l)
);
},
{
closed = 1;
nodes = (
(123,0,l),
(123,600,l),
(65,600,l),
(65,0,l)
);
},
{
closed = 1;
nodes = (
(405,272,l),
(405,328,l),
(85,328,l),
(85,272,l)
);
}
);
width = 470;
},
{
layerId = m002;
shapes = (
{
closed = 1;
nodes = (
(450,480,l),
(450,600,l),
(70,600,l),
(70,480,l)
);
},
{
closed = 1;
nodes = (
(170,0,l),
(170,600,l),
(50,600,l),
(50,0,l)
);
},
{
closed = 1;
nodes = (
(430,240,l),
(430,360,l),
(70,360,l),
(70,240,l)
);
}
);
width = 485;
}
);
metricLeft = E;
metricRight = E;
unicode = 70;
},
{
glyphname = G;
kernLeft = O;
kernRight = G;
lastChange = "2025-12-28 21:13:57 +0000";
layers = (
{
layerId = m01;
shapes = (
{
closed = 1;
nodes = (
(332,-5,ls),
(357,-5,o),
(378,3,o),
(398,19,cs),
(416,33,o),
(432,49,o),
(446,67,cs),
(462,87,o),
(470,107,o),
(470,133,cs),
(470,318,l),
(280,318,l),
(280,262,l),
(412,262,l),
(412,136,ls),
(412,122,o),
(408,112,o),
(399,101,c),
(362,64,ls),
(351,54,o),
(341,51,o),
(327,51,cs),
(193,51,ls),
(179,51,o),
(169,54,o),
(158,64,cs),
(121,101,ls),
(111,112,o),
(108,122,o),
(108,136,cs),
(108,464,ls),
(108,478,o),
(112,488,o),
(121,499,c),
(158,536,ls),
(169,546,o),
(179,549,o),
(193,549,cs),
(337,549,ls),
(351,549,o),
(360,545,o),
(372,536,cs),
(386,525,o),
(397,514,o),
(409,499,c),
(466,523,l),
(449,544,o),
(429,564,o),
(408,581,cs),
(388,597,o),
(367,605,o),
(342,605,cs),
(188,605,ls),
(163,605,o),
(143,596,o),
(123,580,cs),
(105,566,o),
(89,550,o),
(75,532,cs),
(59,512,o),
(50,493,o),
(50,467,cs),
(50,133,ls),
(50,107,o),
(58,87,o),
(74,67,cs),
(88,49,o),
(104,33,o),
(122,19,cs),
(142,3,o),
(163,-5,o),
(188,-5,cs)
);
}
);
width = 535;
},
{
layerId = m002;
shapes = (
{
closed = 1;
nodes = (
(352,-5,ls),
(377,-5,o),
(398,3,o),
(418,19,cs),
(436,33,o),
(452,49,o),
(466,67,cs),
(482,87,o),
(490,107,o),
(490,133,cs),
(490,348,l),
(300,348,l),
(300,228,l),
(370,228,l),
(370,151,ls),
(370,143,o),
(367,137,o),
(362,132,cs),
(353,123,ls),
(348,118,o),
(341,115,o),
(334,115,cs),
(206,115,ls),
(199,115,o),
(193,117,o),
(187,123,cs),
(178,132,ls),
(173,137,o),
(170,143,o),
(170,151,cs),
(170,449,ls),
(170,457,o),
(172,462,o),
(178,468,cs),
(187,477,ls),
(193,483,o),
(199,485,o),
(206,485,cs),
(334,485,ls),
(341,485,o),
(347,482,o),
(353,477,cs),
(360,471,o),
(367,464,o),
(372,458,c),
(496,503,l),
(452,551,o),
(436,567,o),
(418,581,cs),
(398,597,o),
(377,605,o),
(352,605,cs),
(188,605,ls),
(163,605,o),
(143,596,o),
(123,580,cs),
(105,566,o),
(89,550,o),
(75,532,cs),
(59,512,o),
(50,493,o),
(50,467,cs),
(50,133,ls),
(50,107,o),
(58,87,o),
(74,67,cs),
(88,49,o),
(104,33,o),
(122,19,cs),
(142,3,o),
(163,-5,o),
(188,-5,cs)
);
}
);
width = 546;
}
);
metricLeft = C;
unicode = 71;
},
{
glyphname = H;
kernLeft = H;
kernRight = H;
lastChange = "2025-12-27 22:05:28 +0000";
layers = (
{
layerId = m01;
shapes = (
{
closed = 1;
nodes = (
(455,272,l),
(455,328,l),
(85,328,l),
(85,272,l)
);
},
{
closed = 1;
nodes = (
(475,0,l),
(475,600,l),
(417,600,l),
(417,0,l)
);
},
{
closed = 1;
nodes = (
(123,0,l),
(123,600,l),
(65,600,l),
(65,0,l)
);
}
);
width = 540;
},
{
layerId = m002;
shapes = (
{
closed = 1;
nodes = (
(440,240,l),
(440,360,l),
(132,360,l),
(132,240,l)
);
},
{
closed = 1;
nodes = (
(522,0,l),
(522,600,l),
(402,600,l),
(402,0,l)
);
},
{
closed = 1;
nodes = (
(170,0,l),
(170,600,l),
(50,600,l),
(50,0,l)
);
}
);
width = 572;
}
);
unicode = 72;
},
{
glyphname = I;
kernLeft = H;
kernRight = H;
lastChange = "2025-12-28 21:05:37 +0000";
layers = (
{
anchors = (
{
name = top;
pos = (94,600);
}
);
layerId = m01;
shapes = (
{
closed = 1;
nodes = (
(123,0,l),
(123,600,l),
(65,600,l),
(65,0,l)
);
}
);
width = 188;
},
{
anchors = (
{
name = top;
pos = (110,600);
}
);
layerId = m002;
shapes = (
{
closed = 1;
nodes = (
(170,0,l),
(170,600,l),
(50,600,l),
(50,0,l)
);
}
);
width = 220;
}
);
metricLeft = H;
metricRight = H;
unicode = 73;
},
{
glyphname = J;
kernLeft = J;
kernRight = U;
lastChange = "2025-12-28 21:09:10 +0000";
layers = (
{
anchors = (
{
name = top;
pos = (377,600);
}
);
layerId = m01;
shapes = (
{
closed = 1;
nodes = (
(268,-5,ls),
(293,-5,o),
(314,3,o),
(334,19,cs),
(352,33,o),
(368,49,o),
(382,67,cs),
(398,87,o),
(406,107,o),
(406,133,cs),
(406,600,l),
(348,600,l),
(348,136,ls),
(348,122,o),
(344,112,o),
(335,101,cs),
(323,88,o),
(311,76,o),
(298,64,cs),
(287,54,o),
(277,51,o),
(263,51,cs),
(159,51,ls),
(145,51,o),
(135,54,o),
(124,64,cs),
(111,76,o),
(92,95,o),
(80,108,c),
(30,77,l),
(44,59,o),
(70,33,o),
(88,19,cs),
(108,3,o),
(129,-5,o),
(154,-5,cs)
);
}
);
width = 456;
},
{
anchors = (
{
name = top;
pos = (366,600);
}
);
layerId = m002;
shapes = (
{
closed = 1;
nodes = (
(288,-5,ls),
(313,-5,o),
(334,3,o),
(354,19,cs),
(372,33,o),
(388,49,o),
(402,67,cs),
(418,87,o),
(426,107,o),
(426,133,cs),
(426,600,l),
(306,600,l),
(306,151,ls),
(306,143,o),
(303,137,o),
(298,132,cs),
(295,129,o),
(292,126,o),
(289,123,cs),
(284,118,o),
(277,115,o),
(270,115,cs),
(182,115,ls),
(169,115,o),
(158,118,o),
(149,127,cs),
(137,139,o),
(128,150,o),
(127,157,c),
(23,128,l),
(28,93,o),
(34,69,o),
(98,19,cs),
(119,3,o),
(139,-5,o),
(164,-5,cs)
);
}
);
width = 476;
}
);
metricRight = U;
unicode = 74;
},
{
glyphname = K;
kernLeft = H;
kernRight = K;
lastChange = "2025-12-27 22:06:17 +0000";
layers = (
{
hints = (
{
origin = (0,0);
target = (0,3);
type = Stem;
}
);
layerId = m01;
shapes = (
{
closed = 1;
nodes = (
(123,0,l),
(123,600,l),
(65,600,l),
(65,0,l)
);
},
{
closed = 1;
nodes = (
(465,600,l),
(387,600,l),
(97,273,l),
(97,185,l)
);
},
{
closed = 1;
nodes = (
(489,0,l),
(189,338,l),
(149,295,l),
(411,0,l)
);
}
);
width = 504;
},
{
hints = (
{
origin = (0,0);
target = (0,3);
type = Stem;
}
);
layerId = m002;
shapes = (
{
closed = 1;
nodes = (
(170,0,l),
(170,600,l),
(50,600,l),
(50,0,l)
);
},
{
closed = 1;
nodes = (
(532,600,l),
(372,600,l),
(82,273,l),
(82,93,l)
);
},
{
closed = 1;
nodes = (
(557,0,l),
(257,338,l),
(186,236,l),
(396,0,l)
);
}
);
width = 572;
}
);
metricLeft = H;
unicode = 75;
},
{
glyphname = L;
kernLeft = H;
kernRight = L;
lastChange = "2025-12-30 22:57:06 +0000";
layers = (
{
anchors = (
{
name = top;
pos = (92,600);
}
);
layerId = m01;
shapes = (
{
closed = 1;
nodes = (
(435,0,l),
(435,56,l),
(85,56,l),
(85,0,l)
);
},
{
closed = 1;
nodes = (
(123,0,l),
(123,600,l),
(65,600,l),
(65,0,l)
);
}
);
width = 475;
},
{
anchors = (
{
name = top;
pos = (110,600);
}
);
layerId = m002;
shapes = (
{
closed = 1;
nodes = (
(450,0,l),
(450,120,l),
(70,120,l),
(70,0,l)
);
},
{
closed = 1;
nodes = (
(170,0,l),
(170,600,l),
(50,600,l),
(50,0,l)
);
}
);
width = 490;
}
);
metricLeft = H;
unicode = 76;
},
{
glyphname = M;
kernLeft = H;
kernRight = H;
lastChange = "2025-12-27 23:35:59 +0000";
layers = (
{
layerId = m01;
shapes = (
{
closed = 1;
nodes = (
(123,0,l),
(123,487,l),
(265,220,l),
(325,220,l),
(467,487,l),
(467,0,l),
(525,0,l),
(525,600,l),
(461,600,l),
(295,285,l),
(129,600,l),
(65,600,l),
(65,0,l)
);
}
);
width = 590;
},
{
layerId = m002;
shapes = (
{
closed = 1;
nodes = (
(170,0,l),
(170,407,l),
(292,220,l),
(392,220,l),
(514,407,l),
(514,0,l),
(634,0,l),
(634,600,l),
(488,600,l),
(342,355,l),
(196,600,l),
(50,600,l),
(50,0,l)
);
}
);
width = 684;
}
);
metricLeft = H;
metricRight = H;
unicode = 77;
},
{
glyphname = N;
kernLeft = H;
kernRight = H;
lastChange = "2025-12-28 16:55:34 +0000";
layers = (
{
anchors = (
{
name = top;
pos = (280,600);
}
);
layerId = m01;
shapes = (
{
closed = 1;
nodes = (
(123,0,l),
(123,500,l),
(429,0,l),
(495,0,l),
(495,600,l),
(437,600,l),
(437,100,l),
(131,600,l),
(65,600,l),
(65,0,l)
);
}
);
width = 560;
},
{
anchors = (
{
name = top;
pos = (296,600);
}
);
layerId = m002;
shapes = (
{
closed = 1;
nodes = (
(170,0,l),
(170,406,l),
(394,0,l),
(542,0,l),
(542,600,l),
(422,600,l),
(422,194,l),
(198,600,l),
(50,600,l),
(50,0,l)
);
}
);
width = 592;
}
);
metricLeft = M;
metricRight = M;
unicode = 78;
},
{
glyphname = O;
kernLeft = O;
kernRight = O;
lastChange = "2025-12-28 21:13:34 +0000";
layers = (
{
anchors = (
{
name = top;
pos = (260,600);
}
);
hints = (
{
origin = (0,30);
target = (1,8);
type = Stem;
},
{
origin = (1,29);
target = (0,9);
type = Stem;
},
{
horizontal = 1;
origin = (0,0);
target = (1,38);
type = Stem;
},
{
horizontal = 1;
origin = (0,19);
target = (1,19);
type = Stem;
}
);
layerId = m01;
shapes = (
{
closed = 1;
nodes = (
(332,-5,ls),
(357,-5,o),
(378,3,o),
(398,19,cs),
(416,33,o),
(432,49,o),
(446,67,cs),
(462,87,o),
(470,107,o),
(470,133,cs),
(470,467,ls),
(470,493,o),
(462,513,o),
(446,533,cs),
(432,551,o),
(416,567,o),
(398,581,cs),
(378,597,o),
(357,605,o),
(332,605,cs),
(188,605,ls),
(163,605,o),
(143,596,o),
(123,580,cs),
(105,566,o),
(89,550,o),
(75,532,cs),
(59,512,o),
(50,493,o),
(50,467,cs),
(50,133,ls),
(50,107,o),
(58,87,o),
(74,67,cs),
(88,49,o),
(104,33,o),
(122,19,cs),
(142,3,o),
(163,-5,o),
(188,-5,cs)
);
},
{
closed = 1;
nodes = (
(179,51,o),
(169,54,o),
(158,64,cs),
(145,76,o),
(133,88,o),
(121,101,cs),
(111,112,o),
(108,122,o),
(108,136,cs),
(108,464,ls),
(108,478,o),
(112,488,o),
(121,499,cs),
(133,512,o),
(145,524,o),
(158,536,cs),
(169,546,o),
(179,549,o),
(193,549,cs),
(327,549,ls),
(341,549,o),
(351,546,o),
(362,536,cs),
(375,524,o),
(387,512,o),
(399,499,cs),
(409,488,o),
(412,478,o),
(412,464,cs),
(412,136,ls),
(412,122,o),
(408,112,o),
(399,101,cs),
(387,88,o),
(375,76,o),
(362,64,cs),
(351,54,o),
(341,51,o),
(327,51,cs),
(193,51,ls)
);
}
);
width = 520;
},
{
anchors = (
{
name = top;
pos = (270,600);
}
);
hints = (
{
origin = (0,30);
target = (0,36);
type = Stem;
},
{
origin = (0,3);
target = (0,9);
type = Stem;
},
{
horizontal = 1;
origin = (0,0);
target = (0,6);
type = Stem;
},
{
horizontal = 1;
origin = (0,19);
target = (0,13);
type = Stem;
}
);
layerId = m002;
shapes = (
{
closed = 1;
nodes = (
(372,-5,ls),
(397,-5,o),
(418,3,o),
(438,19,cs),
(456,33,o),
(472,49,o),
(486,67,cs),
(502,87,o),
(510,107,o),
(510,133,cs),
(510,467,ls),
(510,493,o),
(502,513,o),
(486,533,cs),
(472,551,o),
(456,567,o),
(438,581,cs),
(418,597,o),
(397,605,o),
(372,605,cs),
(188,605,ls),
(163,605,o),
(143,596,o),
(123,580,cs),
(105,566,o),
(89,550,o),
(75,532,cs),
(59,512,o),
(50,493,o),
(50,467,cs),
(50,133,ls),
(50,107,o),
(58,87,o),
(74,67,cs),
(88,49,o),
(104,33,o),
(122,19,cs),
(142,3,o),
(163,-5,o),
(188,-5,cs)
);
},
{
closed = 1;
nodes = (
(199,115,o),
(193,117,o),
(187,123,cs),
(184,126,o),
(181,129,o),
(178,132,cs),
(173,137,o),
(170,143,o),
(170,151,cs),
(170,449,ls),
(170,457,o),
(172,462,o),
(178,468,cs),
(181,471,o),
(184,474,o),
(187,477,cs),
(193,483,o),
(199,485,o),
(206,485,cs),
(354,485,ls),
(361,485,o),
(368,482,o),
(373,477,cs),
(376,474,o),
(379,471,o),
(382,468,cs),
(387,463,o),
(390,457,o),
(390,449,cs),
(390,151,ls),
(390,143,o),
(387,137,o),
(382,132,cs),
(379,129,o),
(376,126,o),
(373,123,cs),
(368,118,o),
(361,115,o),
(354,115,cs),
(206,115,ls)
);
}
);
width = 560;
}
);
metricLeft = "=50";
metricRight = "=50";
unicode = 79;
},
{
glyphname = Oslash;
lastChange = "2025-12-30 17:43:06 +0000";
layers = (
{
layerId = m01;
shapes = (
{
ref = O;
},
{
closed = 1;
nodes = (
(150,-90,l),
(462,690,l),
(401,690,l),
(89,-90,l)
);
}
);
width = 520;
},
{
layerId = m002;
shapes = (
{
ref = O;
},
{
closed = 1;
nodes = (
(160,-90,l),
(472,690,l),
(381,690,l),
(69,-90,l)
);
}
);
width = 560;
}
);
metricLeft = O;
metricRight = O;
unicode = 216;
},
{
glyphname = OE;
kernLeft = O;
kernRight = E;
lastChange = "2025-12-28 21:09:05 +0000";
layers = (
{
layerId = m01;
shapes = (
{
alignment = -1;
pos = (318,0);
ref = E;
},
{
closed = 1;
nodes = (
(302,0,ls),
(327,0,o),
(348,8,o),
(368,24,cs),
(386,38,o),
(402,54,o),
(416,72,c),
(389,116,l),
(377,103,o),
(355,81,o),
(342,69,cs),
(331,59,o),
(321,56,o),
(307,56,cs),
(193,56,ls),
(179,56,o),
(169,59,o),
(158,69,cs),
(145,81,o),
(133,93,o),
(121,106,cs),
(111,117,o),
(108,127,o),
(108,141,cs),
(108,459,ls),
(108,473,o),
(112,483,o),
(121,494,cs),
(133,507,o),
(145,519,o),
(158,531,cs),
(169,541,o),
(179,544,o),
(193,544,cs),
(307,544,ls),
(321,544,o),
(331,541,o),
(342,531,cs),
(355,519,o),
(377,497,o),
(389,484,c),
(416,528,l),
(402,546,o),
(386,562,o),
(368,576,cs),
(348,592,o),
(327,600,o),
(302,600,cs),
(188,600,ls),
(163,600,o),
(143,591,o),
(123,575,cs),
(105,561,o),
(89,545,o),
(75,527,cs),
(59,507,o),
(50,488,o),
(50,462,cs),
(50,138,ls),
(50,112,o),
(58,92,o),
(74,72,cs),
(88,54,o),
(104,38,o),
(122,24,cs),
(142,8,o),
(163,0,o),
(188,0,cs)
);
}
);
width = 798;
},
{
layerId = m002;
shapes = (
{
alignment = -1;
pos = (330,0);
ref = E;
},
{
closed = 1;
nodes = (
(312,0,ls),
(337,0,o),
(358,8,o),
(378,24,cs),
(396,38,o),
(422,74,o),
(436,92,c),
(432,217,l),
(429,214,o),
(346,131,o),
(343,128,cs),
(338,123,o),
(331,120,o),
(324,120,cs),
(206,120,ls),
(199,120,o),
(193,122,o),
(187,128,cs),
(184,131,o),
(181,134,o),
(178,137,cs),
(173,142,o),
(170,148,o),
(170,156,cs),
(170,444,ls),
(170,452,o),
(172,457,o),
(178,463,cs),
(181,466,o),
(184,469,o),
(187,472,cs),
(193,478,o),
(199,480,o),
(206,480,cs),
(324,480,ls),
(331,480,o),
(338,477,o),
(343,472,cs),
(346,469,o),
(429,386,o),
(432,383,c),
(436,508,l),
(422,526,o),
(396,562,o),
(378,576,cs),
(358,592,o),
(337,600,o),
(312,600,cs),
(188,600,ls),
(163,600,o),
(143,591,o),
(123,575,cs),
(105,561,o),
(89,545,o),
(75,527,cs),
(59,507,o),
(50,488,o),
(50,462,cs),
(50,138,ls),
(50,112,o),
(58,92,o),
(74,72,cs),
(88,54,o),
(104,38,o),
(122,24,cs),
(142,8,o),
(163,0,o),
(188,0,cs)
);
}
);
width = 825;
}
);
metricLeft = O;
metricRight = E;
unicode = 338;
},
{
glyphname = P;
kernLeft = H;
kernRight = P;
lastChange = "2025-12-28 21:22:28 +0000";
layers = (
{
layerId = m01;
shapes = (
{
closed = 1;
nodes = (
(119,0,l),
(119,544,l),
(324,544,ls),
(334,544,o),
(343,542,o),
(351,535,cs),
(366,524,o),
(377,513,o),
(388,499,cs),
(395,490,o),
(397,483,o),
(397,472,cs),
(397,401,ls),
(397,390,o),
(395,383,o),
(388,374,cs),
(377,359,o),
(366,348,o),
(352,337,cs),
(344,330,o),
(335,328,o),
(325,328,cs),
(99,328,l),
(99,272,l),
(334,272,ls),
(356,272,o),
(372,277,o),
(389,292,cs),
(406,306,o),
(421,322,o),
(435,338,cs),
(450,355,o),
(455,371,o),
(455,393,cs),
(455,479,ls),
(455,501,o),
(450,517,o),
(435,534,cs),
(421,551,o),
(405,566,o),
(389,580,cs),
(372,595,o),
(356,600,o),
(334,600,cs),
(65,600,l),
(65,0,l)
);
}
);
width = 485;
},
{
layerId = m002;
shapes = (
{
closed = 1;
nodes = (
(170,0,l),
(170,480,l),
(344,480,ls),
(351,480,o),
(358,477,o),
(363,472,c),
(366,469,o),
(369,466,o),
(372,463,c),
(377,458,o),
(380,452,o),
(380,444,cs),
(380,386,ls),
(380,378,o),
(377,372,o),
(372,367,c),
(369,364,o),
(366,361,o),
(363,358,c),
(358,353,o),
(351,350,o),
(344,350,cs),
(150,350,l),
(150,230,l),
(362,230,ls),
(387,230,o),
(408,238,o),
(428,254,cs),
(446,268,o),
(462,284,o),
(476,302,cs),
(492,322,o),
(500,342,o),
(500,368,cs),
(500,462,ls),
(500,488,o),
(492,508,o),
(476,528,cs),
(462,546,o),
(446,562,o),
(428,576,cs),
(408,592,o),
(387,600,o),
(362,600,cs),
(50,600,l),
(50,0,l)
);
}
);
width = 530;
}
);
metricLeft = H;
metricRight = "=30";
unicode = 80;
},
{
glyphname = Thorn;
kernLeft = Thorn;
kernRight = Thorn;
lastChange = "2025-12-28 21:09:05 +0000";
layers = (
{
layerId = m01;
shapes = (
{
closed = 1;
nodes = (
(123,0,l),
(123,600,l),
(65,600,l),
(65,0,l)
);
},
{
closed = 1;
nodes = (
(103,408,l),
(324,408,ls),
(334,408,o),
(343,406,o),
(351,399,cs),
(366,388,o),
(377,377,o),
(388,363,cs),
(395,354,o),
(397,347,o),
(397,336,cs),
(397,265,ls),
(397,254,o),
(395,247,o),
(388,238,cs),
(377,223,o),
(366,212,o),
(352,201,cs),
(344,194,o),
(335,192,o),
(325,192,cs),
(99,192,l),
(99,136,l),
(334,136,ls),
(356,136,o),
(372,141,o),
(389,156,cs),
(406,170,o),
(421,186,o),
(435,202,cs),
(450,219,o),
(455,235,o),
(455,257,cs),
(455,343,ls),
(455,365,o),
(450,381,o),
(435,398,cs),
(421,415,o),
(405,430,o),
(389,444,cs),
(372,459,o),
(356,464,o),
(334,464,cs),
(103,464,l)
);
}
);
width = 485;
},
{
layerId = m002;
shapes = (
{
closed = 1;
nodes = (
(170,0,l),
(170,600,l),
(50,600,l),
(50,0,l)
);
},
{
closed = 1;
nodes = (
(150,365,l),
(344,365,ls),
(351,365,o),
(358,362,o),
(363,357,c),
(366,354,o),
(369,351,o),
(372,348,c),
(377,343,o),
(380,337,o),
(380,329,cs),
(380,271,ls),
(380,263,o),
(377,257,o),
(372,252,c),
(369,249,o),
(366,246,o),
(363,243,c),
(358,238,o),
(351,235,o),
(344,235,cs),
(150,235,l),
(150,115,l),
(362,115,ls),
(387,115,o),
(408,123,o),
(428,139,cs),
(446,153,o),
(462,169,o),
(476,187,cs),
(492,207,o),
(500,227,o),
(500,253,cs),
(500,347,ls),
(500,373,o),
(492,393,o),
(476,413,cs),
(462,431,o),
(446,447,o),
(428,461,cs),
(408,477,o),
(387,485,o),
(362,485,cs),
(150,485,l)
);
}
);
width = 530;
}
);
metricLeft = P;
metricRight = P;
unicode = 222;
},
{
glyphname = Q;
kernLeft = O;
kernRight = Q;
lastChange = "2025-12-28 21:09:05 +0000";
layers = (
{
layerId = m01;
shapes = (
{
alignment = -1;
locked = 1;
ref = O;
},
{
closed = 1;
nodes = (
(499,18,l),
(368,149,l),
(327,109,l),
(458,-22,l)
);
}
);
width = 560;
},
{
layerId = m002;
shapes = (
{
alignment = -1;
ref = O;
},
{
closed = 1;
nodes = (
(524,43,l),
(343,224,l),
(262,144,l),
(443,-37,l)
);
}
);
width = 560;
}
);
metricLeft = O;
unicode = 81;
},
{
glyphname = R;
kernLeft = H;
kernRight = R;
lastChange = "2025-12-28 21:07:37 +0000";
layers = (
{
layerId = m01;
shapes = (
{
closed = 1;
nodes = (
(287,315,l),
(412,0,l),
(474,0,l),
(349,315,l)
);
},
{
alignment = -1;
locked = 1;
ref = P;
}
);
width = 514;
},
{
layerId = m002;
shapes = (
{
closed = 1;
nodes = (
(267,315,l),
(392,0,l),
(520,0,l),
(395,315,l)
);
},
{
alignment = -1;
ref = P;
}
);
width = 530;
}
);
metricLeft = H;
unicode = 82;
},
{
glyphname = S;
kernLeft = S;
kernRight = S;
lastChange = "2025-12-28 21:21:11 +0000";
layers = (
{
layerId = m01;
shapes = (
{
closed = 1;
nodes = (
(298,0,ls),
(323,0,o),
(343,9,o),
(363,25,cs),
(381,39,o),
(397,55,o),
(411,73,cs),
(427,93,o),
(436,112,o),
(436,138,cs),
(436,208,ls),
(436,262,o),
(409,295,o),
(356,306,cs),
(128,354,ls),
(105,359,o),
(93,373,o),
(93,397,cs),
(93,459,ls),
(93,473,o),
(97,483,o),
(106,494,c),
(143,531,ls),
(154,541,o),
(164,544,o),
(178,544,cs),
(323,544,ls),
(337,544,o),
(347,541,o),
(358,531,cs),
(395,494,l),
(442,528,l),
(428,546,o),
(412,562,o),
(394,576,cs),
(374,592,o),
(353,600,o),
(328,600,cs),
(174,600,ls),
(149,600,o),
(129,591,o),
(109,575,cs),
(91,561,o),
(75,545,o),
(61,527,cs),
(45,507,o),
(36,488,o),
(36,462,cs),
(36,397,ls),
(36,343,o),
(63,310,o),
(116,299,cs),
(344,251,ls),
(367,246,o),
(379,231,o),
(379,207,cs),
(379,141,ls),
(379,127,o),
(375,117,o),
(366,106,c),
(329,69,ls),
(318,59,o),
(308,56,o),
(294,56,cs),
(149,56,ls),
(135,56,o),
(125,59,o),
(114,69,cs),
(77,106,l),
(30,72,l),
(44,54,o),
(60,38,o),
(78,24,cs),
(98,8,o),
(119,0,o),
(144,0,cs)
);
}
);
width = 472;
},
{
layerId = m002;
shapes = (
{
closed = 1;
nodes = (
(338,-5,ls),
(363,-5,o),
(383,4,o),
(403,20,cs),
(421,34,o),
(437,50,o),
(451,68,cs),
(467,88,o),
(477,107,o),
(477,133,cs),
(477,213,ls),
(477,294,o),
(435,341,o),
(355,350,cs),
(207,366,ls),
(186,368,o),
(174,381,o),
(174,403,cs),
(174,449,ls),
(174,457,o),
(176,462,o),
(182,468,cs),
(191,477,ls),
(197,483,o),
(203,485,o),
(210,485,cs),
(348,485,ls),
(355,485,o),
(362,482,o),
(367,477,cs),
(376,468,l),
(480,523,l),
(469,544,o),
(450,567,o),
(432,581,cs),
(412,597,o),
(391,605,o),
(366,605,cs),
(192,605,ls),
(167,605,o),
(147,596,o),
(127,580,cs),
(109,566,o),
(93,550,o),
(79,532,cs),
(63,512,o),
(53,493,o),
(53,467,cs),
(53,387,ls),
(53,306,o),
(95,259,o),
(175,250,cs),
(323,234,ls),
(344,232,o),
(356,219,o),
(356,197,cs),
(356,151,ls),
(356,143,o),
(354,138,o),
(348,132,cs),
(339,123,ls),
(333,117,o),
(327,115,o),
(320,115,cs),
(162,115,ls),
(155,115,o),
(148,118,o),
(143,123,cs),
(134,132,l),
(30,77,l),
(41,56,o),
(60,33,o),
(78,19,cs),
(98,3,o),
(119,-5,o),
(144,-5,cs)
);
}
);
width = 510;
}
);
metricLeft = "=30";
metricRight = "=30";
unicode = 83;
},
{
glyphname = Germandbls;
lastChange = "2025-12-30 22:53:23 +0000";
layers = (
{
layerId = m01;
shapes = (
{
closed = 1;
nodes = (
(123,0,l),
(123,470,ls),
(123,481,o),
(125,488,o),
(132,497,cs),
(143,511,o),
(155,523,o),
(169,535,cs),
(177,542,o),
(186,544,o),
(196,544,cs),
(392,544,l),
(246,337,l),
(246,270,l),
(348,270,ls),
(358,270,o),
(367,268,o),
(375,261,cs),
(389,249,o),
(401,237,o),
(412,223,cs),
(419,214,o),
(421,207,o),
(421,196,cs),
(421,126,ls),
(421,115,o),
(419,108,o),
(412,99,cs),
(401,85,o),
(389,73,o),
(375,61,cs),
(367,54,o),
(358,52,o),
(348,52,cs),
(175,52,l),
(175,0,l),
(354,0,ls),
(376,0,o),
(391,6,o),
(409,20,cs),
(426,34,o),
(442,50,o),
(455,66,cs),
(469,84,o),
(475,99,o),
(475,121,cs),
(475,201,ls),
(475,223,o),
(469,238,o),
(455,256,cs),
(442,272,o),
(426,288,o),
(409,302,cs),
(391,316,o),
(376,322,o),
(354,322,cs),
(305,322,l),
(454,534,l),
(454,600,l),
(186,600,ls),
(164,600,o),
(149,594,o),
(131,580,cs),
(114,566,o),
(98,550,o),
(85,534,cs),
(71,516,o),
(65,501,o),
(65,479,cs),
(65,0,l)
);
}
);
width = 535;
},
{
layerId = m002;
shapes = (
{
closed = 1;
nodes = (
(170,0,l),
(170,444,ls),
(170,452,o),
(172,457,o),
(178,463,cs),
(181,466,o),
(184,469,o),
(187,472,cs),
(193,478,o),
(199,480,o),
(206,480,c),
(392,480,l),
(269,345,l),
(269,225,l),
(364,225,ls),
(371,225,o),
(378,222,o),
(383,217,cs),
(386,214,o),
(389,211,o),
(392,208,cs),
(397,203,o),
(400,197,o),
(400,189,cs),
(400,156,ls),
(400,148,o),
(397,142,o),
(392,137,cs),
(389,134,o),
(386,131,o),
(383,128,cs),
(378,123,o),
(371,120,o),
(364,120,cs),
(229,120,l),
(229,0,l),
(399,0,ls),
(421,0,o),
(436,6,o),
(454,20,cs),
(471,34,o),
(487,50,o),
(500,66,cs),
(514,84,o),
(520,99,o),
(520,121,cs),
(520,224,ls),
(520,246,o),
(514,261,o),
(500,279,cs),
(487,295,o),
(471,311,o),
(454,325,cs),
(445,332,o),
(432,338,o),
(421,340,c),
(416,341,l),
(524,464,l),
(524,600,l),
(171,600,l),
(149,600,o),
(134,594,o),
(116,580,cs),
(99,566,o),
(83,550,o),
(70,534,cs),
(56,516,o),
(50,501,o),
(50,479,cs),
(50,0,l)
);
}
);
width = 574;
}
);
metricLeft = D;
metricRight = B;
unicode = 7838;
},
{
glyphname = T;
kernLeft = T;
kernRight = T;
lastChange = "2025-12-28 21:09:33 +0000";
layers = (
{
layerId = m01;
shapes = (
{
closed = 1;
nodes = (
(465,544,l),
(465,600,l),
(35,600,l),
(35,544,l)
);
},
{
closed = 1;
nodes = (
(279,0,l),
(279,564,l),
(221,564,l),
(221,0,l)
);
}
);
width = 500;
},
{
layerId = m002;
shapes = (
{
closed = 1;
nodes = (
(505,480,l),
(505,600,l),
(35,600,l),
(35,480,l)
);
},
{
closed = 1;
nodes = (
(330,0,l),
(330,564,l),
(210,564,l),
(210,0,l)
);
}
);
width = 540;
}
);
metricRight = "=|T";
unicode = 84;
},
{
glyphname = U;
kernLeft = U;
kernRight = U;
lastChange = "2025-12-28 21:13:00 +0000";
layers = (
{
anchors = (
{
name = top;
pos = (260,600);
}
);
layerId = m01;
shapes = (
{
closed = 1;
nodes = (
(332,-5,ls),
(357,-5,o),
(378,3,o),
(398,19,cs),
(416,33,o),
(432,49,o),
(446,67,cs),
(462,87,o),
(470,107,o),
(470,133,cs),
(470,600,l),
(412,600,l),
(412,136,ls),
(412,122,o),
(408,112,o),
(399,101,cs),
(387,88,o),
(375,76,o),
(362,64,cs),
(351,54,o),
(341,51,o),
(327,51,cs),
(193,51,ls),
(179,51,o),
(169,54,o),
(158,64,cs),
(145,76,o),
(133,88,o),
(121,101,cs),
(111,112,o),
(108,122,o),
(108,136,cs),
(108,600,l),
(50,600,l),
(50,133,ls),
(50,107,o),
(58,87,o),
(74,67,cs),
(88,49,o),
(104,33,o),
(122,19,cs),
(142,3,o),
(163,-5,o),
(188,-5,cs)
);
}
);
width = 520;
},
{
anchors = (
{
name = top;
pos = (270,600);
}
);
layerId = m002;
shapes = (
{
closed = 1;
nodes = (
(372,-5,ls),
(397,-5,o),
(418,3,o),
(438,19,cs),
(456,33,o),
(472,49,o),
(486,67,cs),
(502,87,o),
(510,107,o),
(510,133,cs),
(510,600,l),
(390,600,l),
(390,151,ls),
(390,143,o),
(387,137,o),
(382,132,cs),
(379,129,o),
(376,126,o),
(373,123,cs),
(368,118,o),
(361,115,o),
(354,115,cs),
(206,115,ls),
(199,115,o),
(193,117,o),
(187,123,cs),
(184,126,o),
(181,129,o),
(178,132,cs),
(173,137,o),
(170,143,o),
(170,151,cs),
(170,600,l),
(50,600,l),
(50,133,ls),
(50,107,o),
(58,87,o),
(74,67,cs),
(88,49,o),
(104,33,o),
(122,19,cs),
(142,3,o),
(163,-5,o),
(188,-5,cs)
);
}
);
width = 560;
}
);
metricLeft = O;
metricRight = O;
unicode = 85;
},
{
glyphname = V;
kernLeft = V;
kernRight = V;
lastChange = "2025-12-28 21:14:42 +0000";
layers = (
{
layerId = m01;
shapes = (
{
closed = 1;
nodes = (
(330,0,l),
(560,600,l),
(498,600,l),
(295,70,l),
(285,70,l),
(82,600,l),
(20,600,l),
(250,0,l)
);
}
);
width = 580;
},
{
layerId = m002;
shapes = (
{
closed = 1;
nodes = (
(390,0,l),
(620,600,l),
(493,600,l),
(325,167,l),
(315,167,l),
(147,600,l),
(20,600,l),
(250,0,l)
);
}
);
width = 640;
}
);
unicode = 86;
},
{
glyphname = W;
kernLeft = W;
kernRight = W;
lastChange = "2025-12-28 21:14:48 +0000";
layers = (
{
anchors = (
{
name = top;
pos = (388,600);
}
);
layerId = m01;
shapes = (
{
closed = 1;
nodes = (
(258,0,l),
(388,517,l),
(518,0,l),
(614,0,l),
(756,600,l),
(696,600,l),
(569,74,l),
(559,74,l),
(426,600,l),
(350,600,l),
(217,74,l),
(207,74,l),
(80,600,l),
(20,600,l),
(162,0,l)
);
}
);
width = 776;
},
{
anchors = (
{
name = top;
pos = (433,600);
}
);
layerId = m002;
shapes = (
{
closed = 1;
nodes = (
(320,0,l),
(433,420,l),
(546,0,l),
(714,0,l),
(846,600,l),
(722,600,l),
(629,174,l),
(619,174,l),
(501,600,l),
(365,600,l),
(247,174,l),
(237,174,l),
(144,600,l),
(20,600,l),
(152,0,l)
);
}
);
width = 866;
}
);
unicode = 87;
},
{
glyphname = X;
kernLeft = X;
kernRight = X;
lastChange = "2025-12-28 21:14:01 +0000";
layers = (
{
layerId = m01;
shapes = (
{
closed = 1;
nodes = (
(91,0,l),
(248,255,l),
(405,0,l),
(471,0,l),
(289,300,l),
(471,600,l),
(405,600,l),
(248,345,l),
(91,600,l),
(25,600,l),
(207,300,l),
(25,0,l)
);
}
);
width = 496;
},
{
layerId = m002;
shapes = (
{
closed = 1;
nodes = (
(171,0,l),
(298,200,l),
(425,0,l),
(571,0,l),
(379,300,l),
(571,600,l),
(425,600,l),
(298,400,l),
(171,600,l),
(25,600,l),
(217,300,l),
(25,0,l)
);
}
);
width = 596;
}
);
metricLeft = "=25";
metricRight = "=25";
unicode = 88;
},
{
glyphname = Y;
kernLeft = Y;
kernRight = Y;
lastChange = "2025-12-28 21:23:37 +0000";
layers = (
{
anchors = (
{
name = top;
pos = (240,600);
}
);
layerId = m01;
shapes = (
{
closed = 1;
nodes = (
(460,600,l),
(394,600,l),
(240,310,l),
(86,600,l),
(20,600,l),
(240,186,l)
);
},
{
closed = 1;
nodes = (
(269,0,l),
(269,287,l),
(211,287,l),
(211,0,l)
);
}
);
width = 480;
},
{
anchors = (
{
name = top;
pos = (270,600);
}
);
layerId = m002;
shapes = (
{
closed = 1;
nodes = (
(520,600,l),
(386,600,l),
(270,367,l),
(154,600,l),
(20,600,l),
(270,116,l)
);
},
{
closed = 1;
nodes = (
(330,0,l),
(330,287,l),
(210,287,l),
(210,0,l)
);
}
);
width = 540;
}
);
unicode = 89;
},
{
glyphname = Z;
kernLeft = Z;
kernRight = Z;
lastChange = "2025-12-30 22:58:24 +0000";
layers = (
{
anchors = (
{
name = bottom;
pos = (260,0);
},
{
name = top;
pos = (260,600);
}
);
layerId = m01;
shapes = (
{
closed = 1;
nodes = (
(480,0,l),
(480,56,l),
(110,56,l),
(480,539,l),
(480,600,l),
(43,600,l),
(43,544,l),
(410,544,l),
(40,61,l),
(40,0,l)
);
}
);
width = 520;
},
{
anchors = (
{
name = bottom;
pos = (260,0);
},
{
name = top;
pos = (260,600);
}
);
layerId = m002;
shapes = (
{
closed = 1;
nodes = (
(480,0,l),
(480,120,l),
(185,120,l),
(480,465,l),
(480,600,l),
(43,600,l),
(43,480,l),
(335,480,l),
(40,135,l),
(40,0,l)
);
}
);
width = 520;
}
);
unicode = 90;
},
{
glyphname = a;
kernLeft = a;
kernRight = a;
lastChange = "2025-12-30 22:51:49 +0000";
layers = (
{
anchors = (
{
name = top;
pos = (215,430);
}
);
layerId = m01;
shapes = (
{
alignment = -1;
locked = 1;
piece = {
Height = 19.47361;
kink = 100;
};
pos = (442,0);
ref = _part.stem_down;
scale = (-1,1);
},
{
closed = 1;
nodes = (
(273,-3,ls),
(295,-3,o),
(311,2,o),
(328,17,cs),
(344,31,o),
(360,46,o),
(374,63,c),
(341,102,l),
(341,82,o),
(332,71,o),
(314,58,cs),
(306,51,o),
(297,49,o),
(287,49,cs),
(157,49,ls),
(147,49,o),
(139,52,o),
(130,58,cs),
(119,66,o),
(112,73,o),
(103,86,cs),
(97,95,o),
(94,102,o),
(94,113,cs),
(94,144,ls),
(94,155,o),
(97,162,o),
(103,171,cs),
(112,183,o),
(118,189,o),
(131,198,cs),
(140,204,o),
(148,207,o),
(158,207,cs),
(361,207,l),
(361,259,l),
(151,259,ls),
(129,259,o),
(113,253,o),
(96,239,cs),
(82,228,o),
(72,218,o),
(60,203,cs),
(46,185,o),
(40,169,o),
(40,148,cs),
(40,108,ls),
(40,87,o),
(46,70,o),
(60,53,cs),
(71,39,o),
(81,29,o),
(96,17,cs),
(114,3,o),
(129,-3,o),
(151,-3,cs)
);
},
{
alignment = -1;
pos = (-16,0);
ref = _part.tail;
}
);
width = 453;
},
{
anchors = (
{
name = top;
pos = (234,430);
}
);
layerId = m002;
shapes = (
{
alignment = -1;
locked = 1;
piece = {
Height = 19.47361;
kink = 100;
};
pos = (482,0);
ref = _part.stem_down;
scale = (-1,1);
},
{
closed = 1;
nodes = (
(283,-3,ls),
(305,-3,o),
(321,2,o),
(338,17,cs),
(354,31,o),
(370,46,o),
(384,63,c),
(315,138,l),
(315,126,o),
(309,119,o),
(301,115,cs),
(297,113,o),
(291,112,o),
(284,112,c),
(176,112,ls),
(172,112,o),
(169,113,o),
(166,116,cs),
(165,117,o),
(165,117,o),
(164,118,cs),
(161,121,o),
(160,124,o),
(160,128,cs),
(160,153,ls),
(160,157,o),
(161,160,o),
(164,163,cs),
(165,164,o),
(165,164,o),
(166,165,cs),
(169,168,o),
(172,169,o),
(176,169,cs),
(401,169,l),
(401,264,l),
(151,264,ls),
(129,264,o),
(113,258,o),
(96,244,cs),
(82,233,o),
(72,223,o),
(60,208,cs),
(46,190,o),
(40,174,o),
(40,153,cs),
(40,108,ls),
(40,87,o),
(46,70,o),
(60,53,cs),
(71,39,o),
(81,29,o),
(96,17,cs),
(114,3,o),
(129,-3,o),
(151,-3,cs)
);
},
{
alignment = -1;
locked = 1;
pos = (-16,0);
ref = _part.tail;
}
);
width = 483;
}
);
metricLeft = "=40";
metricRight = d;
unicode = 97;
},
{
glyphname = ae;
kernLeft = a;
kernRight = e;
lastChange = "2025-12-30 22:52:42 +0000";
layers = (
{
layerId = m01;
shapes = (
{
closed = 1;
nodes = (
(509,-3,ls),
(531,-3,o),
(547,2,o),
(564,17,cs),
(581,31,o),
(604,54,o),
(625,78,c),
(568,95,l),
(555,80,o),
(541,66,o),
(530,58,cs),
(522,51,o),
(513,49,o),
(503,49,cs),
(429,49,ls),
(419,49,o),
(410,51,o),
(402,58,cs),
(387,69,o),
(375,81,o),
(364,95,cs),
(357,104,o),
(355,111,o),
(355,122,cs),
(355,309,ls),
(355,320,o),
(357,327,o),
(364,336,cs),
(375,351,o),
(387,363,o),
(401,374,cs),
(409,381,o),
(418,383,o),
(428,383,cs),
(493,383,ls),
(503,383,o),
(512,381,o),
(520,374,cs),
(535,363,o),
(547,351,o),
(558,337,cs),
(565,328,o),
(567,321,o),
(567,310,cs),
(567,248,l),
(335,248,l),
(335,196,l),
(621,196,l),
(621,314,ls),
(621,336,o),
(616,352,o),
(601,369,cs),
(587,386,o),
(571,401,o),
(555,415,cs),
(538,430,o),
(522,435,o),
(500,435,cs),
(422,435,ls),
(400,435,o),
(384,430,o),
(367,415,cs),
(350,401,o),
(335,385,o),
(321,369,cs),
(306,352,o),
(301,336,o),
(301,314,cs),
(301,85,l),
(328,54,o),
(336,44,o),
(367,17,cs),
(384,2,o),
(400,-3,o),
(422,-3,cs)
);
},
{
closed = 1;
nodes = (
(253,-3,ls),
(275,-3,o),
(291,2,o),
(308,17,cs),
(324,31,o),
(330,36,o),
(344,53,c),
(301,102,l),
(301,82,o),
(292,71,o),
(274,58,cs),
(266,51,o),
(257,49,o),
(247,49,cs),
(157,49,ls),
(147,49,o),
(139,52,o),
(130,58,cs),
(119,66,o),
(112,73,o),
(103,86,cs),
(97,95,o),
(94,102,o),
(94,113,cs),
(94,133,ls),
(94,144,o),
(97,151,o),
(103,160,cs),
(112,172,o),
(118,178,o),
(131,187,cs),
(140,193,o),
(148,196,o),
(158,196,cs),
(321,196,l),
(321,248,l),
(151,248,ls),
(129,248,o),
(113,242,o),
(96,228,cs),
(82,217,o),
(72,207,o),
(60,192,cs),
(46,174,o),
(40,158,o),
(40,137,cs),
(40,108,ls),
(40,87,o),
(46,70,o),
(60,53,cs),
(71,39,o),
(81,29,o),
(96,17,cs),
(114,3,o),
(129,-3,o),
(151,-3,cs)
);
},
{
alignment = -1;
locked = 1;
piece = {
Width = 313.01523;
};
pos = (-16,0);
ref = _part.tail;
}
);
width = 675;
},
{
layerId = m002;
shapes = (
{
closed = 1;
nodes = (
(574,-5,ls),
(596,-5,o),
(611,1,o),
(629,15,cs),
(646,29,o),
(673,57,o),
(685,102,c),
(577,132,l),
(574,129,o),
(571,126,o),
(568,123,cs),
(563,118,o),
(556,115,o),
(549,115,cs),
(461,115,ls),
(454,115,o),
(448,117,o),
(442,123,cs),
(439,126,o),
(436,129,o),
(433,132,cs),
(428,137,o),
(425,143,o),
(425,151,cs),
(425,279,ls),
(425,287,o),
(427,292,o),
(433,298,cs),
(436,301,o),
(439,304,o),
(442,307,cs),
(448,313,o),
(454,315,o),
(461,315,cs),
(529,315,ls),
(536,315,o),
(543,312,o),
(548,307,cs),
(551,304,o),
(554,301,o),
(557,298,cs),
(562,293,o),
(565,287,o),
(565,279,cs),
(565,263,l),
(399,263,l),
(399,163,l),
(685,163,l),
(685,314,ls),
(685,336,o),
(679,351,o),
(665,369,cs),
(652,385,o),
(636,401,o),
(619,415,cs),
(601,429,o),
(586,435,o),
(564,435,cs),
(426,435,ls),
(404,435,o),
(389,429,o),
(371,415,cs),
(354,401,o),
(338,385,o),
(325,369,cs),
(311,351,o),
(305,336,o),
(305,314,cs),
(305,90,l),
(319,65,o),
(344,38,o),
(371,15,cs),
(389,1,o),
(404,-5,o),
(426,-5,cs)
);
},
{
closed = 1;
nodes = (
(303,-3,ls),
(325,-3,o),
(341,2,o),
(358,17,cs),
(374,31,o),
(390,46,o),
(404,63,c),
(305,138,l),
(305,126,o),
(299,119,o),
(291,115,cs),
(287,113,o),
(281,112,o),
(274,112,c),
(176,112,ls),
(172,112,o),
(169,113,o),
(166,116,cs),
(165,117,o),
(165,117,o),
(164,118,cs),
(161,121,o),
(160,124,o),
(160,128,cs),
(160,148,ls),
(160,152,o),
(161,155,o),
(164,158,cs),
(165,159,o),
(165,159,o),
(166,160,cs),
(169,163,o),
(172,164,o),
(176,164,cs),
(331,164,l),
(331,263,l),
(151,263,ls),
(129,263,o),
(113,257,o),
(96,243,cs),
(82,232,o),
(72,222,o),
(60,207,cs),
(46,189,o),
(40,173,o),
(40,152,cs),
(40,108,ls),
(40,87,o),
(46,70,o),
(60,53,cs),
(71,39,o),
(81,29,o),
(96,17,cs),
(114,3,o),
(129,-3,o),
(151,-3,cs)
);
},
{
alignment = -1;
piece = {
Width = 341.16705;
};
pos = (-14,0);
ref = _part.tail;
}
);
width = 735;
}
);
metricLeft = a;
metricRight = e;
unicode = 230;
},
{
glyphname = c;
kernLeft = o;
kernRight = c;
lastChange = "2025-12-30 23:02:43 +0000";
layers = (
{
anchors = (
{
name = bottom;
pos = (241,0);
},
{
name = top;
pos = (230,430);
}
);
hints = (
{
origin = (0,7);
target = (0,6);
type = Stem;
},
{
origin = (0,57);
target = (0,24);
type = Stem;
}
);
layerId = m01;
shapes = (
{
closed = 1;
nodes = (
(294,-5,ls),
(316,-5,o),
(331,1,o),
(349,15,cs),
(366,29,o),
(382,45,o),
(395,61,c),
(352,94,l),
(341,80,o),
(329,68,o),
(315,56,cs),
(307,49,o),
(298,47,o),
(288,47,cs),
(182,47,ls),
(172,47,o),
(163,49,o),
(155,56,cs),
(141,68,o),
(129,80,o),
(118,94,cs),
(111,103,o),
(109,110,o),
(109,121,cs),
(109,309,ls),
(109,320,o),
(111,327,o),
(118,336,cs),
(129,350,o),
(141,362,o),
(155,374,cs),
(163,381,o),
(172,383,o),
(182,383,cs),
(288,383,ls),
(298,383,o),
(307,381,o),
(315,374,cs),
(329,362,o),
(341,350,o),
(352,336,c),
(395,369,l),
(382,385,o),
(366,401,o),
(349,415,cs),
(331,429,o),
(316,435,o),
(294,435,cs),
(176,435,ls),
(154,435,o),
(139,429,o),
(121,415,cs),
(104,401,o),
(88,385,o),
(75,369,cs),
(61,351,o),
(55,336,o),
(55,314,cs),
(55,116,ls),
(55,94,o),
(61,79,o),
(75,61,cs),
(88,45,o),
(104,29,o),
(121,15,cs),
(139,1,o),
(154,-5,o),
(176,-5,cs)
);
}
);
width = 430;
},
{
anchors = (
{
name = bottom;
pos = (241,0);
},
{
name = top;
pos = (230,430);
}
);
hints = (
{
origin = (0,0);
target = (0,6);
type = Stem;
},
{
origin = (0,57);
target = (0,48);
type = Stem;
}
);
layerId = m002;
shapes = (
{
closed = 1;
nodes = (
(304,-5,ls),
(326,-5,o),
(341,1,o),
(359,15,cs),
(376,29,o),
(400,55,o),
(415,81,c),
(297,132,l),
(294,129,o),
(291,126,o),
(288,123,cs),
(283,118,o),
(276,115,o),
(269,115,cs),
(201,115,ls),
(194,115,o),
(188,117,o),
(182,123,cs),
(179,126,o),
(176,129,o),
(173,132,cs),
(168,137,o),
(165,143,o),
(165,151,cs),
(165,279,ls),
(165,287,o),
(167,292,o),
(173,298,cs),
(176,301,o),
(179,304,o),
(182,307,cs),
(188,313,o),
(194,315,o),
(201,315,cs),
(269,315,ls),
(276,315,o),
(283,312,o),
(288,307,cs),
(291,304,o),
(294,301,o),
(297,298,c),
(415,349,l),
(400,375,o),
(376,401,o),
(359,415,cs),
(341,429,o),
(326,435,o),
(304,435,cs),
(166,435,ls),
(144,435,o),
(129,429,o),
(111,415,cs),
(94,401,o),
(78,385,o),
(65,369,cs),
(51,351,o),
(45,336,o),
(45,314,cs),
(45,116,ls),
(45,94,o),
(51,79,o),
(65,61,cs),
(78,45,o),
(94,29,o),
(111,15,cs),
(129,1,o),
(144,-5,o),
(166,-5,cs)
);
}
);
width = 445;
}
);
metricLeft = o;
unicode = 99;
},
{
glyphname = eth;
lastChange = "2025-12-28 18:06:25 +0000";
layers = (
{
layerId = m01;
shapes = (
{
alignment = -1;
ref = o;
},
{
closed = 1;
nodes = (
(195,654,l),
(264,589,o),
(341,510,o),
(352,496,cs),
(359,487,o),
(361,480,o),
(361,469,cs),
(361,279,l),
(415,279,l),
(415,474,ls),
(415,496,o),
(409,511,o),
(395,529,cs),
(382,545,o),
(310,620,o),
(229,695,c)
);
},
{
closed = 1;
nodes = (
(385,629,l),
(360,680,l),
(200,600,l),
(225,549,l)
);
}
);
width = 470;
},
{
layerId = m002;
shapes = (
{
alignment = -1;
ref = o;
},
{
closed = 1;
nodes = (
(145,634,l),
(219,571,o),
(251,545,o),
(297,496,cs),
(305,487,o),
(306,480,o),
(306,469,cs),
(306,249,l),
(425,249,l),
(425,484,ls),
(425,506,o),
(422,522,o),
(405,539,cs),
(342,602,o),
(286,651,o),
(209,715,c)
);
},
{
closed = 1;
nodes = (
(455,609,l),
(400,710,l),
(140,570,l),
(195,469,l)
);
}
);
width = 470;
}
);
metricLeft = o;
unicode = 240;
},
{
glyphname = f;
kernLeft = f;
kernRight = f;
lastChange = "2025-12-28 21:18:41 +0000";
layers = (
{
layerId = m01;
shapes = (
{
closed = 1;
nodes = (
(164,-5,l),
(164,475,ls),
(164,486,o),
(166,493,o),
(173,502,cs),
(184,516,o),
(196,528,o),
(211,539,cs),
(219,546,o),
(228,548,o),
(238,548,cs),
(329,548,l),
(329,600,l),
(231,600,ls),
(209,600,o),
(193,595,o),
(176,580,cs),
(160,566,o),
(144,551,o),
(130,534,cs),
(115,517,o),
(110,501,o),
(110,479,cs),
(110,-5,l)
);
},
{
closed = 1;
nodes = (
(308,378,l),
(308,430,l),
(40,430,l),
(40,378,l)
);
}
);
width = 349;
},
{
layerId = m002;
shapes = (
{
closed = 1;
nodes = (
(211,0,l),
(211,444,ls),
(211,452,o),
(214,458,o),
(219,463,cs),
(222,466,o),
(225,469,o),
(228,472,cs),
(234,478,o),
(240,480,o),
(247,480,cs),
(343,480,l),
(343,600,l),
(212,600,ls),
(190,600,o),
(175,594,o),
(157,580,cs),
(140,566,o),
(124,550,o),
(111,534,cs),
(97,516,o),
(91,501,o),
(91,479,cs),
(91,0,l)
);
},
{
closed = 1;
nodes = (
(338,310,l),
(338,430,l),
(20,430,l),
(20,310,l)
);
}
);
width = 363;
}
);
unicode = 102;
},
{
glyphname = jdotless;
lastChange = "2025-12-28 15:50:17 +0000";
layers = (
{
anchors = (
{
name = top;
pos = (102,430);
}
);
layerId = m01;
shapes = (
{
closed = 1;
nodes = (
(8,-200,ls),
(30,-200,o),
(46,-195,o),
(63,-180,cs),
(80,-166,o),
(95,-150,o),
(109,-134,cs),
(124,-117,o),
(129,-101,o),
(129,-79,cs),
(129,430,l),
(75,430,l),
(75,-74,ls),
(75,-85,o),
(73,-92,o),
(66,-101,cs),
(55,-116,o),
(43,-128,o),
(29,-139,cs),
(21,-146,o),
(12,-148,o),
(2,-148,cs),
(-83,-148,l),
(-83,-200,l)
);
}
);
width = 204;
},
{
anchors = (
{
name = top;
pos = (123,430);
}
);
layerId = m002;
shapes = (
{
closed = 1;
nodes = (
(64,-200,ls),
(86,-200,o),
(101,-194,o),
(119,-180,cs),
(136,-166,o),
(152,-150,o),
(165,-134,cs),
(179,-116,o),
(185,-101,o),
(185,-79,cs),
(185,430,l),
(65,430,l),
(65,-44,ls),
(65,-52,o),
(62,-58,o),
(57,-63,cs),
(54,-66,o),
(51,-69,o),
(48,-72,cs),
(43,-77,o),
(36,-80,o),
(29,-80,cs),
(-93,-80,l),
(-93,-200,l)
);
}
);
width = 245;
}
);
unicode = 567;
},
{
glyphname = k;
kernLeft = b;
kernRight = k;
lastChange = "2025-12-30 22:52:31 +0000";
layers = (
{
layerId = m01;
shapes = (
{
alignment = -1;
piece = {
Height = 385;
kink = 0;
};
pos = (156,0);
ref = _part.stem_down;
scale = (-1,1);
},
{
closed = 1;
nodes = (
(377,0,l),
(175,225,l),
(362,430,l),
(290,430,l),
(129,253,l),
(89,253,l),
(89,197,l),
(129,197,l),
(305,0,l)
);
}
);
width = 407;
},
{
layerId = m002;
shapes = (
{
alignment = -1;
piece = {
Height = 385;
kink = 0;
};
pos = (222,0);
ref = _part.stem_down;
scale = (-1,1);
},
{
closed = 1;
nodes = (
(493,0,l),
(291,225,l),
(478,430,l),
(323,430,l),
(195,285,l),
(155,285,l),
(155,165,l),
(195,165,l),
(338,0,l)
);
}
);
width = 503;
}
);
metricLeft = h;
unicode = 107;
},
{
glyphname = oslash;
lastChange = "2025-12-28 16:42:37 +0000";
layers = (
{
layerId = m01;
shapes = (
{
ref = o;
},
{
closed = 1;
nodes = (
(158,-85,l),
(369,515,l),
(312,515,l),
(101,-85,l)
);
}
);
width = 470;
},
{
layerId = m002;
shapes = (
{
ref = o;
},
{
closed = 1;
nodes = (
(173,-85,l),
(384,515,l),
(297,515,l),
(86,-85,l)
);
}
);
width = 470;
}
);
unicode = 248;
},
{
glyphname = r;
kernLeft = r;
kernRight = r;
lastChange = "2025-12-30 22:55:53 +0000";
layers = (
{
anchors = (
{
name = connect;
pos = (258,0);
},
{
name = top;
pos = (212,430);
}
);
layerId = m01;
shapes = (
{
alignment = -1;
locked = 1;
piece = {
kink = 100;
};
pos = (21,0);
ref = _part.stem_up;
},
{
closed = 1;
nodes = (
(274,383,ls),
(284,383,o),
(292,380,o),
(301,374,cs),
(313,366,o),
(321,358,o),
(329,347,c),
(372,379,l),
(360,394,o),
(350,404,o),
(336,415,cs),
(319,429,o),
(303,435,o),
(281,435,cs),
(219,435,ls),
(174,435,o),
(163,431,o),
(138,409,cs),
(121,394,o),
(106,381,o),
(92,363,c),
(122,316,l),
(122,325,o),
(127,346,o),
(162,374,cs),
(171,381,o),
(179,383,o),
(189,383,cs)
);
}
);
width = 382;
},
{
anchors = (
{
name = connect;
pos = (324,0);
},
{
name = top;
pos = (242,430);
}
);
layerId = m002;
shapes = (
{
alignment = -1;
locked = 1;
piece = {
kink = 100;
};
pos = (21,0);
ref = _part.stem_up;
},
{
closed = 1;
nodes = (
(292,316,ls),
(299,316,o),
(305,314,o),
(311,308,cs),
(314,305,o),
(317,302,o),
(320,299,c),
(428,379,l),
(416,394,o),
(406,404,o),
(392,415,cs),
(375,429,o),
(359,435,o),
(337,435,cs),
(285,435,ls),
(240,435,o),
(229,431,o),
(204,409,cs),
(187,394,o),
(172,381,o),
(158,363,c),
(188,279,l),
(188,288,o),
(192,297,o),
(200,305,cs),
(209,314,o),
(215,316,o),
(225,316,cs)
);
}
);
width = 433;
}
);
metricLeft = "=60";
unicode = 114;
},
{
glyphname = s;
kernLeft = s;
kernRight = s;
lastChange = "2025-12-30 22:56:19 +0000";
layers = (
{
anchors = (
{
name = bottom;
pos = (235,0);
},
{
name = top;
pos = (235,430);
}
);
layerId = m01;
shapes = (
{
closed = 1;
nodes = (
(293,0,ls),
(315,0,o),
(331,5,o),
(348,20,cs),
(364,34,o),
(380,49,o),
(394,66,cs),
(409,83,o),
(414,99,o),
(414,121,cs),
(414,138,ls),
(414,194,o),
(385,226,o),
(330,233,cs),
(147,256,ls),
(126,259,o),
(114,271,o),
(114,293,cs),
(114,305,ls),
(114,316,o),
(116,323,o),
(123,332,cs),
(134,346,o),
(146,358,o),
(161,369,cs),
(169,376,o),
(178,378,o),
(188,378,cs),
(292,378,ls),
(302,378,o),
(311,376,o),
(319,369,cs),
(330,361,o),
(344,347,o),
(357,332,c),
(414,349,l),
(393,373,o),
(370,396,o),
(353,410,cs),
(336,425,o),
(320,430,o),
(298,430,cs),
(181,430,ls),
(159,430,o),
(143,425,o),
(126,410,cs),
(110,396,o),
(94,381,o),
(80,364,cs),
(65,347,o),
(60,331,o),
(60,309,cs),
(60,298,ls),
(60,242,o),
(89,210,o),
(144,203,cs),
(327,180,ls),
(348,177,o),
(360,165,o),
(360,143,cs),
(360,125,ls),
(360,114,o),
(358,107,o),
(351,98,cs),
(340,84,o),
(328,72,o),
(313,61,cs),
(305,54,o),
(296,52,o),
(286,52,cs),
(177,52,ls),
(167,52,o),
(158,54,o),
(150,61,cs),
(139,69,o),
(125,83,o),
(112,98,c),
(55,81,l),
(76,57,o),
(99,34,o),
(116,20,cs),
(133,5,o),
(149,0,o),
(171,0,cs)
);
}
);
width = 469;
},
{
anchors = (
{
name = bottom;
pos = (222,0);
},
{
name = top;
pos = (222,430);
}
);
layerId = m002;
shapes = (
{
closed = 1;
nodes = (
(288,0,ls),
(310,0,o),
(326,5,o),
(343,20,cs),
(359,34,o),
(375,49,o),
(389,66,cs),
(404,83,o),
(409,99,o),
(409,121,cs),
(409,151,ls),
(409,228,o),
(368,271,o),
(292,274,cs),
(177,278,ls),
(170,278,o),
(165,283,o),
(165,291,cs),
(165,296,l),
(165,299,o),
(166,301,o),
(168,303,cs),
(169,304,o),
(171,306,o),
(172,307,cs),
(174,309,o),
(177,310,o),
(179,310,cs),
(279,310,ls),
(292,310,o),
(302,310,o),
(315,307,cs),
(320,306,o),
(324,304,o),
(326,302,c),
(414,349,l),
(393,373,o),
(370,396,o),
(353,410,cs),
(336,425,o),
(320,430,o),
(298,430,cs),
(166,430,ls),
(144,430,o),
(128,425,o),
(111,410,cs),
(95,396,o),
(79,381,o),
(65,364,cs),
(50,347,o),
(45,331,o),
(45,309,cs),
(45,279,ls),
(45,202,o),
(86,159,o),
(162,156,cs),
(277,152,ls),
(284,152,o),
(289,147,o),
(289,139,cs),
(289,134,ls),
(289,131,o),
(288,129,o),
(286,127,cs),
(285,126,o),
(283,124,o),
(282,123,cs),
(280,121,o),
(277,120,o),
(275,120,cs),
(155,120,ls),
(142,120,o),
(132,120,o),
(119,123,cs),
(114,124,o),
(111,126,o),
(108,128,c),
(30,81,l),
(51,57,o),
(74,34,o),
(91,20,cs),
(108,5,o),
(124,0,o),
(146,0,cs)
);
}
);
width = 444;
}
);
unicode = 115;
},
{
glyphname = germandbls;
lastChange = "2025-12-30 22:53:10 +0000";
layers = (
{
layerId = m01;
shapes = (
{
closed = 1;
nodes = (
(119,0,l),
(119,474,ls),
(119,485,o),
(121,492,o),
(128,501,cs),
(139,515,o),
(151,527,o),
(165,539,cs),
(173,546,o),
(182,548,o),
(192,548,cs),
(238,548,ls),
(248,548,o),
(257,546,o),
(265,539,cs),
(279,527,o),
(291,515,o),
(302,501,cs),
(309,492,o),
(311,485,o),
(311,474,cs),
(311,416,ls),
(311,405,o),
(309,398,o),
(302,389,cs),
(291,375,o),
(279,363,o),
(265,351,cs),
(257,344,o),
(248,342,o),
(238,342,c),
(299,310,l),
(316,324,o),
(332,340,o),
(345,356,cs),
(359,374,o),
(365,389,o),
(365,411,cs),
(365,479,ls),
(365,501,o),
(359,516,o),
(345,534,cs),
(332,550,o),
(316,566,o),
(299,580,cs),
(281,594,o),
(266,600,o),
(244,600,cs),
(186,600,ls),
(164,600,o),
(149,594,o),
(131,580,cs),
(114,566,o),
(98,550,o),
(85,534,cs),
(71,516,o),
(65,501,o),
(65,479,cs),
(65,0,l)
);
},
{
closed = 1;
nodes = (
(278,290,ls),
(288,290,o),
(297,288,o),
(305,281,cs),
(319,269,o),
(331,257,o),
(342,243,cs),
(349,234,o),
(351,227,o),
(351,216,cs),
(351,126,ls),
(351,115,o),
(349,108,o),
(342,99,cs),
(331,85,o),
(319,73,o),
(305,61,cs),
(297,54,o),
(288,52,o),
(278,52,cs),
(185,52,l),
(185,0,l),
(284,0,ls),
(306,0,o),
(321,6,o),
(339,20,cs),
(356,34,o),
(372,50,o),
(385,66,cs),
(399,84,o),
(405,99,o),
(405,121,cs),
(405,221,ls),
(405,243,o),
(399,258,o),
(385,276,cs),
(372,292,o),
(356,308,o),
(339,322,cs),
(321,336,o),
(306,342,o),
(284,342,cs),
(185,342,l),
(185,290,l)
);
}
);
width = 465;
},
{
layerId = m002;
shapes = (
{
closed = 1;
nodes = (
(170,0,l),
(170,444,ls),
(170,452,o),
(172,457,o),
(178,463,cs),
(181,466,o),
(184,469,o),
(187,472,cs),
(193,478,o),
(199,480,o),
(206,480,cs),
(294,480,ls),
(301,480,o),
(308,477,o),
(313,472,cs),
(316,469,o),
(319,466,o),
(322,463,cs),
(327,458,o),
(330,452,o),
(330,444,cs),
(330,401,ls),
(330,393,o),
(327,387,o),
(322,382,cs),
(319,379,o),
(316,376,o),
(313,373,cs),
(308,368,o),
(301,365,o),
(294,365,c),
(384,265,l),
(401,279,o),
(417,295,o),
(430,311,cs),
(444,329,o),
(450,344,o),
(450,366,cs),
(450,479,ls),
(450,501,o),
(444,516,o),
(430,534,cs),
(417,550,o),
(401,566,o),
(384,580,cs),
(366,594,o),
(351,600,o),
(329,600,cs),
(171,600,ls),
(149,600,o),
(134,594,o),
(116,580,cs),
(99,566,o),
(83,550,o),
(70,534,cs),
(56,516,o),
(50,501,o),
(50,479,cs),
(50,0,l)
);
},
{
closed = 1;
nodes = (
(324,245,ls),
(331,245,o),
(338,242,o),
(343,237,cs),
(346,234,o),
(349,231,o),
(352,228,cs),
(357,223,o),
(360,217,o),
(360,209,cs),
(360,156,ls),
(360,148,o),
(357,142,o),
(352,137,cs),
(349,134,o),
(346,131,o),
(343,128,cs),
(338,123,o),
(331,120,o),
(324,120,cs),
(229,120,l),
(229,0,l),
(359,0,ls),
(381,0,o),
(396,6,o),
(414,20,cs),
(431,34,o),
(447,50,o),
(460,66,cs),
(474,84,o),
(480,99,o),
(480,121,cs),
(480,244,ls),
(480,266,o),
(474,281,o),
(460,299,cs),
(447,315,o),
(431,331,o),
(414,345,cs),
(396,359,o),
(381,365,o),
(359,365,cs),
(229,365,l),
(229,245,l)
);
}
);
width = 530;
}
);
metricLeft = D;
metricRight = B;
unicode = 223;
},
{
glyphname = t;
kernLeft = t;
kernRight = t;
lastChange = "2025-12-27 21:43:15 +0000";
layers = (
{
layerId = m01;
shapes = (
{
closed = 1;
nodes = (
(323,-5,l),
(323,47,l),
(232,47,ls),
(222,47,o),
(213,49,o),
(205,56,cs),
(190,67,o),
(178,79,o),
(167,93,cs),
(160,102,o),
(158,109,o),
(158,120,cs),
(158,600,l),
(104,600,l),
(104,116,ls),
(104,94,o),
(109,78,o),
(124,61,cs),
(138,44,o),
(154,29,o),
(170,15,cs),
(187,0,o),
(203,-5,o),
(225,-5,cs)
);
},
{
closed = 1;
nodes = (
(322,378,l),
(322,430,l),
(34,430,l),
(34,378,l)
);
}
);
width = 373;
},
{
layerId = m002;
shapes = (
{
closed = 1;
nodes = (
(357,-5,l),
(357,115,l),
(261,115,ls),
(254,115,o),
(248,117,o),
(242,123,cs),
(239,126,o),
(236,129,o),
(233,132,cs),
(228,137,o),
(225,143,o),
(225,151,cs),
(225,600,l),
(105,600,l),
(105,116,ls),
(105,94,o),
(111,79,o),
(125,61,cs),
(138,45,o),
(154,29,o),
(171,15,cs),
(189,1,o),
(204,-5,o),
(226,-5,cs)
);
},
{
closed = 1;
nodes = (
(342,310,l),
(342,430,l),
(34,430,l),
(34,310,l)
);
}
);
width = 407;
}
);
unicode = 116;
},
{
glyphname = v;
kernLeft = v;
kernRight = v;
lastChange = "2025-12-28 21:19:36 +0000";
layers = (
{
layerId = m01;
shapes = (
{
closed = 1;
nodes = (
(250,0,l),
(400,430,l),
(343,430,l),
(215,59,l),
(205,59,l),
(77,430,l),
(20,430,l),
(170,0,l)
);
}
);
width = 420;
},
{
layerId = m002;
shapes = (
{
closed = 1;
nodes = (
(340,0,l),
(490,430,l),
(363,430,l),
(260,136,l),
(250,136,l),
(147,430,l),
(20,430,l),
(170,0,l)
);
}
);
width = 510;
}
);
unicode = 118;
},
{
glyphname = w;
kernLeft = w;
kernRight = w;
lastChange = "2025-12-30 22:32:55 +0000";
layers = (
{
anchors = (
{
name = top;
pos = (323,430);
}
);
layerId = m01;
shapes = (
{
closed = 1;
nodes = (
(220,0,l),
(318,365,l),
(416,0,l),
(496,0,l),
(626,430,l),
(570,430,l),
(461,66,l),
(451,66,l),
(353,430,l),
(283,430,l),
(185,66,l),
(175,66,l),
(76,430,l),
(20,430,l),
(140,0,l)
);
}
);
width = 646;
},
{
anchors = (
{
name = top;
pos = (398,430);
}
);
layerId = m002;
shapes = (
{
closed = 1;
nodes = (
(303,0,l),
(373,282,l),
(443,0,l),
(614,0,l),
(736,430,l),
(613,430,l),
(531,146,l),
(521,146,l),
(453,430,l),
(293,430,l),
(225,146,l),
(215,146,l),
(143,430,l),
(20,430,l),
(132,0,l)
);
}
);
width = 756;
}
);
metricLeft = "=20";
metricRight = "=20";
unicode = 119;
},
{
glyphname = x;
kernLeft = x;
kernRight = x;
lastChange = "2025-12-28 21:19:52 +0000";
layers = (
{
layerId = m01;
shapes = (
{
closed = 1;
nodes = (
(102,0,l),
(213,174,l),
(324,0,l),
(386,0,l),
(247,215,l),
(386,430,l),
(324,430,l),
(213,255,l),
(102,430,l),
(40,430,l),
(179,215,l),
(40,0,l)
);
}
);
width = 426;
},
{
layerId = m002;
shapes = (
{
closed = 1;
nodes = (
(182,0,l),
(253,109,l),
(324,0,l),
(466,0,l),
(327,215,l),
(466,430,l),
(324,430,l),
(253,320,l),
(182,430,l),
(40,430,l),
(179,215,l),
(40,0,l)
);
}
);
width = 506;
}
);
metricRight = "=|x";
unicode = 120;
},
{
glyphname = y;
kernLeft = y;
kernRight = y;
lastChange = "2025-12-28 21:22:07 +0000";
layers = (
{
anchors = (
{
name = top;
pos = (238,430);
}
);
layerId = m01;
shapes = (
{
closed = 1;
nodes = (
(206,-200,l),
(436,430,l),
(379,430,l),
(149,-200,l)
);
},
{
closed = 1;
nodes = (
(245,0,l),
(264,52,l),
(235,52,l),
(97,430,l),
(40,430,l),
(197,0,l)
);
}
);
width = 476;
},
{
anchors = (
{
name = top;
pos = (273,430);
}
);
layerId = m002;
shapes = (
{
closed = 1;
nodes = (
(276,-200,l),
(506,430,l),
(379,430,l),
(149,-200,l)
);
},
{
closed = 1;
nodes = (
(325,0,l),
(334,52,l),
(305,52,l),
(167,430,l),
(40,430,l),
(197,0,l)
);
}
);
width = 546;
}
);
unicode = 121;
},
{
glyphname = z;
kernLeft = z;
kernRight = z;
lastChange = "2025-12-30 22:57:39 +0000";
layers = (
{
anchors = (
{
name = bottom;
pos = (200,0);
},
{
name = top;
pos = (200,430);
}
);
layerId = m01;
shapes = (
{
closed = 1;
nodes = (
(360,0,l),
(360,52,l),
(103,52,l),
(360,373,l),
(360,430,l),
(43,430,l),
(43,378,l),
(297,378,l),
(40,57,l),
(40,0,l)
);
}
);
width = 400;
},
{
anchors = (
{
name = bottom;
pos = (210,0);
},
{
name = top;
pos = (210,430);
}
);
layerId = m002;
shapes = (
{
closed = 1;
nodes = (
(380,0,l),
(380,120,l),
(196,120,l),
(380,295,l),
(380,430,l),
(43,430,l),
(43,310,l),
(224,310,l),
(40,135,l),
(40,0,l)
);
}
);
width = 420;
}
);
unicode = 122;
},
{
glyphname = Delta;
kernLeft = A;
kernRight = A;
lastChange = "2025-12-28 21:14:01 +0000";
layers = (
{
layerId = m01;
shapes = (
{
closed = 1;
nodes = (
(527,0,l),
(306,600,l),
(236,600,l),
(15,0,l)
);
},
{
closed = 1;
nodes = (
(271,527,l),
(444,56,l),
(98,56,l)
);
}
);
width = 542;
},
{
layerId = m002;
shapes = (
{
closed = 1;
nodes = (
(597,0,l),
(376,600,l),
(236,600,l),
(15,0,l)
);
},
{
closed = 1;
nodes = (
(306,447,l),
(427,120,l),
(185,120,l)
);
}
);
width = 612;
}
);
metricLeft = A;
metricRight = A;
unicode = 916;
},
{
glyphname = zero;
lastChange = "2025-12-27 22:07:08 +0000";
layers = (
{
layerId = m01;
shapes = (
{
closed = 1;
nodes = (
(312,-5,ls),
(337,-5,o),
(358,3,o),
(378,19,cs),
(396,33,o),
(412,49,o),
(426,67,cs),
(442,87,o),
(450,107,o),
(450,133,cs),
(450,467,ls),
(450,493,o),
(442,513,o),
(426,533,cs),
(412,551,o),
(396,567,o),
(378,581,cs),
(358,597,o),
(337,605,o),
(312,605,cs),
(188,605,ls),
(163,605,o),
(143,596,o),
(123,580,cs),
(105,566,o),
(89,550,o),
(75,532,cs),
(59,512,o),
(50,493,o),
(50,467,cs),
(50,133,ls),
(50,107,o),
(58,87,o),
(74,67,cs),
(88,49,o),
(104,33,o),
(122,19,cs),
(142,3,o),
(163,-5,o),
(188,-5,cs)
);
},
{
closed = 1;
nodes = (
(179,51,o),
(169,54,o),
(158,64,cs),
(145,76,o),
(133,88,o),
(121,101,cs),
(111,112,o),
(108,122,o),
(108,136,cs),
(108,464,ls),
(108,478,o),
(112,488,o),
(121,499,cs),
(133,512,o),
(145,524,o),
(158,536,cs),
(169,546,o),
(179,549,o),
(193,549,cs),
(307,549,ls),
(321,549,o),
(331,546,o),
(342,536,cs),
(355,524,o),
(367,512,o),
(379,499,cs),
(389,488,o),
(392,478,o),
(392,464,cs),
(392,136,ls),
(392,122,o),
(388,112,o),
(379,101,cs),
(367,88,o),
(355,76,o),
(342,64,cs),
(331,54,o),
(321,51,o),
(307,51,cs),
(193,51,ls)
);
},
{
closed = 1;
nodes = (
(410,419,l),
(410,501,l),
(90,181,l),
(90,99,l)
);
}
);
width = 500;
},
{
layerId = m002;
shapes = (
{
closed = 1;
nodes = (
(312,-5,ls),
(337,-5,o),
(358,3,o),
(378,19,cs),
(396,33,o),
(412,49,o),
(426,67,cs),
(442,87,o),
(450,107,o),
(450,133,cs),
(450,467,ls),
(450,493,o),
(442,513,o),
(426,533,cs),
(412,551,o),
(396,567,o),
(378,581,cs),
(358,597,o),
(337,605,o),
(312,605,cs),
(188,605,ls),
(163,605,o),
(143,596,o),
(123,580,cs),
(105,566,o),
(89,550,o),
(75,532,cs),
(59,512,o),
(50,493,o),
(50,467,cs),
(50,133,ls),
(50,107,o),
(58,87,o),
(74,67,cs),
(88,49,o),
(104,33,o),
(122,19,cs),
(142,3,o),
(163,-5,o),
(188,-5,cs)
);
},
{
closed = 1;
nodes = (
(199,115,o),
(193,117,o),
(187,123,cs),
(184,126,o),
(181,129,o),
(178,132,cs),
(173,137,o),
(170,143,o),
(170,151,cs),
(170,449,ls),
(170,457,o),
(172,462,o),
(178,468,cs),
(181,471,o),
(184,474,o),
(187,477,cs),
(193,483,o),
(199,485,o),
(206,485,cs),
(294,485,ls),
(301,485,o),
(308,482,o),
(313,477,cs),
(316,474,o),
(319,471,o),
(322,468,cs),
(327,463,o),
(330,457,o),
(330,449,cs),
(330,151,ls),
(330,143,o),
(327,137,o),
(322,132,cs),
(319,129,o),
(316,126,o),
(313,123,cs),
(308,118,o),
(301,115,o),
(294,115,cs),
(206,115,ls)
);
},
{
closed = 1;
nodes = (
(370,349,l),
(370,491,l),
(130,251,l),
(130,109,l)
);
}
);
width = 500;
}
);
unicode = 48;
},
{
glyphname = one;
lastChange = "2025-12-27 22:40:51 +0000";
layers = (
{
layerId = m01;
shapes = (
{
closed = 1;
nodes = (
(300,20,l),
(300,600,l),
(122,600,l),
(122,544,l),
(242,544,l),
(242,20,l)
);
},
{
closed = 1;
nodes = (
(445,0,l),
(445,56,l),
(55,56,l),
(55,0,l)
);
}
);
width = 500;
},
{
layerId = m002;
shapes = (
{
closed = 1;
nodes = (
(332,20,l),
(332,600,l),
(102,600,l),
(102,480,l),
(212,480,l),
(212,20,l)
);
},
{
closed = 1;
nodes = (
(445,0,l),
(445,120,l),
(55,120,l),
(55,0,l)
);
}
);
width = 500;
}
);
unicode = 49;
},
{
glyphname = two;
lastChange = "2025-12-28 21:20:42 +0000";
layers = (
{
layerId = m01;
shapes = (
{
closed = 1;
nodes = (
(442,0,l),
(442,56,l),
(117,56,l),
(117,123,ls),
(117,144,o),
(125,158,o),
(144,170,cs),
(378,316,ls),
(420,342,o),
(438,375,o),
(438,424,cs),
(438,467,ls),
(438,493,o),
(430,513,o),
(414,533,cs),
(400,551,o),
(384,567,o),
(366,581,cs),
(346,597,o),
(325,605,o),
(300,605,cs),
(166,605,ls),
(141,605,o),
(121,596,o),
(101,580,cs),
(83,566,o),
(67,550,o),
(53,532,c),
(99,499,l),
(111,512,o),
(123,524,o),
(136,536,cs),
(147,546,o),
(157,549,o),
(171,549,cs),
(295,549,ls),
(309,549,o),
(319,546,o),
(330,536,cs),
(343,524,o),
(355,512,o),
(367,499,cs),
(377,488,o),
(380,478,o),
(380,464,cs),
(380,416,ls),
(380,395,o),
(372,381,o),
(353,369,cs),
(119,223,ls),
(77,197,o),
(59,164,o),
(59,115,cs),
(59,0,l)
);
}
);
width = 500;
},
{
layerId = m002;
shapes = (
{
closed = 1;
nodes = (
(442,0,l),
(442,120,l),
(179,120,l),
(179,163,ls),
(179,179,o),
(185,190,o),
(201,198,cs),
(362,276,ls),
(422,305,o),
(450,349,o),
(450,417,cs),
(450,467,ls),
(450,493,o),
(442,513,o),
(426,533,cs),
(412,551,o),
(396,567,o),
(378,581,cs),
(358,597,o),
(337,605,o),
(312,605,cs),
(148,605,ls),
(123,605,o),
(103,596,o),
(83,580,cs),
(65,566,o),
(39,531,o),
(25,502,c),
(118,458,l),
(121,461,o),
(134,474,o),
(137,477,cs),
(143,483,o),
(149,485,o),
(156,485,cs),
(294,485,ls),
(301,485,o),
(308,482,o),
(313,477,cs),
(316,474,o),
(319,471,o),
(322,468,cs),
(327,463,o),
(330,457,o),
(330,449,cs),
(330,416,ls),
(330,400,o),
(324,389,o),
(308,381,cs),
(147,303,ls),
(87,274,o),
(59,230,o),
(59,162,cs),
(59,0,l)
);
}
);
width = 500;
}
);
unicode = 50;
},
{
glyphname = three;
lastChange = "2025-12-28 21:20:49 +0000";
layers = (
{
layerId = m01;
shapes = (
{
closed = 1;
nodes = (
(355,272,l),
(355,328,l),
(209,328,l),
(209,272,l)
);
},
{
alignment = -1;
locked = 1;
pos = (-20,0);
ref = _part.3_bowl;
},
{
alignment = -1;
locked = 1;
pos = (-20,600);
ref = _part.3_bowl;
scale = (1,-1);
}
);
width = 500;
},
{
layerId = m002;
shapes = (
{
closed = 1;
nodes = (
(355,250,l),
(355,350,l),
(209,350,l),
(209,250,l)
);
},
{
alignment = -1;
pos = (-20,0);
ref = _part.3_bowl;
},
{
alignment = -1;
locked = 1;
pos = (-20,600);
ref = _part.3_bowl;
scale = (1,-1);
}
);
width = 500;
}
);
unicode = 51;
},
{
glyphname = four;
kernLeft = four;
kernRight = four;
lastChange = "2025-12-28 21:23:14 +0000";
layers = (
{
layerId = m01;
shapes = (
{
closed = 1;
nodes = (
(460,170,l),
(460,226,l),
(102,226,l),
(330,600,l),
(262,600,l),
(40,236,l),
(40,170,l)
);
},
{
closed = 1;
nodes = (
(410,0,l),
(410,430,l),
(352,430,l),
(352,0,l)
);
}
);
width = 500;
},
{
layerId = m002;
shapes = (
{
closed = 1;
nodes = (
(465,116,l),
(465,236,l),
(164,236,l),
(306,600,l),
(177,600,l),
(35,236,l),
(35,116,l)
);
},
{
closed = 1;
nodes = (
(427,0,l),
(427,370,l),
(307,370,l),
(307,0,l)
);
}
);
width = 500;
}
);
unicode = 52;
},
{
glyphname = five;
lastChange = "2025-12-27 22:21:25 +0000";
layers = (
{
layerId = m01;
shapes = (
{
closed = 1;
nodes = (
(312,-5,ls),
(337,-5,o),
(358,3,o),
(378,19,cs),
(396,33,o),
(412,49,o),
(426,67,cs),
(442,87,o),
(450,107,o),
(450,133,cs),
(450,212,ls),
(450,238,o),
(442,258,o),
(426,278,cs),
(412,296,o),
(396,312,o),
(378,326,cs),
(358,342,o),
(337,350,o),
(312,350,cs),
(124,350,l),
(124,544,l),
(419,544,l),
(419,600,l),
(66,600,l),
(66,294,l),
(307,294,ls),
(321,294,o),
(331,291,o),
(342,281,cs),
(379,244,ls),
(389,233,o),
(392,223,o),
(392,209,cs),
(392,136,ls),
(392,122,o),
(388,112,o),
(379,101,c),
(342,64,ls),
(331,54,o),
(321,51,o),
(307,51,cs),
(178,51,ls),
(164,51,o),
(155,54,o),
(143,64,cs),
(124,80,o),
(112,93,o),
(96,112,c),
(48,78,l),
(62,60,o),
(89,33,o),
(107,19,cs),
(127,3,o),
(148,-5,o),
(173,-5,cs)
);
}
);
width = 500;
},
{
layerId = m002;
shapes = (
{
closed = 1;
nodes = (
(317,-5,ls),
(342,-5,o),
(363,3,o),
(383,19,cs),
(401,33,o),
(417,49,o),
(431,67,cs),
(447,87,o),
(455,107,o),
(455,133,cs),
(455,227,ls),
(455,253,o),
(447,273,o),
(431,293,cs),
(417,311,o),
(401,327,o),
(383,341,cs),
(363,357,o),
(342,365,o),
(317,365,cs),
(191,365,l),
(191,480,l),
(424,480,l),
(424,600,l),
(71,600,l),
(71,245,l),
(299,245,ls),
(306,245,o),
(313,242,o),
(318,237,c),
(327,228,l),
(332,223,o),
(335,217,o),
(335,209,cs),
(335,151,ls),
(335,143,o),
(332,137,o),
(327,132,c),
(318,123,l),
(313,118,o),
(306,115,o),
(299,115,cs),
(181,115,ls),
(174,115,o),
(168,117,o),
(162,123,cs),
(159,126,o),
(147,138,o),
(144,142,c),
(39,77,l),
(53,59,o),
(79,33,o),
(97,19,cs),
(117,3,o),
(138,-5,o),
(163,-5,cs)
);
}
);
width = 500;
}
);
unicode = 53;
},
{
glyphname = six;
lastChange = "2025-12-27 22:24:15 +0000";
layers = (
{
layerId = m01;
shapes = (
{
closed = 1;
nodes = (
(312,-5,ls),
(337,-5,o),
(358,3,o),
(378,19,cs),
(396,33,o),
(412,49,o),
(426,67,cs),
(442,87,o),
(450,107,o),
(450,133,cs),
(450,217,ls),
(450,243,o),
(442,263,o),
(426,283,cs),
(412,301,o),
(396,317,o),
(378,331,cs),
(358,347,o),
(337,355,o),
(312,355,cs),
(198,355,ls),
(173,355,o),
(151,344,o),
(130,330,cs),
(112,318,o),
(89,300,o),
(75,282,c),
(108,214,l),
(108,228,o),
(112,238,o),
(121,249,cs),
(133,262,o),
(148,274,o),
(169,286,cs),
(182,294,o),
(193,299,o),
(207,299,cs),
(307,299,ls),
(321,299,o),
(331,296,o),
(342,286,cs),
(379,249,ls),
(389,238,o),
(392,228,o),
(392,214,cs),
(392,136,ls),
(392,122,o),
(388,112,o),
(379,101,c),
(342,64,ls),
(331,54,o),
(321,51,o),
(307,51,cs),
(193,51,ls),
(179,51,o),
(169,54,o),
(158,64,cs),
(121,101,ls),
(111,112,o),
(108,122,o),
(108,136,cs),
(108,464,ls),
(108,478,o),
(112,488,o),
(121,499,c),
(158,536,ls),
(169,546,o),
(179,549,o),
(193,549,cs),
(317,549,ls),
(331,549,o),
(340,546,o),
(352,536,cs),
(371,520,o),
(383,507,o),
(399,488,c),
(447,522,l),
(433,540,o),
(406,567,o),
(388,581,cs),
(368,597,o),
(347,605,o),
(322,605,cs),
(188,605,ls),
(163,605,o),
(142,597,o),
(122,581,cs),
(104,567,o),
(88,551,o),
(74,533,cs),
(58,513,o),
(50,493,o),
(50,467,cs),
(50,133,ls),
(50,107,o),
(58,87,o),
(74,67,cs),
(88,49,o),
(104,33,o),
(122,19,cs),
(142,3,o),
(163,-5,o),
(188,-5,cs)
);
}
);
width = 500;
},
{
layerId = m002;
shapes = (
{
closed = 1;
nodes = (
(312,-5,ls),
(337,-5,o),
(358,3,o),
(378,19,cs),
(396,33,o),
(412,49,o),
(426,67,cs),
(442,87,o),
(450,107,o),
(450,133,cs),
(450,247,ls),
(450,273,o),
(442,293,o),
(426,313,cs),
(412,331,o),
(396,347,o),
(378,361,cs),
(358,377,o),
(337,385,o),
(312,385,cs),
(248,385,ls),
(223,385,o),
(203,376,o),
(183,360,cs),
(165,346,o),
(159,340,o),
(145,322,c),
(170,229,l),
(170,237,o),
(176,243,o),
(185,248,cs),
(192,252,o),
(200,256,o),
(207,259,cs),
(217,264,o),
(229,265,o),
(236,265,cs),
(294,265,ls),
(301,265,o),
(308,262,o),
(313,257,cs),
(322,248,ls),
(327,243,o),
(330,237,o),
(330,229,cs),
(330,151,ls),
(330,143,o),
(327,137,o),
(322,132,cs),
(313,123,ls),
(308,118,o),
(301,115,o),
(294,115,cs),
(206,115,ls),
(199,115,o),
(193,117,o),
(187,123,cs),
(178,132,ls),
(173,137,o),
(170,143,o),
(170,151,cs),
(170,449,ls),
(170,457,o),
(172,462,o),
(178,468,cs),
(187,477,ls),
(193,483,o),
(199,485,o),
(206,485,cs),
(304,485,ls),
(311,485,o),
(318,482,o),
(323,477,cs),
(326,474,o),
(329,471,o),
(332,468,c),
(446,523,l),
(432,541,o),
(406,567,o),
(388,581,cs),
(368,597,o),
(347,605,o),
(322,605,cs),
(188,605,ls),
(163,605,o),
(143,596,o),
(123,580,cs),
(105,566,o),
(89,550,o),
(75,532,cs),
(59,512,o),
(50,493,o),
(50,467,cs),
(50,133,ls),
(50,107,o),
(58,87,o),
(74,67,cs),
(88,49,o),
(104,33,o),
(122,19,cs),
(142,3,o),
(163,-5,o),
(188,-5,cs)
);
}
);
width = 500;
}
);
unicode = 54;
},
{
glyphname = seven;
kernLeft = seven;
kernRight = seven;
lastChange = "2025-12-28 21:08:20 +0000";
layers = (
{
layerId = m01;
shapes = (
{
closed = 1;
nodes = (
(230,0,l),
(460,534,l),
(460,600,l),
(50,600,l),
(50,485,l),
(108,485,l),
(108,544,l),
(401,544,l),
(167,0,l)
);
}
);
width = 500;
},
{
layerId = m002;
shapes = (
{
closed = 1;
nodes = (
(240,0,l),
(470,470,l),
(470,600,l),
(40,600,l),
(40,451,l),
(150,451,l),
(150,480,l),
(341,480,l),
(107,0,l)
);
}
);
width = 500;
}
);
unicode = 55;
},
{
glyphname = eight;
lastChange = "2025-12-27 22:31:46 +0000";
layers = (
{
layerId = m01;
shapes = (
{
closed = 1;
nodes = (
(317,282,ls),
(342,282,o),
(363,290,o),
(383,306,cs),
(401,320,o),
(417,336,o),
(431,354,cs),
(447,374,o),
(455,394,o),
(455,420,cs),
(455,467,ls),
(455,493,o),
(447,513,o),
(431,533,cs),
(417,551,o),
(401,567,o),
(383,581,cs),
(363,597,o),
(342,605,o),
(317,605,cs),
(183,605,ls),
(158,605,o),
(138,596,o),
(118,580,cs),
(100,566,o),
(84,550,o),
(70,532,cs),
(54,512,o),
(45,493,o),
(45,467,cs),
(45,420,ls),
(45,394,o),
(53,374,o),
(69,354,cs),
(83,336,o),
(99,320,o),
(117,306,cs),
(137,290,o),
(158,282,o),
(183,282,cs)
);
},
{
closed = 1;
nodes = (
(174,338,o),
(164,341,o),
(153,351,cs),
(140,363,o),
(128,375,o),
(116,388,cs),
(106,399,o),
(103,409,o),
(103,423,cs),
(103,464,ls),
(103,478,o),
(107,488,o),
(116,499,cs),
(128,512,o),
(140,524,o),
(153,536,cs),
(164,546,o),
(174,549,o),
(188,549,cs),
(312,549,ls),
(326,549,o),
(336,546,o),
(347,536,cs),
(360,524,o),
(372,512,o),
(384,499,cs),
(394,488,o),
(397,478,o),
(397,464,cs),
(397,423,ls),
(397,409,o),
(393,399,o),
(384,388,cs),
(372,375,o),
(360,363,o),
(347,351,cs),
(336,341,o),
(326,338,o),
(312,338,cs),
(188,338,ls)
);
},
{
closed = 1;
nodes = (
(317,-5,ls),
(342,-5,o),
(363,3,o),
(383,19,cs),
(401,33,o),
(417,49,o),
(431,67,cs),
(447,87,o),
(455,107,o),
(455,133,cs),
(455,200,ls),
(455,226,o),
(447,246,o),
(431,266,cs),
(417,284,o),
(401,300,o),
(383,314,cs),
(363,330,o),
(342,338,o),
(317,338,cs),
(183,338,ls),
(158,338,o),
(138,329,o),
(118,313,cs),
(100,299,o),
(84,283,o),
(70,265,cs),
(54,245,o),
(45,226,o),
(45,200,cs),
(45,133,ls),
(45,107,o),
(53,87,o),
(69,67,cs),
(83,49,o),
(99,33,o),
(117,19,cs),
(137,3,o),
(158,-5,o),
(183,-5,cs)
);
},
{
closed = 1;
nodes = (
(174,51,o),
(164,54,o),
(153,64,cs),
(140,76,o),
(128,88,o),
(116,101,cs),
(106,112,o),
(103,122,o),
(103,136,cs),
(103,197,ls),
(103,211,o),
(107,221,o),
(116,232,cs),
(128,245,o),
(140,257,o),
(153,269,cs),
(164,279,o),
(174,282,o),
(188,282,cs),
(312,282,ls),
(326,282,o),
(336,279,o),
(347,269,cs),
(360,257,o),
(372,245,o),
(384,232,cs),
(394,221,o),
(397,211,o),
(397,197,cs),
(397,136,ls),
(397,122,o),
(393,112,o),
(384,101,cs),
(372,88,o),
(360,76,o),
(347,64,cs),
(336,54,o),
(326,51,o),
(312,51,cs),
(188,51,ls)
);
}
);
width = 500;
},
{
layerId = m002;
shapes = (
{
closed = 1;
nodes = (
(317,240,ls),
(342,240,o),
(363,248,o),
(383,264,cs),
(401,278,o),
(417,294,o),
(431,312,cs),
(447,332,o),
(455,352,o),
(455,378,cs),
(455,467,ls),
(455,493,o),
(447,513,o),
(431,533,cs),
(417,551,o),
(401,567,o),
(383,581,cs),
(363,597,o),
(342,605,o),
(317,605,cs),
(183,605,ls),
(158,605,o),
(138,596,o),
(118,580,cs),
(100,566,o),
(84,550,o),
(70,532,cs),
(54,512,o),
(45,493,o),
(45,467,cs),
(45,378,ls),
(45,352,o),
(53,332,o),
(69,312,cs),
(83,294,o),
(99,278,o),
(117,264,cs),
(137,248,o),
(158,240,o),
(183,240,cs)
);
},
{
closed = 1;
nodes = (
(194,360,o),
(188,362,o),
(182,368,cs),
(179,371,o),
(176,374,o),
(173,377,cs),
(168,382,o),
(165,388,o),
(165,396,cs),
(165,449,ls),
(165,457,o),
(167,462,o),
(173,468,cs),
(176,471,o),
(179,474,o),
(182,477,cs),
(188,483,o),
(194,485,o),
(201,485,cs),
(299,485,ls),
(306,485,o),
(313,482,o),
(318,477,cs),
(321,474,o),
(324,471,o),
(327,468,cs),
(332,463,o),
(335,457,o),
(335,449,cs),
(335,396,ls),
(335,388,o),
(332,382,o),
(327,377,cs),
(324,374,o),
(321,371,o),
(318,368,cs),
(313,363,o),
(306,360,o),
(299,360,cs),
(201,360,ls)
);
},
{
closed = 1;
nodes = (
(317,-5,ls),
(342,-5,o),
(363,3,o),
(383,19,cs),
(401,33,o),
(417,49,o),
(431,67,cs),
(447,87,o),
(455,107,o),
(455,133,cs),
(455,222,ls),
(455,248,o),
(447,268,o),
(431,288,cs),
(417,306,o),
(401,322,o),
(383,336,cs),
(363,352,o),
(342,360,o),
(317,360,cs),
(183,360,ls),
(158,360,o),
(138,351,o),
(118,335,cs),
(100,321,o),
(84,305,o),
(70,287,cs),
(54,267,o),
(45,248,o),
(45,222,cs),
(45,133,ls),
(45,107,o),
(53,87,o),
(69,67,cs),
(83,49,o),
(99,33,o),
(117,19,cs),
(137,3,o),
(158,-5,o),
(183,-5,cs)
);
},
{
closed = 1;
nodes = (
(194,115,o),
(188,117,o),
(182,123,cs),
(179,126,o),
(176,129,o),
(173,132,cs),
(168,137,o),
(165,143,o),
(165,151,cs),
(165,204,ls),
(165,212,o),
(167,217,o),
(173,223,cs),
(176,226,o),
(179,229,o),
(182,232,cs),
(188,238,o),
(194,240,o),
(201,240,cs),
(299,240,ls),
(306,240,o),
(313,237,o),
(318,232,cs),
(321,229,o),
(324,226,o),
(327,223,cs),
(332,218,o),
(335,212,o),
(335,204,cs),
(335,151,ls),
(335,143,o),
(332,137,o),
(327,132,cs),
(324,129,o),
(321,126,o),
(318,123,cs),
(313,118,o),
(306,115,o),
(299,115,cs),
(201,115,ls)
);
}
);
width = 500;
}
);
unicode = 56;
},
{
glyphname = exclam;
kernLeft = exclam;
kernRight = exclam;
lastChange = "2025-12-28 15:26:01 +0000";
layers = (
{
layerId = m01;
shapes = (
{
alignment = -1;
locked = 1;
pos = (12,0);
ref = _part.period;
},
{
closed = 1;
nodes = (
(141,190,l),
(141,600,l),
(83,600,l),
(83,190,l)
);
}
);
width = 224;
},
{
layerId = m002;
shapes = (
{
alignment = -1;
locked = 1;
pos = (30,0);
ref = _part.period;
},
{
closed = 1;
nodes = (
(210,190,l),
(210,600,l),
(90,600,l),
(90,190,l)
);
}
);
width = 300;
}
);
metricLeft = period;
metricRight = period;
unicode = 33;
},
{
glyphname = question;
kernLeft = question;
kernRight = question;
lastChange = "2025-12-28 15:26:01 +0000";
layers = (
{
layerId = m01;
shapes = (
{
closed = 1;
nodes = (
(231,196,l),
(231,241,ls),
(231,262,o),
(239,276,o),
(258,288,cs),
(335,336,ls),
(378,363,o),
(395,395,o),
(395,444,cs),
(395,467,ls),
(395,493,o),
(387,513,o),
(371,533,cs),
(357,551,o),
(341,567,o),
(323,581,cs),
(303,597,o),
(282,605,o),
(257,605,cs),
(133,605,ls),
(108,605,o),
(88,596,o),
(68,580,cs),
(50,566,o),
(34,550,o),
(20,532,c),
(66,499,l),
(78,512,o),
(90,524,o),
(103,536,cs),
(114,546,o),
(124,549,o),
(138,549,cs),
(252,549,ls),
(266,549,o),
(276,546,o),
(287,536,cs),
(300,524,o),
(312,512,o),
(324,499,cs),
(334,488,o),
(337,478,o),
(337,464,cs),
(337,436,ls),
(337,415,o),
(329,401,o),
(310,389,cs),
(233,341,ls),
(191,315,o),
(173,282,o),
(173,233,cs),
(173,196,l)
);
},
{
alignment = -1;
locked = 1;
pos = (103,0);
ref = _part.period;
}
);
width = 465;
},
{
layerId = m002;
shapes = (
{
closed = 1;
nodes = (
(279,170,l),
(279,213,ls),
(279,229,o),
(286,240,o),
(301,248,cs),
(352,276,ls),
(411,308,o),
(440,349,o),
(440,417,cs),
(440,467,ls),
(440,493,o),
(432,513,o),
(416,533,cs),
(402,551,o),
(386,567,o),
(368,581,cs),
(348,597,o),
(327,605,o),
(302,605,cs),
(148,605,ls),
(123,605,o),
(103,596,o),
(83,580,cs),
(65,566,o),
(39,541,o),
(25,512,c),
(128,468,l),
(131,471,o),
(134,474,o),
(137,477,cs),
(143,483,o),
(149,485,o),
(156,485,cs),
(284,485,ls),
(291,485,o),
(298,482,o),
(303,477,cs),
(306,474,o),
(309,471,o),
(312,468,cs),
(317,463,o),
(320,457,o),
(320,449,cs),
(320,416,ls),
(320,400,o),
(313,389,o),
(298,381,cs),
(247,353,ls),
(188,321,o),
(159,280,o),
(159,212,cs),
(159,170,l)
);
},
{
alignment = -1;
locked = 1;
pos = (103,0);
ref = _part.period;
}
);
width = 465;
}
);
unicode = 63;
},
{
glyphname = bullet;
lastChange = "2025-12-28 02:36:02 +0000";
layers = (
{
layerId = m01;
shapes = (
{
closed = 1;
nodes = (
(72,225,l),
(222,225,l),
(222,375,l),
(72,375,l)
);
}
);
width = 294;
},
{
layerId = m002;
shapes = (
{
closed = 1;
nodes = (
(90,225,l),
(240,225,l),
(240,375,l),
(90,375,l)
);
}
);
width = 330;
}
);
metricLeft = period;
metricRight = period;
unicode = 8226;
},
{
glyphname = numbersign;
lastChange = "2025-12-27 22:42:24 +0000";
layers = (
{
layerId = m01;
shapes = (
{
closed = 1;
nodes = (
(192,100,l),
(248,500,l),
(193,500,l),
(137,100,l)
);
},
{
closed = 1;
nodes = (
(338,100,l),
(394,500,l),
(339,500,l),
(283,100,l)
);
},
{
closed = 1;
nodes = (
(73,345,l),
(474,345,l),
(481,396,l),
(80,396,l)
);
},
{
closed = 1;
nodes = (
(50,204,l),
(451,204,l),
(458,255,l),
(57,255,l)
);
}
);
width = 531;
},
{
layerId = m002;
shapes = (
{
closed = 1;
nodes = (
(199,60,l),
(275,540,l),
(160,540,l),
(84,60,l)
);
},
{
closed = 1;
nodes = (
(385,60,l),
(461,540,l),
(346,540,l),
(270,60,l)
);
},
{
closed = 1;
nodes = (
(58,335,l),
(499,335,l),
(517,446,l),
(76,446,l)
);
},
{
closed = 1;
nodes = (
(30,145,l),
(471,145,l),
(489,256,l),
(48,256,l)
);
}
);
width = 547;
}
);
unicode = 35;
},
{
glyphname = slash;
kernLeft = slash;
kernRight = slash;
lastChange = "2025-12-28 20:06:47 +0000";
layers = (
{
layerId = m01;
shapes = (
{
closed = 1;
nodes = (
(91,0,l),
(303,600,l),
(242,600,l),
(30,0,l)
);
}
);
width = 333;
},
{
layerId = m002;
shapes = (
{
closed = 1;
nodes = (
(157,0,l),
(369,600,l),
(242,600,l),
(30,0,l)
);
}
);
width = 399;
}
);
unicode = 47;
},
{
glyphname = underscore;
kernLeft = underscore;
kernRight = underscore;
lastChange = "2025-12-27 22:42:45 +0000";
layers = (
{
layerId = m01;
shapes = (
{
closed = 1;
nodes = (
(40,-62,l),
(320,-62,l),
(320,-10,l),
(40,-10,l)
);
}
);
width = 360;
},
{
layerId = m002;
shapes = (
{
closed = 1;
nodes = (
(40,-130,l),
(320,-130,l),
(320,-10,l),
(40,-10,l)
);
}
);
width = 360;
}
);
metricLeft = hyphen;
metricRight = hyphen;
unicode = 95;
},
{
glyphname = parenleft;
kernLeft = parenleft;
kernRight = parenleft;
lastChange = "2025-12-28 02:03:35 +0000";
layers = (
{
layerId = m01;
shapes = (
{
closed = 1;
nodes = (
(65,33,ls),
(65,7,o),
(74,-12,o),
(90,-32,cs),
(131,-83,o),
(187,-140,o),
(238,-180,c),
(273,-136,l),
(229,-102,o),
(170,-43,o),
(136,1,cs),
(127,12,o),
(123,22,o),
(123,36,cs),
(123,564,ls),
(123,578,o),
(127,588,o),
(136,599,cs),
(170,643,o),
(229,702,o),
(273,736,c),
(238,780,l),
(187,740,o),
(131,683,o),
(90,632,cs),
(74,612,o),
(65,593,o),
(65,567,cs)
);
}
);
width = 308;
},
{
layerId = m002;
shapes = (
{
closed = 1;
nodes = (
(65,33,ls),
(65,7,o),
(74,-12,o),
(90,-32,cs),
(131,-83,o),
(187,-140,o),
(238,-180,c),
(315,-86,l),
(271,-52,o),
(232,-13,o),
(198,31,cs),
(189,42,o),
(185,52,o),
(185,66,cs),
(185,534,ls),
(185,548,o),
(189,558,o),
(198,569,cs),
(232,613,o),
(271,652,o),
(315,686,c),
(238,780,l),
(187,740,o),
(131,683,o),
(90,632,cs),
(74,612,o),
(65,593,o),
(65,567,cs)
);
}
);
width = 350;
}
);
unicode = 40;
},
{
glyphname = braceleft;
kernLeft = braceleft;
kernRight = parenleft;
lastChange = "2025-12-28 02:06:17 +0000";
layers = (
{
layerId = m01;
shapes = (
{
closed = 1;
nodes = (
(63,272,ls),
(78,272,o),
(89,268,o),
(100,257,cs),
(170,187,ls),
(181,176,o),
(185,166,o),
(185,150,cs),
(185,-37,ls),
(185,-63,o),
(194,-82,o),
(210,-102,cs),
(224,-120,o),
(240,-136,o),
(258,-150,cs),
(278,-166,o),
(298,-175,o),
(323,-175,cs),
(421,-175,l),
(421,-119,l),
(328,-119,ls),
(314,-119,o),
(304,-116,o),
(293,-106,cs),
(280,-94,o),
(268,-82,o),
(256,-69,cs),
(247,-58,o),
(243,-48,o),
(243,-34,cs),
(243,138,ls),
(243,179,o),
(231,208,o),
(202,237,cs),
(137,300,l),
(202,363,ls),
(231,392,o),
(243,421,o),
(243,462,cs),
(243,634,ls),
(243,648,o),
(247,658,o),
(256,669,cs),
(268,682,o),
(280,694,o),
(293,706,cs),
(304,716,o),
(314,719,o),
(328,719,cs),
(421,719,l),
(421,775,l),
(323,775,ls),
(298,775,o),
(278,766,o),
(258,750,cs),
(240,736,o),
(224,720,o),
(210,702,cs),
(194,682,o),
(185,663,o),
(185,637,cs),
(185,450,ls),
(185,434,o),
(181,424,o),
(170,413,cs),
(100,343,ls),
(89,332,o),
(78,328,o),
(63,328,cs),
(35,328,l),
(35,272,l)
);
}
);
width = 456;
},
{
layerId = m002;
shapes = (
{
closed = 1;
nodes = (
(82,240,ls),
(105,240,o),
(122,233,o),
(138,217,cs),
(192,163,ls),
(208,147,o),
(215,131,o),
(215,107,cs),
(215,-37,ls),
(215,-63,o),
(224,-82,o),
(240,-102,cs),
(254,-120,o),
(270,-136,o),
(288,-150,cs),
(308,-166,o),
(328,-175,o),
(353,-175,cs),
(486,-175,l),
(486,-55,l),
(371,-55,ls),
(364,-55,o),
(358,-53,o),
(352,-47,cs),
(349,-44,o),
(346,-41,o),
(343,-38,cs),
(337,-32,o),
(335,-27,o),
(335,-19,cs),
(335,101,ls),
(335,147,o),
(323,178,o),
(293,213,cs),
(217,300,l),
(293,387,ls),
(323,422,o),
(335,453,o),
(335,499,cs),
(335,619,ls),
(335,627,o),
(337,632,o),
(343,638,cs),
(346,641,o),
(349,644,o),
(352,647,cs),
(358,653,o),
(364,655,o),
(371,655,cs),
(486,655,l),
(486,775,l),
(353,775,ls),
(328,775,o),
(308,766,o),
(288,750,cs),
(270,736,o),
(254,720,o),
(240,702,cs),
(224,682,o),
(215,663,o),
(215,637,cs),
(215,493,ls),
(215,469,o),
(208,453,o),
(192,437,cs),
(138,383,ls),
(122,367,o),
(105,360,o),
(82,360,cs),
(35,360,l),
(35,240,l)
);
}
);
width = 521;
}
);
metricLeft = 35t;
metricRight = parenleft;
unicode = 123;
},
{
glyphname = bracketleft;
kernLeft = bracketleft;
kernRight = parenleft;
lastChange = "2025-12-27 22:43:08 +0000";
layers = (
{
layerId = m01;
shapes = (
{
closed = 1;
nodes = (
(335,714,l),
(335,770,l),
(85,770,l),
(85,714,l)
);
},
{
closed = 1;
nodes = (
(123,-170,l),
(123,770,l),
(65,770,l),
(65,-170,l)
);
},
{
closed = 1;
nodes = (
(335,-170,l),
(335,-114,l),
(85,-114,l),
(85,-170,l)
);
}
);
width = 370;
},
{
layerId = m002;
shapes = (
{
closed = 1;
nodes = (
(355,650,l),
(355,770,l),
(85,770,l),
(85,650,l)
);
},
{
closed = 1;
nodes = (
(185,-170,l),
(185,770,l),
(65,770,l),
(65,-170,l)
);
},
{
closed = 1;
nodes = (
(355,-170,l),
(355,-50,l),
(85,-50,l),
(85,-170,l)
);
}
);
width = 390;
}
);
metricLeft = parenleft;
metricRight = parenleft;
unicode = 91;
},
{
glyphname = at;
kernLeft = at;
kernRight = at;
lastChange = "2025-12-28 15:26:01 +0000";
layers = (
{
hints = (
{
origin = (0,32);
target = (0,33);
type = Stem;
}
);
layerId = m01;
shapes = (
{
closed = 1;
nodes = (
(476,400,l),
(476,437,ls),
(476,463,o),
(468,483,o),
(452,503,cs),
(438,521,o),
(426,533,o),
(408,547,cs),
(388,563,o),
(367,571,o),
(342,571,cs),
(194,571,ls),
(169,571,o),
(149,562,o),
(129,546,cs),
(111,532,o),
(99,520,o),
(85,502,cs),
(69,482,o),
(60,463,o),
(60,437,cs),
(60,32,ls),
(60,6,o),
(68,-14,o),
(84,-34,cs),
(98,-52,o),
(110,-64,o),
(128,-78,cs),
(148,-94,o),
(169,-102,o),
(194,-102,cs),
(286,-102,l),
(276,-50,l),
(199,-50,ls),
(185,-50,o),
(175,-47,o),
(164,-37,cs),
(151,-25,o),
(139,-13,o),
(127,0,cs),
(117,11,o),
(114,21,o),
(114,35,cs),
(114,434,ls),
(114,448,o),
(118,458,o),
(127,469,cs),
(139,482,o),
(151,494,o),
(164,506,cs),
(175,516,o),
(185,519,o),
(199,519,cs),
(337,519,ls),
(351,519,o),
(361,516,o),
(372,506,cs),
(385,494,o),
(397,482,o),
(409,469,cs),
(419,458,o),
(422,448,o),
(422,434,cs),
(422,400,l)
);
},
{
alignment = -1;
locked = 1;
piece = {
Height = 127.67616;
kink = 100;
};
pos = (523,57);
ref = _part.stem_down;
scale = (-1,1);
},
{
alignment = -1;
locked = 1;
piece = {
Height = 340.58551;
Width = 252.08549;
};
pos = (526,60);
ref = _part.lowercase_bowl;
scale = (-1,1);
}
);
width = 544;
},
{
hints = (
{
origin = (0,33);
target = (0,33);
type = Stem;
}
);
layerId = m002;
shapes = (
{
closed = 1;
nodes = (
(586,400,l),
(586,503,ls),
(586,529,o),
(578,549,o),
(562,569,cs),
(548,587,o),
(532,603,o),
(514,617,cs),
(494,633,o),
(473,641,o),
(448,641,cs),
(198,641,ls),
(173,641,o),
(153,632,o),
(133,616,cs),
(115,602,o),
(99,586,o),
(85,568,cs),
(69,548,o),
(60,529,o),
(60,503,cs),
(60,19,ls),
(60,-7,o),
(68,-27,o),
(84,-47,cs),
(98,-65,o),
(114,-81,o),
(132,-95,cs),
(152,-111,o),
(173,-119,o),
(198,-119,cs),
(383,-119,l),
(383,1,l),
(216,1,ls),
(209,1,o),
(203,3,o),
(197,9,cs),
(194,12,o),
(191,15,o),
(188,18,cs),
(183,23,o),
(180,29,o),
(180,37,cs),
(180,485,ls),
(180,493,o),
(182,498,o),
(188,504,cs),
(191,507,o),
(194,510,o),
(197,513,cs),
(203,519,o),
(209,521,o),
(216,521,cs),
(430,521,ls),
(437,521,o),
(444,518,o),
(449,513,cs),
(452,510,o),
(455,507,o),
(458,504,cs),
(463,499,o),
(466,493,o),
(466,485,cs),
(466,400,l)
);
},
{
alignment = -1;
locked = 1;
piece = {
Height = 127.67616;
kink = 100;
};
pos = (633,57);
ref = _part.stem_down;
scale = (-1,1);
},
{
alignment = -1;
locked = 1;
piece = {
Height = 368.52728;
Width = 276.06705;
};
pos = (570,78);
ref = _part.lowercase_bowl;
scale = (-1,1);
}
);
width = 654;
}
);
unicode = 64;
},
{
glyphname = ampersand;
lastChange = "2025-12-28 15:26:01 +0000";
layers = (
{
layerId = m01;
shapes = (
{
closed = 1;
nodes = (
(317,-5,ls),
(342,-5,o),
(363,3,o),
(383,19,cs),
(401,33,o),
(417,49,o),
(431,67,cs),
(447,87,o),
(455,107,o),
(455,133,cs),
(455,222,l),
(496,222,l),
(496,278,l),
(397,278,l),
(397,136,ls),
(397,122,o),
(393,112,o),
(384,101,c),
(373,88,o),
(360,75,o),
(347,64,cs),
(336,54,o),
(326,51,o),
(312,51,cs),
(208,51,ls),
(194,51,o),
(184,54,o),
(173,64,cs),
(160,75,o),
(147,88,o),
(136,101,cs),
(126,112,o),
(123,122,o),
(123,136,cs),
(123,187,ls),
(123,201,o),
(127,211,o),
(136,222,c),
(147,235,o),
(160,248,o),
(173,259,cs),
(184,269,o),
(194,272,o),
(208,272,c),
(138,303,l),
(120,289,o),
(104,273,o),
(90,255,cs),
(74,235,o),
(65,216,o),
(65,190,cs),
(65,133,ls),
(65,107,o),
(73,87,o),
(89,67,cs),
(103,49,o),
(119,33,o),
(137,19,cs),
(157,3,o),
(178,-5,o),
(203,-5,cs)
);
},
{
alignment = -1;
locked = 1;
piece = {
Height = 321;
Width = 335.50793;
};
pos = (471,0);
ref = _part.3_bowl;
scale = (-1,1);
},
{
closed = 1;
nodes = (
(279,272,l),
(279,328,l),
(135,328,l),
(135,272,l)
);
}
);
width = 556;
},
{
layerId = m002;
shapes = (
{
closed = 1;
nodes = (
(327,0,ls),
(352,0,o),
(373,8,o),
(393,24,cs),
(411,38,o),
(427,54,o),
(441,72,cs),
(457,92,o),
(465,112,o),
(465,138,cs),
(465,230,l),
(506,230,l),
(506,350,l),
(345,350,l),
(345,156,l),
(345,148,o),
(342,142,o),
(337,137,cs),
(334,134,o),
(331,131,o),
(328,128,cs),
(323,123,o),
(316,120,o),
(309,120,cs),
(211,120,ls),
(204,120,o),
(198,122,o),
(192,128,cs),
(189,131,o),
(186,134,o),
(183,137,cs),
(178,142,o),
(175,148,o),
(175,156,cs),
(175,214,ls),
(175,222,o),
(177,227,o),
(183,233,cs),
(186,236,o),
(189,239,o),
(192,242,cs),
(198,248,o),
(204,250,o),
(211,250,cs),
(138,350,l),
(120,336,o),
(94,310,o),
(80,292,cs),
(64,272,o),
(55,253,o),
(55,227,cs),
(55,138,ls),
(55,112,o),
(63,92,o),
(79,72,cs),
(93,54,o),
(109,38,o),
(127,24,cs),
(147,8,o),
(168,0,o),
(193,0,cs)
);
},
{
alignment = -1;
locked = 1;
piece = {
Width = 332.93283;
};
pos = (489,0);
ref = _part.3_bowl;
scale = (-1,1);
},
{
closed = 1;
nodes = (
(294,250,l),
(294,350,l),
(140,350,l),
(140,250,l)
);
}
);
width = 556;
}
);
unicode = 38;
},
{
glyphname = copyright;
kernLeft = copyright;
kernRight = copyright;
lastChange = "2025-12-28 15:26:01 +0000";
layers = (
{
hints = (
{
origin = (1,33);
target = (1,8);
type = Stem;
},
{
origin = (1,28);
target = (1,58);
type = Stem;
}
);
layerId = m01;
shapes = (
{
alignment = -1;
locked = 1;
ref = _part.circle_big;
},
{
closed = 1;
nodes = (
(399,120,ls),
(421,120,o),
(436,126,o),
(454,140,cs),
(471,154,o),
(487,170,o),
(500,186,cs),
(449,210,l),
(441,200,o),
(431,190,o),
(420,181,cs),
(412,174,o),
(403,172,o),
(393,172,cs),
(327,172,ls),
(317,172,o),
(308,174,o),
(300,181,cs),
(286,193,o),
(274,205,o),
(263,219,cs),
(256,228,o),
(254,235,o),
(254,246,cs),
(254,354,ls),
(254,365,o),
(256,372,o),
(263,381,cs),
(274,395,o),
(286,407,o),
(300,419,cs),
(308,426,o),
(317,428,o),
(327,428,cs),
(393,428,ls),
(403,428,o),
(412,426,o),
(420,419,cs),
(431,409,o),
(441,400,o),
(450,389,c),
(500,414,l),
(487,430,o),
(471,446,o),
(454,460,cs),
(436,474,o),
(421,480,o),
(399,480,cs),
(321,480,ls),
(299,480,o),
(284,474,o),
(266,460,cs),
(249,446,o),
(233,430,o),
(220,414,cs),
(206,396,o),
(200,381,o),
(200,359,cs),
(200,241,ls),
(200,219,o),
(206,204,o),
(220,186,cs),
(233,170,o),
(249,154,o),
(266,140,cs),
(284,126,o),
(299,120,o),
(321,120,cs)
);
}
);
width = 720;
},
{
hints = (
{
place = (407,114);
type = Stem;
},
{
place = (354,74);
type = Stem;
}
);
layerId = m002;
shapes = (
{
alignment = -1;
locked = 1;
ref = _part.circle_big;
},
{
closed = 1;
nodes = (
(484,90,ls),
(506,90,o),
(521,96,o),
(539,110,cs),
(556,124,o),
(582,150,o),
(595,166,c),
(477,227,l),
(474,224,o),
(471,221,o),
(468,218,cs),
(463,213,o),
(456,210,o),
(449,210,cs),
(401,210,ls),
(394,210,o),
(388,212,o),
(382,218,cs),
(379,221,o),
(376,224,o),
(373,227,cs),
(368,232,o),
(365,238,o),
(365,246,cs),
(365,354,ls),
(365,362,o),
(367,367,o),
(373,373,cs),
(376,376,o),
(379,379,o),
(382,382,cs),
(388,388,o),
(394,390,o),
(401,390,cs),
(449,390,ls),
(456,390,o),
(463,387,o),
(468,382,cs),
(471,379,o),
(474,376,o),
(477,373,c),
(595,434,l),
(582,450,o),
(556,476,o),
(539,490,cs),
(521,504,o),
(506,510,o),
(484,510,cs),
(366,510,ls),
(344,510,o),
(329,504,o),
(311,490,cs),
(294,476,o),
(278,460,o),
(265,444,cs),
(251,426,o),
(245,411,o),
(245,389,cs),
(245,211,ls),
(245,189,o),
(251,174,o),
(265,156,cs),
(278,140,o),
(294,124,o),
(311,110,cs),
(329,96,o),
(344,90,o),
(366,90,cs)
);
}
);
width = 860;
}
);
unicode = 169;
},
{
glyphname = registered;
kernLeft = copyright;
kernRight = copyright;
lastChange = "2025-12-28 15:26:01 +0000";
layers = (
{
layerId = m01;
shapes = (
{
alignment = -1;
locked = 1;
ref = _part.circle_big;
},
{
closed = 1;
nodes = (
(301,113,l),
(301,442,l),
(396,442,ls),
(406,442,o),
(414,439,o),
(423,433,cs),
(436,424,o),
(441,419,o),
(450,407,cs),
(457,398,o),
(459,391,o),
(459,380,cs),
(459,374,ls),
(459,363,o),
(456,356,o),
(450,347,cs),
(441,334,o),
(436,329,o),
(424,320,cs),
(416,314,o),
(407,311,o),
(397,311,cs),
(281,311,l),
(281,255,l),
(406,255,ls),
(428,255,o),
(443,261,o),
(461,275,cs),
(476,287,o),
(485,297,o),
(497,311,cs),
(512,328,o),
(517,344,o),
(517,366,cs),
(517,387,ls),
(517,409,o),
(511,424,o),
(497,442,cs),
(485,457,o),
(475,466,o),
(461,478,cs),
(444,493,o),
(428,498,o),
(406,498,cs),
(247,498,l),
(247,113,l)
);
},
{
closed = 1;
nodes = (
(374,298,l),
(444,113,l),
(506,113,l),
(436,298,l)
);
}
);
width = 720;
},
{
layerId = m002;
shapes = (
{
alignment = -1;
locked = 1;
ref = _part.circle_big;
},
{
closed = 1;
nodes = (
(390,100,l),
(390,400,l),
(454,400,ls),
(461,400,o),
(468,397,o),
(473,392,c),
(476,389,o),
(479,386,o),
(482,383,c),
(487,378,o),
(490,372,o),
(490,364,cs),
(490,346,ls),
(490,338,o),
(487,332,o),
(482,327,c),
(479,324,o),
(476,321,o),
(473,318,c),
(468,313,o),
(461,310,o),
(454,310,cs),
(370,310,l),
(370,210,l),
(472,210,ls),
(497,210,o),
(518,218,o),
(538,234,cs),
(556,248,o),
(572,264,o),
(586,282,cs),
(602,302,o),
(610,322,o),
(610,348,cs),
(610,362,ls),
(610,388,o),
(602,408,o),
(586,428,cs),
(572,446,o),
(556,462,o),
(538,476,cs),
(518,492,o),
(497,500,o),
(472,500,cs),
(280,500,l),
(280,100,l)
);
},
{
closed = 1;
nodes = (
(417,275,l),
(472,100,l),
(600,100,l),
(545,275,l)
);
}
);
width = 860;
}
);
metricLeft = copyright;
metricRight = copyright;
unicode = 174;
},
{
glyphname = trademark;
kernLeft = trademark;
kernRight = trademark;
lastChange = "2025-12-28 01:37:50 +0000";
layers = (
{
layerId = m01;
shapes = (
{
closed = 1;
nodes = (
(305,550,l),
(305,600,l),
(35,600,l),
(35,550,l)
);
},
{
closed = 1;
nodes = (
(196,300,l),
(196,600,l),
(144,600,l),
(144,300,l)
);
},
{
closed = 1;
nodes = (
(417,300,l),
(417,508,l),
(474,434,l),
(508,434,l),
(565,508,l),
(565,300,l),
(617,300,l),
(617,600,l),
(569,600,l),
(491,496,l),
(413,600,l),
(365,600,l),
(365,300,l)
);
}
);
width = 652;
},
{
layerId = m002;
shapes = (
{
closed = 1;
nodes = (
(305,490,l),
(305,600,l),
(35,600,l),
(35,490,l)
);
},
{
closed = 1;
nodes = (
(225,300,l),
(225,600,l),
(115,600,l),
(115,300,l)
);
},
{
closed = 1;
nodes = (
(457,300,l),
(457,468,l),
(514,384,l),
(548,384,l),
(605,468,l),
(605,300,l),
(705,300,l),
(705,600,l),
(589,600,l),
(531,536,l),
(473,600,l),
(357,600,l),
(357,300,l)
);
}
);
width = 760;
}
);
unicode = 8482;
},
{
glyphname = degree;
kernLeft = degree;
kernRight = degree;
lastChange = "2025-12-28 02:13:26 +0000";
layers = (
{
layerId = m01;
shapes = (
{
closed = 1;
nodes = (
(182,430,o),
(220,468,o),
(220,515,cs),
(220,562,o),
(182,600,o),
(135,600,cs),
(88,600,o),
(50,562,o),
(50,515,cs),
(50,468,o),
(88,430,o),
(135,430,cs)
);
},
{
closed = 1;
nodes = (
(113,475,o),
(95,493,o),
(95,515,cs),
(95,537,o),
(113,555,o),
(135,555,cs),
(157,555,o),
(175,537,o),
(175,515,cs),
(175,493,o),
(157,475,o),
(135,475,cs)
);
}
);
width = 270;
},
{
layerId = m002;
shapes = (
{
closed = 1;
nodes = (
(268,330,o),
(330,392,o),
(330,470,cs),
(330,548,o),
(268,610,o),
(190,610,cs),
(112,610,o),
(50,548,o),
(50,470,cs),
(50,392,o),
(112,330,o),
(190,330,cs)
);
},
{
closed = 1;
nodes = (
(168,428,o),
(148,448,o),
(148,470,cs),
(148,494,o),
(168,512,o),
(190,512,cs),
(214,512,o),
(232,494,o),
(232,470,cs),
(232,448,o),
(214,428,o),
(190,428,cs)
);
}
);
width = 380;
}
);
unicode = 176;
},
{
glyphname = bar;
kernLeft = bar;
kernRight = bar;
lastChange = "2025-12-28 01:38:40 +0000";
layers = (
{
layerId = m01;
shapes = (
{
closed = 1;
nodes = (
(123,-140,l),
(123,740,l),
(65,740,l),
(65,-140,l)
);
}
);
width = 188;
},
{
layerId = m002;
shapes = (
{
closed = 1;
nodes = (
(185,-140,l),
(185,740,l),
(65,740,l),
(65,-140,l)
);
}
);
width = 250;
}
);
unicode = 124;
},
{
glyphname = brokenbar;
kernLeft = bar;
kernRight = bar;
lastChange = "2025-12-28 15:26:01 +0000";
layers = (
{
layerId = m01;
shapes = (
{
alignment = -1;
locked = 1;
ref = bar;
},
{
attr = {
mask = 1;
};
closed = 1;
nodes = (
(0,180,l),
(188,180,l),
(188,420,l),
(0,420,l)
);
}
);
width = 188;
},
{
layerId = m002;
shapes = (
{
alignment = -1;
locked = 1;
ref = bar;
},
{
attr = {
mask = 1;
};
closed = 1;
nodes = (
(0,180,l),
(188,180,l),
(188,420,l),
(0,420,l)
);
}
);
width = 250;
}
);
metricLeft = bar;
metricRight = bar;
unicode = 166;
},
{
glyphname = cent;
kernLeft = c;
kernRight = c;
lastChange = "2025-12-28 19:57:15 +0000";
layers = (
{
layerId = m01;
shapes = (
{
alignment = -1;
locked = 1;
ref = c;
},
{
closed = 1;
nodes = (
(260,-80,l),
(260,510,l),
(202,510,l),
(202,-80,l)
);
}
);
width = 430;
},
{
layerId = m002;
shapes = (
{
alignment = -1;
locked = 1;
ref = c;
},
{
closed = 1;
nodes = (
(292,-80,l),
(292,510,l),
(172,510,l),
(172,-80,l)
);
}
);
width = 445;
},
{
associatedMasterId = m01;
attr = {
axisRules = (
{
min = 600;
}
);
};
layerId = "4815C561-9DAC-4344-946C-61EE84347EC1";
name = "Dec 28, 25 at 11:56";
shapes = (
{
alignment = -1;
locked = 1;
ref = c;
},
{
closed = 1;
nodes = (
(260,-80,l),
(260,20,l),
(202,20,l),
(202,-80,l)
);
},
{
closed = 1;
nodes = (
(260,410,l),
(260,510,l),
(202,510,l),
(202,410,l)
);
}
);
width = 430;
},
{
associatedMasterId = m002;
attr = {
axisRules = (
{
min = 600;
}
);
};
layerId = "710AB6DA-A729-4376-94C6-0E3555E03C4E";
name = "Dec 28, 25 at 11:57";
shapes = (
{
alignment = -1;
locked = 1;
ref = c;
},
{
closed = 1;
nodes = (
(291,-80,l),
(291,20,l),
(171,20,l),
(171,-80,l)
);
},
{
closed = 1;
nodes = (
(291,410,l),
(291,510,l),
(171,510,l),
(171,410,l)
);
}
);
width = 445;
}
);
metricLeft = c;
metricRight = c;
unicode = 162;
},
{
glyphname = dollar;
kernLeft = S;
kernRight = S;
lastChange = "2025-12-29 22:58:10 +0000";
layers = (
{
layerId = m01;
shapes = (
{
alignment = -1;
locked = 1;
ref = S;
},
{
closed = 1;
nodes = (
(265,-80,l),
(265,680,l),
(207,680,l),
(207,-80,l)
);
}
);
width = 472;
},
{
layerId = m002;
shapes = (
{
alignment = -1;
locked = 1;
ref = S;
},
{
closed = 1;
nodes = (
(326,-80,l),
(326,680,l),
(206,680,l),
(206,-80,l)
);
}
);
width = 510;
},
{
associatedMasterId = m01;
attr = {
axisRules = (
{
min = 600;
}
);
};
layerId = "3EC4A605-0B17-4384-8F19-2CC146919D8E";
name = "Dec 28, 25 at 07:22";
shapes = (
{
alignment = -1;
locked = 1;
ref = S;
},
{
closed = 1;
nodes = (
(255,-90,l),
(255,20,l),
(197,20,l),
(197,-90,l)
);
},
{
closed = 1;
nodes = (
(275,580,l),
(275,690,l),
(217,690,l),
(217,580,l)
);
}
);
width = 472;
},
{
associatedMasterId = m002;
attr = {
axisRules = (
{
min = 600;
}
);
};
layerId = "0655DEED-4012-42F8-8F60-9204CE9ED125";
name = "Dec 28, 25 at 07:23";
shapes = (
{
alignment = -1;
locked = 1;
ref = S;
},
{
closed = 1;
nodes = (
(316,-100,l),
(316,20,l),
(196,20,l),
(196,-100,l)
);
},
{
closed = 1;
nodes = (
(336,580,l),
(336,700,l),
(216,700,l),
(216,580,l)
);
}
);
width = 510;
}
);
metricLeft = S;
metricRight = S;
unicode = 36;
},
{
glyphname = divide;
lastChange = "2025-12-28 15:26:01 +0000";
layers = (
{
layerId = m01;
shapes = (
{
alignment = -1;
locked = 1;
piece = {
Width = 300;
};
ref = _part.dash;
},
{
closed = 1;
nodes = (
(240,158,l),
(240,218,l),
(180,218,l),
(180,158,l)
);
},
{
closed = 1;
nodes = (
(240,350,l),
(240,410,l),
(180,410,l),
(180,350,l)
);
}
);
width = 420;
},
{
layerId = m002;
shapes = (
{
alignment = -1;
locked = 1;
piece = {
Width = 400;
};
ref = _part.dash;
},
{
closed = 1;
nodes = (
(320,78,l),
(320,198,l),
(200,198,l),
(200,78,l)
);
},
{
closed = 1;
nodes = (
(320,370,l),
(320,490,l),
(200,490,l),
(200,370,l)
);
}
);
width = 520;
}
);
metricWidth = plus;
unicode = 247;
},
{
glyphname = less;
kernLeft = less;
kernRight = less;
lastChange = "2025-12-27 23:43:27 +0000";
layers = (
{
layerId = m01;
shapes = (
{
closed = 1;
nodes = (
(50,267,l),
(450,101,l),
(450,161,l),
(115,300,l),
(450,439,l),
(450,499,l),
(50,333,l)
);
}
);
width = 515;
},
{
layerId = m002;
shapes = (
{
closed = 1;
nodes = (
(50,237,l),
(550,31,l),
(550,161,l),
(207,300,l),
(550,439,l),
(550,569,l),
(50,363,l)
);
}
);
width = 615;
}
);
unicode = 60;
},
{
glyphname = asciitilde;
lastChange = "2025-12-30 17:43:33 +0000";
layers = (
{
layerId = m01;
shapes = (
{
closed = 1;
nodes = (
(318,235,o),
(371,240,o),
(434,303,c),
(400,337,l),
(350,289,o),
(328,291,o),
(249,324,cs),
(156,365,o),
(103,360,o),
(40,297,c),
(74,263,l),
(124,311,o),
(146,309,o),
(225,276,cs)
);
}
);
width = 474;
},
{
layerId = m002;
shapes = (
{
closed = 1;
nodes = (
(402,176,o),
(469,233,o),
(542,289,c),
(492,369,l),
(437,335,o),
(381,299,o),
(312,342,cs),
(180,424,o),
(113,367,o),
(40,311,c),
(90,231,l),
(145,265,o),
(201,301,o),
(270,258,cs)
);
}
);
width = 582;
}
);
metricLeft = "=40";
metricRight = "=40";
unicode = 126;
},
{
glyphname = rightArrow;
kernLeft = hyphen;
kernRight = rightArrow;
lastChange = "2025-12-28 15:26:01 +0000";
layers = (
{
layerId = m01;
shapes = (
{
closed = 1;
nodes = (
(50,271,l),
(520,271,l),
(520,329,l),
(50,329,l)
);
},
{
alignment = -1;
locked = 1;
pos = (200,0);
ref = _part.arrow_right;
}
);
width = 595;
},
{
layerId = m002;
shapes = (
{
closed = 1;
nodes = (
(50,240,l),
(520,240,l),
(520,360,l),
(50,360,l)
);
},
{
alignment = -1;
locked = 1;
pos = (200,0);
ref = _part.arrow_right;
}
);
width = 675;
}
);
unicode = 8594;
},
{
glyphname = leftRightArrow;
kernLeft = leftArrow;
kernRight = rightArrow;
lastChange = "2025-12-28 15:26:01 +0000";
layers = (
{
layerId = m01;
shapes = (
{
closed = 1;
nodes = (
(78,271,l),
(798,271,l),
(798,329,l),
(78,329,l)
);
},
{
alignment = -1;
locked = 1;
pos = (478,0);
ref = _part.arrow_right;
},
{
alignment = -1;
locked = 1;
pos = (395,0);
ref = _part.arrow_right;
scale = (-1,1);
}
);
width = 873;
},
{
layerId = m002;
shapes = (
{
closed = 1;
nodes = (
(158,240,l),
(878,240,l),
(878,360,l),
(158,360,l)
);
},
{
alignment = -1;
locked = 1;
pos = (558,0);
ref = _part.arrow_right;
},
{
alignment = -1;
locked = 1;
pos = (475,0);
ref = _part.arrow_right;
scale = (-1,1);
}
);
width = 1033;
}
);
metricLeft = leftArrow;
metricRight = rightArrow;
unicode = 8596;
},
{
glyphname = acutecomb;
lastChange = "2025-12-28 17:03:40 +0000";
layers = (
{
anchors = (
{
name = _top;
pos = (200,600);
}
);
layerId = m01;
shapes = (
{
closed = 1;
nodes = (
(212,660,l),
(274,788,l),
(203,788,l),
(181,660,l)
);
}
);
width = 400;
},
{
anchors = (
{
name = _top;
pos = (200,600);
}
);
layerId = m002;
shapes = (
{
closed = 1;
nodes = (
(249,645,l),
(339,798,l),
(198,798,l),
(141,645,l)
);
}
);
width = 400;
}
);
unicode = 769;
},
{
glyphname = circumflexcomb;
lastChange = "2025-12-28 15:58:17 +0000";
layers = (
{
anchors = (
{
name = _top;
pos = (200,600);
}
);
layerId = m01;
shapes = (
{
closed = 1;
nodes = (
(200,730,l),
(297,653,l),
(322,679,l),
(220,782,l),
(180,782,l),
(78,679,l),
(103,653,l)
);
}
);
width = 400;
},
{
anchors = (
{
name = _top;
pos = (200,600);
}
);
layerId = m002;
shapes = (
{
closed = 1;
nodes = (
(200,680,l),
(321,629,l),
(372,679,l),
(220,800,l),
(180,800,l),
(28,679,l),
(79,629,l)
);
}
);
width = 400;
}
);
unicode = 770;
},
{
glyphname = ringcomb;
lastChange = "2025-12-28 16:02:09 +0000";
layers = (
{
anchors = (
{
name = _top;
pos = (200,600);
}
);
layerId = m01;
shapes = (
{
closed = 1;
nodes = (
(242,645,o),
(275,678,o),
(275,720,cs),
(275,762,o),
(242,795,o),
(200,795,cs),
(158,795,o),
(125,762,o),
(125,720,cs),
(125,678,o),
(158,645,o),
(200,645,cs)
);
},
{
closed = 1;
nodes = (
(184,687,o),
(167,704,o),
(167,720,cs),
(167,738,o),
(184,753,o),
(200,753,cs),
(218,753,o),
(233,738,o),
(233,720,cs),
(233,704,o),
(218,687,o),
(200,687,cs)
);
}
);
width = 400;
},
{
anchors = (
{
name = _top;
pos = (200,600);
}
);
layerId = m002;
shapes = (
{
closed = 1;
nodes = (
(256,620,o),
(300,664,o),
(300,720,cs),
(300,776,o),
(256,820,o),
(200,820,cs),
(144,820,o),
(100,776,o),
(100,720,cs),
(100,664,o),
(144,620,o),
(200,620,cs)
);
},
{
closed = 1;
nodes = (
(190,700,o),
(180,710,o),
(180,720,cs),
(180,731,o),
(190,740,o),
(200,740,cs),
(211,740,o),
(220,731,o),
(220,720,cs),
(220,710,o),
(211,700,o),
(200,700,cs)
);
}
);
width = 400;
}
);
unicode = 778;
},
{
glyphname = tildecomb;
lastChange = "2025-12-28 16:55:02 +0000";
layers = (
{
anchors = (
{
name = _top;
pos = (200,600);
}
);
layerId = m01;
shapes = (
{
closed = 1;
nodes = (
(271,637,o),
(314,660,o),
(357,703,c),
(323,737,l),
(293,707,o),
(279,688,o),
(211,722,cs),
(129,763,o),
(86,740,o),
(43,697,c),
(77,663,l),
(107,693,o),
(121,712,o),
(189,678,cs)
);
}
);
width = 400;
},
{
anchors = (
{
name = _top;
pos = (200,600);
}
);
layerId = m002;
shapes = (
{
closed = 1;
nodes = (
(271,617,o),
(329,630,o),
(382,683,c),
(338,757,l),
(288,707,o),
(274,703,o),
(216,732,cs),
(134,773,o),
(76,760,o),
(23,707,c),
(67,633,l),
(117,683,o),
(131,687,o),
(189,658,cs)
);
}
);
width = 400;
}
);
unicode = 771;
},
{
glyphname = commaaccentcomb;
lastChange = "2025-12-30 23:00:52 +0000";
layers = (
{
anchors = (
{
name = _bottom;
pos = (200,0);
}
);
layerId = m01;
shapes = (
{
closed = 1;
nodes = (
(116,-161,l),
(144,-180,l),
(238,-36,l),
(157,-36,l)
);
}
);
width = 400;
},
{
anchors = (
{
name = _bottom;
pos = (200,0);
}
);
layerId = m002;
shapes = (
{
closed = 1;
nodes = (
(98,-155,l),
(148,-196,l),
(278,-36,l),
(137,-36,l)
);
}
);
width = 400;
}
);
unicode = 806;
},
{
glyphname = cedillacomb;
lastChange = "2025-12-30 23:02:54 +0000";
layers = (
{
anchors = (
{
name = _bottom;
pos = (200,0);
}
);
layerId = m01;
shapes = (
{
closed = 1;
nodes = (
(106,-161,l),
(134,-180,l),
(238,4,l),
(157,4,l)
);
}
);
width = 400;
},
{
anchors = (
{
name = _bottom;
pos = (200,0);
}
);
layerId = m002;
shapes = (
{
closed = 1;
nodes = (
(68,-155,l),
(118,-196,l),
(258,14,l),
(117,14,l)
);
}
);
width = 400;
}
);
unicode = 807;
},
{
glyphname = _part.e;
kernLeft = o;
lastChange = "2025-12-30 22:52:31 +0000";
layers = (
{
anchors = (
{
name = top;
pos = (230,430);
}
);
layerId = m01;
partSelection = {
Width = 2;
};
shapes = (
{
closed = 1;
nodes = (
(293,-5,ls),
(315,-5,o),
(331,0,o),
(348,15,cs),
(365,29,o),
(388,52,o),
(409,76,c),
(352,93,l),
(339,78,o),
(325,64,o),
(314,56,cs),
(306,49,o),
(297,47,o),
(287,47,cs),
(183,47,ls),
(173,47,o),
(164,49,o),
(156,56,cs),
(141,67,o),
(129,79,o),
(118,93,cs),
(111,102,o),
(109,109,o),
(109,120,cs),
(109,309,ls),
(109,320,o),
(111,327,o),
(118,336,cs),
(129,351,o),
(141,363,o),
(155,374,cs),
(163,381,o),
(172,383,o),
(182,383,cs),
(277,383,ls),
(287,383,o),
(296,381,o),
(304,374,cs),
(319,363,o),
(331,351,o),
(342,337,cs),
(349,328,o),
(351,321,o),
(351,310,cs),
(351,245,l),
(89,245,l),
(89,193,l),
(405,193,l),
(405,314,ls),
(405,336,o),
(400,352,o),
(385,369,cs),
(371,386,o),
(355,401,o),
(339,415,cs),
(322,430,o),
(306,435,o),
(284,435,cs),
(176,435,ls),
(154,435,o),
(138,430,o),
(121,415,cs),
(104,401,o),
(89,385,o),
(75,369,cs),
(60,352,o),
(55,336,o),
(55,314,cs),
(55,116,ls),
(55,94,o),
(60,78,o),
(75,61,cs),
(89,44,o),
(105,29,o),
(121,15,cs),
(138,0,o),
(154,-5,o),
(176,-5,cs)
);
}
);
width = 459;
},
{
anchors = (
{
name = top;
pos = (240,430);
}
);
layerId = m002;
partSelection = {
Width = 2;
};
shapes = (
{
closed = 1;
nodes = (
(334,-5,ls),
(356,-5,o),
(371,1,o),
(389,15,cs),
(406,29,o),
(433,57,o),
(445,102,c),
(337,132,l),
(334,129,o),
(331,126,o),
(328,123,cs),
(323,118,o),
(316,115,o),
(309,115,cs),
(201,115,ls),
(194,115,o),
(188,117,o),
(182,123,cs),
(179,126,o),
(176,129,o),
(173,132,cs),
(168,137,o),
(165,143,o),
(165,151,cs),
(165,279,ls),
(165,287,o),
(167,292,o),
(173,298,cs),
(176,301,o),
(179,304,o),
(182,307,cs),
(188,313,o),
(194,315,o),
(201,315,cs),
(289,315,ls),
(296,315,o),
(303,312,o),
(308,307,cs),
(311,304,o),
(314,301,o),
(317,298,cs),
(322,293,o),
(325,287,o),
(325,279,cs),
(325,263,l),
(99,263,l),
(99,173,l),
(445,173,l),
(445,314,ls),
(445,336,o),
(439,351,o),
(425,369,cs),
(412,385,o),
(396,401,o),
(379,415,cs),
(361,429,o),
(346,435,o),
(324,435,cs),
(166,435,ls),
(144,435,o),
(129,429,o),
(111,415,cs),
(94,401,o),
(78,385,o),
(65,369,cs),
(51,351,o),
(45,336,o),
(45,314,cs),
(45,116,ls),
(45,94,o),
(51,79,o),
(65,61,cs),
(78,45,o),
(94,29,o),
(111,15,cs),
(129,1,o),
(144,-5,o),
(166,-5,cs)
);
}
);
width = 495;
},
{
anchors = (
{
name = top;
pos = (230,430);
}
);
associatedMasterId = m01;
layerId = "66A4548A-9C1D-4A4B-973F-005B18B4B0D2";
name = Narrow;
partSelection = {
Width = 1;
};
shapes = (
{
closed = 1;
nodes = (
(283,-5,ls),
(305,-5,o),
(321,0,o),
(338,15,cs),
(355,29,o),
(378,52,o),
(399,76,c),
(342,93,l),
(329,78,o),
(315,64,o),
(304,56,cs),
(296,49,o),
(287,47,o),
(277,47,cs),
(183,47,ls),
(173,47,o),
(164,49,o),
(156,56,cs),
(141,67,o),
(129,79,o),
(118,93,cs),
(111,102,o),
(109,109,o),
(109,120,cs),
(109,309,ls),
(109,320,o),
(111,327,o),
(118,336,cs),
(129,351,o),
(141,363,o),
(155,374,cs),
(163,381,o),
(172,383,o),
(182,383,cs),
(267,383,ls),
(277,383,o),
(286,381,o),
(294,374,cs),
(309,363,o),
(321,351,o),
(332,337,cs),
(339,328,o),
(341,321,o),
(341,310,cs),
(341,245,l),
(89,245,l),
(89,193,l),
(395,193,l),
(395,314,ls),
(395,336,o),
(390,352,o),
(375,369,cs),
(361,386,o),
(345,401,o),
(329,415,cs),
(312,430,o),
(296,435,o),
(274,435,cs),
(176,435,ls),
(154,435,o),
(138,430,o),
(121,415,cs),
(104,401,o),
(89,385,o),
(75,369,cs),
(60,352,o),
(55,336,o),
(55,314,cs),
(55,116,ls),
(55,94,o),
(60,78,o),
(75,61,cs),
(89,44,o),
(105,29,o),
(121,15,cs),
(138,0,o),
(154,-5,o),
(176,-5,cs)
);
}
);
width = 449;
},
{
anchors = (
{
name = top;
pos = (240,430);
}
);
associatedMasterId = m002;
layerId = "EFBD6857-9C6F-459A-BEBC-3BCD63B91587";
name = Narrow;
partSelection = {
Width = 1;
};
shapes = (
{
closed = 1;
nodes = (
(324,-5,ls),
(346,-5,o),
(361,1,o),
(379,15,cs),
(396,29,o),
(423,57,o),
(435,102,c),
(327,132,l),
(324,129,o),
(321,126,o),
(318,123,cs),
(313,118,o),
(306,115,o),
(299,115,cs),
(201,115,ls),
(194,115,o),
(188,117,o),
(182,123,cs),
(179,126,o),
(176,129,o),
(173,132,cs),
(168,137,o),
(165,143,o),
(165,151,cs),
(165,279,ls),
(165,287,o),
(167,292,o),
(173,298,cs),
(176,301,o),
(179,304,o),
(182,307,cs),
(188,313,o),
(194,315,o),
(201,315,cs),
(279,315,ls),
(286,315,o),
(293,312,o),
(298,307,cs),
(301,304,o),
(304,301,o),
(307,298,cs),
(312,293,o),
(315,287,o),
(315,279,cs),
(315,263,l),
(99,263,l),
(99,173,l),
(435,173,l),
(435,314,ls),
(435,336,o),
(429,351,o),
(415,369,cs),
(402,385,o),
(386,401,o),
(369,415,cs),
(351,429,o),
(336,435,o),
(314,435,cs),
(166,435,ls),
(144,435,o),
(129,429,o),
(111,415,cs),
(94,401,o),
(78,385,o),
(65,369,cs),
(51,351,o),
(45,336,o),
(45,314,cs),
(45,116,ls),
(45,94,o),
(51,79,o),
(65,61,cs),
(78,45,o),
(94,29,o),
(111,15,cs),
(129,1,o),
(144,-5,o),
(166,-5,cs)
);
}
);
width = 485;
}
);
metricLeft = o;
metricRight = "=50";
partsSettings = (
{
bottomValue = 344;
name = Width;
topValue = 354;
}
);
},
{
glyphname = _part.o;
kernLeft = o;
kernRight = o;
lastChange = "2025-12-28 20:56:38 +0000";
layers = (
{
anchors = (
{
name = top;
pos = (235,430);
}
);
hints = (
{
origin = (1,29);
target = (0,9);
type = Stem;
},
{
origin = (0,29);
target = (1,9);
type = Stem;
}
);
layerId = m01;
partSelection = {
Width = 2;
};
shapes = (
{
closed = 1;
nodes = (
(294,-5,ls),
(316,-5,o),
(331,1,o),
(349,15,cs),
(366,29,o),
(382,45,o),
(395,61,cs),
(409,79,o),
(415,94,o),
(415,116,cs),
(415,314,ls),
(415,336,o),
(409,351,o),
(395,369,cs),
(382,385,o),
(366,401,o),
(349,415,cs),
(331,429,o),
(316,435,o),
(294,435,cs),
(176,435,ls),
(154,435,o),
(139,429,o),
(121,415,cs),
(104,401,o),
(88,385,o),
(75,369,cs),
(61,351,o),
(55,336,o),
(55,314,cs),
(55,116,ls),
(55,94,o),
(61,79,o),
(75,61,cs),
(88,45,o),
(104,29,o),
(121,15,cs),
(139,1,o),
(154,-5,o),
(176,-5,cs)
);
},
{
closed = 1;
nodes = (
(172,47,o),
(163,49,o),
(155,56,cs),
(141,68,o),
(129,80,o),
(118,94,cs),
(111,103,o),
(109,110,o),
(109,121,cs),
(109,309,ls),
(109,320,o),
(111,327,o),
(118,336,cs),
(129,350,o),
(141,362,o),
(155,374,cs),
(163,381,o),
(172,383,o),
(182,383,cs),
(288,383,ls),
(298,383,o),
(307,381,o),
(315,374,cs),
(329,362,o),
(341,350,o),
(352,336,cs),
(359,327,o),
(361,320,o),
(361,309,cs),
(361,121,ls),
(361,110,o),
(359,103,o),
(352,94,cs),
(341,80,o),
(329,68,o),
(315,56,cs),
(307,49,o),
(298,47,o),
(288,47,cs),
(182,47,ls)
);
}
);
width = 470;
},
{
anchors = (
{
name = top;
pos = (235,430);
}
);
hints = (
{
origin = (0,0);
target = (0,9);
type = Stem;
},
{
origin = (0,29);
target = (0,20);
type = Stem;
}
);
layerId = m002;
partSelection = {
Width = 2;
};
shapes = (
{
closed = 1;
nodes = (
(304,-5,ls),
(326,-5,o),
(341,1,o),
(359,15,cs),
(376,29,o),
(392,45,o),
(405,61,cs),
(419,79,o),
(425,94,o),
(425,116,cs),
(425,314,ls),
(425,336,o),
(419,351,o),
(405,369,cs),
(392,385,o),
(376,401,o),
(359,415,cs),
(341,429,o),
(326,435,o),
(304,435,cs),
(166,435,ls),
(144,435,o),
(129,429,o),
(111,415,cs),
(94,401,o),
(78,385,o),
(65,369,cs),
(51,351,o),
(45,336,o),
(45,314,cs),
(45,116,ls),
(45,94,o),
(51,79,o),
(65,61,cs),
(78,45,o),
(94,29,o),
(111,15,cs),
(129,1,o),
(144,-5,o),
(166,-5,cs)
);
},
{
closed = 1;
nodes = (
(194,115,o),
(188,117,o),
(182,123,cs),
(179,126,o),
(176,129,o),
(173,132,cs),
(168,137,o),
(165,143,o),
(165,151,cs),
(165,279,ls),
(165,287,o),
(167,292,o),
(173,298,cs),
(176,301,o),
(179,304,o),
(182,307,cs),
(188,313,o),
(194,315,o),
(201,315,cs),
(269,315,ls),
(276,315,o),
(283,312,o),
(288,307,cs),
(291,304,o),
(294,301,o),
(297,298,cs),
(302,293,o),
(305,287,o),
(305,279,cs),
(305,151,ls),
(305,143,o),
(302,137,o),
(297,132,cs),
(294,129,o),
(291,126,o),
(288,123,cs),
(283,118,o),
(276,115,o),
(269,115,cs),
(201,115,ls)
);
}
);
width = 470;
},
{
anchors = (
{
name = top;
pos = (230,430);
}
);
associatedMasterId = m01;
hints = (
{
origin = (1,29);
target = (0,9);
type = Stem;
},
{
origin = (0,29);
target = (1,9);
type = Stem;
}
);
layerId = "30BA109E-E6BA-44CE-9200-715908C5729B";
name = Narrow;
partSelection = {
Width = 1;
};
shapes = (
{
closed = 1;
nodes = (
(284,-5,ls),
(306,-5,o),
(321,1,o),
(339,15,cs),
(356,29,o),
(372,45,o),
(385,61,cs),
(399,79,o),
(405,94,o),
(405,116,cs),
(405,314,ls),
(405,336,o),
(399,351,o),
(385,369,cs),
(372,385,o),
(356,401,o),
(339,415,cs),
(321,429,o),
(306,435,o),
(284,435,cs),
(176,435,ls),
(154,435,o),
(139,429,o),
(121,415,cs),
(104,401,o),
(88,385,o),
(75,369,cs),
(61,351,o),
(55,336,o),
(55,314,cs),
(55,116,ls),
(55,94,o),
(61,79,o),
(75,61,cs),
(88,45,o),
(104,29,o),
(121,15,cs),
(139,1,o),
(154,-5,o),
(176,-5,cs)
);
},
{
closed = 1;
nodes = (
(172,47,o),
(163,49,o),
(155,56,cs),
(141,68,o),
(129,80,o),
(118,94,cs),
(111,103,o),
(109,110,o),
(109,121,cs),
(109,309,ls),
(109,320,o),
(111,327,o),
(118,336,cs),
(129,350,o),
(141,362,o),
(155,374,cs),
(163,381,o),
(172,383,o),
(182,383,cs),
(278,383,ls),
(288,383,o),
(297,381,o),
(305,374,cs),
(319,362,o),
(331,350,o),
(342,336,cs),
(349,327,o),
(351,320,o),
(351,309,cs),
(351,121,ls),
(351,110,o),
(349,103,o),
(342,94,cs),
(331,80,o),
(319,68,o),
(305,56,cs),
(297,49,o),
(288,47,o),
(278,47,cs),
(182,47,ls)
);
}
);
width = 470;
},
{
anchors = (
{
name = top;
pos = (230,430);
}
);
associatedMasterId = m002;
hints = (
{
origin = (0,0);
target = (0,9);
type = Stem;
},
{
origin = (0,29);
target = (0,20);
type = Stem;
}
);
layerId = "5E750054-641F-4A4A-8D16-C2821FC63500";
name = Narrow;
partSelection = {
Width = 1;
};
shapes = (
{
closed = 1;
nodes = (
(294,-5,ls),
(316,-5,o),
(331,1,o),
(349,15,cs),
(366,29,o),
(382,45,o),
(395,61,cs),
(409,79,o),
(415,94,o),
(415,116,cs),
(415,314,ls),
(415,336,o),
(409,351,o),
(395,369,cs),
(382,385,o),
(366,401,o),
(349,415,cs),
(331,429,o),
(316,435,o),
(294,435,cs),
(166,435,ls),
(144,435,o),
(129,429,o),
(111,415,cs),
(94,401,o),
(78,385,o),
(65,369,cs),
(51,351,o),
(45,336,o),
(45,314,cs),
(45,116,ls),
(45,94,o),
(51,79,o),
(65,61,cs),
(78,45,o),
(94,29,o),
(111,15,cs),
(129,1,o),
(144,-5,o),
(166,-5,cs)
);
},
{
closed = 1;
nodes = (
(194,115,o),
(188,117,o),
(182,123,cs),
(179,126,o),
(176,129,o),
(173,132,cs),
(168,137,o),
(165,143,o),
(165,151,cs),
(165,279,ls),
(165,287,o),
(167,292,o),
(173,298,cs),
(176,301,o),
(179,304,o),
(182,307,cs),
(188,313,o),
(194,315,o),
(201,315,cs),
(259,315,ls),
(266,315,o),
(273,312,o),
(278,307,cs),
(281,304,o),
(284,301,o),
(287,298,cs),
(292,293,o),
(295,287,o),
(295,279,cs),
(295,151,ls),
(295,143,o),
(292,137,o),
(287,132,cs),
(284,129,o),
(281,126,o),
(278,123,cs),
(273,118,o),
(266,115,o),
(259,115,cs),
(201,115,ls)
);
}
);
width = 470;
}
);
partsSettings = (
{
bottomValue = 350;
name = Width;
topValue = 360;
}
);
},
{
export = 0;
glyphname = _part.3_bowl;
lastChange = "2025-12-28 21:20:52 +0000";
layers = (
{
layerId = m01;
partSelection = {
Width = 2;
Height = 1;
};
shapes = (
{
closed = 1;
nodes = (
(302,544,ls),
(316,544,o),
(325,540,o),
(337,531,cs),
(351,521,o),
(364,508,o),
(374,494,cs),
(383,482,o),
(387,473,o),
(387,459,cs),
(387,402,ls),
(387,391,o),
(385,384,o),
(378,375,cs),
(367,360,o),
(355,348,o),
(341,337,cs),
(333,330,o),
(324,328,o),
(314,328,c),
(369,284,l),
(396,309,o),
(411,324,o),
(425,340,cs),
(440,357,o),
(445,373,o),
(445,395,cs),
(445,462,ls),
(445,488,o),
(437,508,o),
(421,528,cs),
(407,546,o),
(391,562,o),
(373,576,cs),
(353,592,o),
(332,600,o),
(307,600,cs),
(183,600,ls),
(158,600,o),
(138,591,o),
(118,575,cs),
(100,561,o),
(84,545,o),
(70,527,c),
(116,494,l),
(153,531,ls),
(164,541,o),
(174,544,o),
(188,544,cs)
);
}
);
width = 500;
},
{
layerId = m002;
partSelection = {
Width = 2;
Height = 1;
};
shapes = (
{
closed = 1;
nodes = (
(309,480,ls),
(316,480,o),
(323,477,o),
(328,472,cs),
(331,469,o),
(334,466,o),
(337,463,cs),
(342,458,o),
(345,452,o),
(345,444,cs),
(345,386,ls),
(345,378,o),
(342,372,o),
(337,367,cs),
(334,364,o),
(331,361,o),
(328,358,cs),
(323,353,o),
(316,350,o),
(309,350,c),
(383,254,l),
(401,268,o),
(427,294,o),
(441,312,cs),
(457,332,o),
(465,352,o),
(465,378,cs),
(465,462,ls),
(465,488,o),
(457,508,o),
(441,528,cs),
(427,546,o),
(411,562,o),
(393,576,cs),
(373,592,o),
(352,600,o),
(327,600,cs),
(163,600,ls),
(138,600,o),
(118,591,o),
(98,575,cs),
(80,561,o),
(64,535,o),
(50,517,c),
(133,463,l),
(142,472,l),
(148,478,o),
(154,480,o),
(161,480,cs)
);
}
);
width = 500;
},
{
associatedMasterId = m01;
layerId = "482E4BE6-05AB-48A3-B933-1D85C5A24FC8";
name = Narrow;
partSelection = {
Width = 1;
Height = 1;
};
shapes = (
{
closed = 1;
nodes = (
(292,544,ls),
(306,544,o),
(315,540,o),
(327,531,cs),
(341,521,o),
(354,508,o),
(364,494,cs),
(373,482,o),
(377,473,o),
(377,459,cs),
(377,402,ls),
(377,391,o),
(375,384,o),
(368,375,cs),
(357,360,o),
(345,348,o),
(331,337,cs),
(323,330,o),
(314,328,o),
(304,328,c),
(359,284,l),
(386,309,o),
(401,324,o),
(415,340,cs),
(430,357,o),
(435,373,o),
(435,395,cs),
(435,462,ls),
(435,488,o),
(427,508,o),
(411,528,cs),
(397,546,o),
(381,562,o),
(363,576,cs),
(343,592,o),
(322,600,o),
(297,600,cs),
(183,600,ls),
(158,600,o),
(138,591,o),
(118,575,cs),
(100,561,o),
(84,545,o),
(70,527,c),
(116,494,l),
(153,531,ls),
(164,541,o),
(174,544,o),
(188,544,cs)
);
}
);
width = 500;
},
{
associatedMasterId = m002;
layerId = "AA30A28A-0C39-4C8F-9202-FFA02E6D8363";
name = Narrow;
partSelection = {
Width = 1;
Height = 1;
};
shapes = (
{
closed = 1;
nodes = (
(299,480,ls),
(306,480,o),
(313,477,o),
(318,472,cs),
(321,469,o),
(324,466,o),
(327,463,cs),
(332,458,o),
(335,452,o),
(335,444,cs),
(335,386,ls),
(335,378,o),
(332,372,o),
(327,367,cs),
(324,364,o),
(321,361,o),
(318,358,cs),
(313,353,o),
(306,350,o),
(299,350,c),
(373,254,l),
(391,268,o),
(417,294,o),
(431,312,cs),
(447,332,o),
(455,352,o),
(455,378,cs),
(455,462,ls),
(455,488,o),
(447,508,o),
(431,528,cs),
(417,546,o),
(401,562,o),
(383,576,cs),
(363,592,o),
(342,600,o),
(317,600,cs),
(163,600,ls),
(138,600,o),
(118,591,o),
(98,575,cs),
(80,561,o),
(64,545,o),
(50,527,c),
(153,463,l),
(162,472,l),
(168,478,o),
(174,480,o),
(181,480,cs)
);
}
);
width = 500;
},
{
associatedMasterId = m01;
layerId = "C92EC6A2-EFB3-4757-937D-1ADC1CDD428F";
name = Tall;
partSelection = {
Width = 2;
Height = 2;
};
shapes = (
{
closed = 1;
nodes = (
(302,554,ls),
(316,554,o),
(325,550,o),
(337,541,cs),
(351,531,o),
(364,518,o),
(374,504,cs),
(383,492,o),
(387,483,o),
(387,469,cs),
(387,402,ls),
(387,391,o),
(385,384,o),
(378,375,cs),
(367,360,o),
(355,348,o),
(341,337,cs),
(333,330,o),
(324,328,o),
(314,328,c),
(369,284,l),
(396,309,o),
(411,324,o),
(425,340,cs),
(440,357,o),
(445,373,o),
(445,395,cs),
(445,472,ls),
(445,498,o),
(437,518,o),
(421,538,cs),
(407,556,o),
(391,572,o),
(373,586,cs),
(353,602,o),
(332,610,o),
(307,610,cs),
(183,610,ls),
(158,610,o),
(138,601,o),
(118,585,cs),
(100,571,o),
(84,555,o),
(70,537,c),
(116,504,l),
(153,541,ls),
(164,551,o),
(174,554,o),
(188,554,cs)
);
}
);
width = 500;
},
{
associatedMasterId = m002;
layerId = "A7594583-07FE-4AAE-8BF8-897A9ECDA2F8";
name = Tall;
partSelection = {
Width = 2;
Height = 2;
};
shapes = (
{
closed = 1;
nodes = (
(309,490,ls),
(316,490,o),
(323,487,o),
(328,482,cs),
(331,479,o),
(334,476,o),
(337,473,cs),
(342,468,o),
(345,462,o),
(345,454,cs),
(345,386,ls),
(345,378,o),
(342,372,o),
(337,367,cs),
(334,364,o),
(331,361,o),
(328,358,cs),
(323,353,o),
(316,350,o),
(309,350,c),
(383,254,l),
(401,268,o),
(427,294,o),
(441,312,cs),
(457,332,o),
(465,352,o),
(465,378,cs),
(465,472,ls),
(465,498,o),
(457,518,o),
(441,538,cs),
(427,556,o),
(411,572,o),
(393,586,cs),
(373,602,o),
(352,610,o),
(327,610,cs),
(163,610,ls),
(138,610,o),
(118,601,o),
(98,585,cs),
(80,571,o),
(64,555,o),
(50,537,c),
(153,473,l),
(162,482,l),
(168,488,o),
(174,490,o),
(181,490,cs)
);
}
);
width = 500;
}
);
partsSettings = (
{
bottomValue = 365;
name = Width;
topValue = 375;
},
{
bottomValue = 316;
name = Height;
topValue = 326;
}
);
},
{
export = 0;
glyphname = _part.arrow_right;
lastChange = "2025-12-27 23:46:52 +0000";
layers = (
{
layerId = m01;
shapes = (
{
closed = 1;
nodes = (
(375,300,l),
(133,542,l),
(92,501,l),
(293,300,l),
(92,99,l),
(133,58,l)
);
}
);
width = 595;
},
{
layerId = m002;
shapes = (
{
closed = 1;
nodes = (
(455,300,l),
(163,592,l),
(82,511,l),
(293,300,l),
(82,89,l),
(163,8,l)
);
}
);
width = 595;
}
);
},
{
export = 0;
glyphname = _part.asterisk_arm;
lastChange = "2025-12-27 22:40:47 +0000";
layers = (
{
layerId = m01;
shapes = (
{
closed = 1;
nodes = (
(275,460,l),
(319,460,l),
(323,600,l),
(271,600,l)
);
}
);
width = 600;
},
{
layerId = m002;
shapes = (
{
closed = 1;
nodes = (
(255,460,l),
(339,460,l),
(363,650,l),
(231,650,l)
);
}
);
width = 600;
}
);
},
{
export = 0;
glyphname = _part.circle_big;
lastChange = "2025-12-28 03:27:00 +0000";
layers = (
{
layerId = m01;
shapes = (
{
closed = 1;
nodes = (
(537,-20,o),
(680,123,o),
(680,300,cs),
(680,477,o),
(537,620,o),
(360,620,cs),
(183,620,o),
(40,477,o),
(40,300,cs),
(40,123,o),
(183,-20,o),
(360,-20,cs)
);
},
{
closed = 1;
nodes = (
(211,30,o),
(90,151,o),
(90,300,cs),
(90,449,o),
(211,570,o),
(360,570,cs),
(509,570,o),
(630,449,o),
(630,300,cs),
(630,151,o),
(509,30,o),
(360,30,cs)
);
}
);
width = 720;
},
{
layerId = m002;
shapes = (
{
closed = 1;
nodes = (
(652,-100,o),
(830,78,o),
(830,300,cs),
(830,522,o),
(652,700,o),
(430,700,cs),
(208,700,o),
(30,522,o),
(30,300,cs),
(30,78,o),
(208,-100,o),
(430,-100,cs)
);
},
{
closed = 1;
nodes = (
(275,20,o),
(150,145,o),
(150,300,cs),
(150,455,o),
(275,580,o),
(430,580,cs),
(585,580,o),
(710,455,o),
(710,300,cs),
(710,145,o),
(585,20,o),
(430,20,cs)
);
}
);
width = 860;
}
);
},
{
export = 0;
glyphname = _part.comma;
lastChange = "2025-12-28 20:51:19 +0000";
layers = (
{
layerId = m01;
shapes = (
{
closed = 1;
nodes = (
(104,-80,l),
(134,0,l),
(134,90,l),
(67,90,l),
(67,-80,l)
);
}
);
width = 200;
},
{
layerId = m002;
shapes = (
{
closed = 1;
nodes = (
(155,-110,l),
(185,0,l),
(185,130,l),
(65,130,l),
(65,-110,l)
);
}
);
width = 250;
}
);
},
{
export = 0;
glyphname = _part.dash;
lastChange = "2025-12-27 22:42:39 +0000";
layers = (
{
layerId = m01;
partSelection = {
Width = 1;
};
shapes = (
{
closed = 1;
nodes = (
(284,258,l),
(284,310,l),
(60,310,l),
(60,258,l)
);
}
);
width = 344;
},
{
associatedMasterId = m01;
layerId = "074D0E0B-2B5D-4985-BF89-94CF38B90C08";
name = Wide;
partSelection = {
Width = 2;
};
shapes = (
{
closed = 1;
nodes = (
(294,258,l),
(294,310,l),
(60,310,l),
(60,258,l)
);
}
);
width = 344;
},
{
layerId = m002;
partSelection = {
Width = 1;
};
shapes = (
{
closed = 1;
nodes = (
(284,224,l),
(284,344,l),
(60,344,l),
(60,224,l)
);
}
);
width = 344;
},
{
associatedMasterId = m002;
layerId = "8F6BDCC1-6A06-466B-B6CC-C14749586D3D";
name = Wide;
partSelection = {
Width = 2;
};
shapes = (
{
closed = 1;
nodes = (
(294,224,l),
(294,344,l),
(60,344,l),
(60,224,l)
);
}
);
width = 344;
}
);
partsSettings = (
{
bottomValue = 224;
name = Width;
topValue = 234;
}
);
},
{
export = 0;
glyphname = _part.dot;
lastChange = "2025-12-28 15:29:54 +0000";
layers = (
{
layerId = m01;
shapes = (
{
closed = 1;
nodes = (
(100,635,l),
(100,715,l),
(20,715,l),
(20,635,l)
);
}
);
width = 248;
},
{
layerId = m002;
shapes = (
{
closed = 1;
nodes = (
(120,615,l),
(120,735,l),
(0,735,l),
(0,615,l)
);
}
);
width = 300;
}
);
},
{
export = 0;
glyphname = _part.i_dot;
lastChange = "2025-12-27 19:50:33 +0000";
layers = (
{
layerId = m01;
shapes = (
{
closed = 1;
nodes = (
(138,524,l),
(138,602,l),
(66,602,l),
(66,524,l)
);
}
);
width = 204;
},
{
layerId = m002;
shapes = (
{
closed = 1;
nodes = (
(190,494,l),
(190,612,l),
(70,612,l),
(70,494,l)
);
}
);
width = 260;
}
);
},
{
export = 0;
glyphname = _part.lowercase_bowl;
lastChange = "2025-12-27 19:52:34 +0000";
layers = (
{
hints = (
{
origin = (0,44);
target = (0,9);
type = Stem;
}
);
layerId = m01;
partSelection = {
Width = 2;
Height = 2;
};
shapes = (
{
closed = 1;
nodes = (
(279,-3,ls),
(301,-3,o),
(317,2,o),
(334,17,cs),
(351,31,o),
(366,47,o),
(380,63,cs),
(395,80,o),
(400,96,o),
(400,118,cs),
(400,312,ls),
(400,334,o),
(395,350,o),
(380,367,cs),
(366,384,o),
(350,399,o),
(334,413,cs),
(317,428,o),
(301,433,o),
(279,433,cs),
(172,433,ls),
(150,433,o),
(134,428,o),
(117,413,cs),
(100,399,o),
(85,383,o),
(71,367,c),
(104,327,l),
(104,346,o),
(111,357,o),
(130,372,cs),
(138,379,o),
(147,381,o),
(157,381,cs),
(272,381,ls),
(282,381,o),
(291,379,o),
(299,372,cs),
(314,361,o),
(326,349,o),
(337,335,cs),
(344,326,o),
(346,319,o),
(346,308,cs),
(346,123,ls),
(346,112,o),
(344,105,o),
(337,96,cs),
(326,81,o),
(314,69,o),
(300,58,cs),
(292,51,o),
(283,49,o),
(273,49,cs),
(158,49,ls),
(148,49,o),
(139,51,o),
(131,58,cs),
(113,71,o),
(104,82,o),
(104,102,c),
(71,63,l),
(85,46,o),
(101,31,o),
(117,17,cs),
(134,2,o),
(150,-3,o),
(172,-3,cs)
);
}
);
width = 450;
},
{
associatedMasterId = m01;
layerId = "2B53C67F-1295-4A3D-80BD-11AC0EA36990";
name = Narrow;
partSelection = {
Width = 1;
Height = 2;
};
shapes = (
{
closed = 1;
nodes = (
(269,-3,ls),
(291,-3,o),
(307,2,o),
(324,17,cs),
(341,31,o),
(356,47,o),
(370,63,cs),
(385,80,o),
(390,96,o),
(390,118,cs),
(390,312,ls),
(390,334,o),
(385,350,o),
(370,367,cs),
(356,384,o),
(340,399,o),
(324,413,cs),
(307,428,o),
(291,433,o),
(269,433,cs),
(172,433,ls),
(150,433,o),
(134,428,o),
(117,413,cs),
(100,399,o),
(85,383,o),
(71,367,c),
(104,327,l),
(104,346,o),
(111,357,o),
(130,372,cs),
(138,379,o),
(147,381,o),
(157,381,cs),
(262,381,ls),
(272,381,o),
(281,379,o),
(289,372,cs),
(304,361,o),
(316,349,o),
(327,335,cs),
(334,326,o),
(336,319,o),
(336,308,cs),
(336,123,ls),
(336,112,o),
(334,105,o),
(327,96,cs),
(316,81,o),
(304,69,o),
(290,58,cs),
(282,51,o),
(273,49,o),
(263,49,cs),
(158,49,ls),
(148,49,o),
(139,51,o),
(131,58,cs),
(113,71,o),
(104,82,o),
(104,102,c),
(71,63,l),
(85,46,o),
(101,31,o),
(117,17,cs),
(134,2,o),
(150,-3,o),
(172,-3,cs)
);
}
);
width = 450;
},
{
associatedMasterId = m01;
hints = (
{
origin = (0,44);
target = (0,9);
type = Stem;
}
);
layerId = "5D81E464-9D56-46DA-A384-7E17795C1E05";
name = Short;
partSelection = {
Width = 2;
Height = 1;
};
shapes = (
{
closed = 1;
nodes = (
(279,-3,ls),
(301,-3,o),
(317,2,o),
(334,17,cs),
(351,31,o),
(366,47,o),
(380,63,cs),
(395,80,o),
(400,96,o),
(400,118,cs),
(400,302,ls),
(400,324,o),
(395,340,o),
(380,357,cs),
(366,374,o),
(350,389,o),
(334,403,cs),
(317,418,o),
(301,423,o),
(279,423,cs),
(172,423,ls),
(150,423,o),
(134,418,o),
(117,403,cs),
(100,389,o),
(85,373,o),
(71,357,c),
(104,317,l),
(104,336,o),
(111,347,o),
(130,362,cs),
(138,369,o),
(147,371,o),
(157,371,cs),
(272,371,ls),
(282,371,o),
(291,369,o),
(299,362,cs),
(314,351,o),
(326,339,o),
(337,325,cs),
(344,316,o),
(346,309,o),
(346,298,cs),
(346,123,ls),
(346,112,o),
(344,105,o),
(337,96,cs),
(326,81,o),
(314,69,o),
(300,58,cs),
(292,51,o),
(283,49,o),
(273,49,cs),
(158,49,ls),
(148,49,o),
(139,51,o),
(131,58,cs),
(113,71,o),
(104,82,o),
(104,102,c),
(71,63,l),
(85,46,o),
(101,31,o),
(117,17,cs),
(134,2,o),
(150,-3,o),
(172,-3,cs)
);
}
);
width = 450;
},
{
hints = (
{
origin = (0,44);
target = (0,9);
type = Stem;
}
);
layerId = m002;
partSelection = {
Width = 2;
Height = 2;
};
shapes = (
{
closed = 1;
nodes = (
(279,-3,ls),
(301,-3,o),
(317,2,o),
(334,17,cs),
(351,31,o),
(366,47,o),
(380,63,cs),
(395,80,o),
(400,96,o),
(400,118,cs),
(400,312,ls),
(400,334,o),
(395,350,o),
(380,367,cs),
(366,384,o),
(350,399,o),
(334,413,cs),
(317,428,o),
(301,433,o),
(279,433,cs),
(172,433,ls),
(150,433,o),
(134,428,o),
(117,413,cs),
(100,399,o),
(85,383,o),
(71,367,c),
(104,259,l),
(104,278,o),
(111,289,o),
(130,304,cs),
(138,311,o),
(147,313,o),
(157,313,cs),
(244,313,ls),
(251,313,o),
(258,310,o),
(263,305,cs),
(266,302,o),
(269,299,o),
(272,296,cs),
(277,291,o),
(280,285,o),
(280,277,cs),
(280,153,ls),
(280,145,o),
(277,139,o),
(272,134,cs),
(269,131,o),
(266,128,o),
(263,125,cs),
(258,120,o),
(251,117,o),
(244,117,cs),
(158,117,ls),
(148,117,o),
(139,119,o),
(131,126,cs),
(113,139,o),
(104,150,o),
(104,170,c),
(71,63,l),
(85,46,o),
(101,31,o),
(117,17,cs),
(134,2,o),
(150,-3,o),
(172,-3,cs)
);
}
);
width = 450;
},
{
associatedMasterId = m002;
layerId = "25708E4E-25E0-4192-A8AE-5A6D65185AE0";
name = Narrow;
partSelection = {
Width = 1;
Height = 2;
};
shapes = (
{
closed = 1;
nodes = (
(269,-3,ls),
(291,-3,o),
(307,2,o),
(324,17,cs),
(341,31,o),
(356,47,o),
(370,63,cs),
(385,80,o),
(390,96,o),
(390,118,cs),
(390,312,ls),
(390,334,o),
(385,350,o),
(370,367,cs),
(356,384,o),
(340,399,o),
(324,413,cs),
(307,428,o),
(291,433,o),
(269,433,cs),
(172,433,ls),
(150,433,o),
(134,428,o),
(117,413,cs),
(100,399,o),
(85,383,o),
(71,367,c),
(104,259,l),
(104,278,o),
(111,289,o),
(130,304,cs),
(138,311,o),
(147,313,o),
(157,313,cs),
(234,313,ls),
(241,313,o),
(248,310,o),
(253,305,cs),
(256,302,o),
(259,299,o),
(262,296,cs),
(267,291,o),
(270,285,o),
(270,277,cs),
(270,153,ls),
(270,145,o),
(267,139,o),
(262,134,cs),
(259,131,o),
(256,128,o),
(253,125,cs),
(248,120,o),
(241,117,o),
(234,117,cs),
(158,117,ls),
(148,117,o),
(139,119,o),
(131,126,cs),
(113,139,o),
(104,150,o),
(104,170,c),
(71,63,l),
(85,46,o),
(101,31,o),
(117,17,cs),
(134,2,o),
(150,-3,o),
(172,-3,cs)
);
}
);
width = 450;
},
{
associatedMasterId = m002;
hints = (
{
place = (346,54);
type = Stem;
}
);
layerId = "F99470DA-672A-4357-9B8D-533DD8816A1B";
name = Short;
partSelection = {
Width = 2;
Height = 1;
};
shapes = (
{
closed = 1;
nodes = (
(279,-3,ls),
(301,-3,o),
(317,2,o),
(334,17,cs),
(351,31,o),
(366,47,o),
(380,63,cs),
(395,80,o),
(400,96,o),
(400,118,cs),
(400,302,ls),
(400,324,o),
(395,340,o),
(380,357,cs),
(366,374,o),
(350,389,o),
(334,403,cs),
(317,418,o),
(301,423,o),
(279,423,cs),
(172,423,ls),
(150,423,o),
(134,418,o),
(117,403,cs),
(100,389,o),
(85,373,o),
(71,357,c),
(104,249,l),
(104,268,o),
(111,279,o),
(130,294,cs),
(138,301,o),
(147,303,o),
(157,303,cs),
(244,303,ls),
(251,303,o),
(258,300,o),
(263,295,cs),
(266,292,o),
(269,289,o),
(272,286,cs),
(277,281,o),
(280,275,o),
(280,267,cs),
(280,153,ls),
(280,145,o),
(277,139,o),
(272,134,cs),
(269,131,o),
(266,128,o),
(263,125,cs),
(258,120,o),
(251,117,o),
(244,117,cs),
(158,117,ls),
(148,117,o),
(139,119,o),
(131,126,cs),
(113,139,o),
(104,150,o),
(104,170,c),
(71,63,l),
(85,46,o),
(101,31,o),
(117,17,cs),
(134,2,o),
(150,-3,o),
(172,-3,cs)
);
}
);
width = 450;
}
);
partsSettings = (
{
bottomValue = 320;
name = Width;
topValue = 330;
},
{
bottomValue = 426;
name = Height;
topValue = 436;
}
);
},
{
export = 0;
glyphname = _part.percent_slash;
lastChange = "2025-12-28 18:27:18 +0000";
layers = (
{
layerId = m01;
shapes = (
{
closed = 1;
nodes = (
(143,0,l),
(555,600,l),
(487,600,l),
(75,0,l)
);
}
);
width = 630;
},
{
layerId = m002;
shapes = (
{
closed = 1;
nodes = (
(213,0,l),
(625,600,l),
(482,600,l),
(70,0,l)
);
}
);
width = 690;
}
);
},
{
export = 0;
glyphname = _part.percent_zero;
lastChange = "2025-12-28 20:43:54 +0000";
layers = (
{
layerId = m01;
shapes = (
{
closed = 1;
nodes = (
(187,320,ls),
(210,320,o),
(227,327,o),
(243,343,cs),
(257,357,ls),
(274,374,o),
(280,389,o),
(280,413,cs),
(280,507,ls),
(280,531,o),
(274,546,o),
(257,563,cs),
(243,577,ls),
(227,593,o),
(210,600,o),
(187,600,cs),
(143,600,ls),
(120,600,o),
(104,594,o),
(87,577,cs),
(73,563,ls),
(57,547,o),
(50,531,o),
(50,507,cs),
(50,413,ls),
(50,389,o),
(57,373,o),
(73,357,cs),
(87,343,ls),
(104,326,o),
(120,320,o),
(143,320,cs)
);
},
{
closed = 1;
nodes = (
(139,375,o),
(132,378,o),
(125,385,cs),
(115,395,ls),
(107,403,o),
(105,409,o),
(105,419,cs),
(105,501,ls),
(105,511,o),
(108,518,o),
(115,525,cs),
(125,535,ls),
(132,542,o),
(139,545,o),
(149,545,cs),
(181,545,ls),
(191,545,o),
(198,542,o),
(205,535,cs),
(215,525,ls),
(222,518,o),
(225,511,o),
(225,501,cs),
(225,419,ls),
(225,409,o),
(222,402,o),
(215,395,cs),
(205,385,ls),
(197,377,o),
(191,375,o),
(181,375,cs),
(149,375,ls)
);
}
);
width = 630;
},
{
layerId = m002;
shapes = (
{
closed = 1;
nodes = (
(217,310,ls),
(240,310,o),
(257,317,o),
(273,333,cs),
(287,347,ls),
(304,364,o),
(310,379,o),
(310,403,cs),
(310,507,ls),
(310,531,o),
(304,546,o),
(287,563,cs),
(273,577,ls),
(257,593,o),
(240,600,o),
(217,600,cs),
(133,600,ls),
(110,600,o),
(94,594,o),
(77,577,cs),
(63,563,ls),
(47,547,o),
(40,531,o),
(40,507,cs),
(40,403,ls),
(40,379,o),
(47,363,o),
(63,347,cs),
(77,333,ls),
(94,316,o),
(110,310,o),
(133,310,cs)
);
},
{
closed = 1;
nodes = (
(160,415,o),
(157,416,o),
(154,419,cs),
(149,424,ls),
(146,427,o),
(145,430,o),
(145,434,cs),
(145,476,ls),
(145,480,o),
(146,483,o),
(149,486,cs),
(154,491,ls),
(157,494,o),
(160,495,o),
(164,495,cs),
(186,495,ls),
(190,495,o),
(193,494,o),
(196,491,cs),
(201,486,ls),
(204,483,o),
(205,480,o),
(205,476,cs),
(205,434,ls),
(205,430,o),
(204,427,o),
(201,424,cs),
(196,419,ls),
(193,416,o),
(190,415,o),
(186,415,cs),
(164,415,ls)
);
}
);
width = 690;
}
);
},
{
export = 0;
glyphname = _part.period;
lastChange = "2025-12-27 21:25:58 +0000";
layers = (
{
layerId = m01;
shapes = (
{
closed = 1;
nodes = (
(140,-5,l),
(140,80,l),
(60,80,l),
(60,-5,l)
);
}
);
width = 200;
},
{
layerId = m002;
shapes = (
{
closed = 1;
nodes = (
(180,-5,l),
(180,130,l),
(60,130,l),
(60,-5,l)
);
}
);
width = 240;
}
);
},
{
export = 0;
glyphname = _part.quote_unsigned;
lastChange = "2025-12-28 01:39:13 +0000";
layers = (
{
layerId = m01;
partSelection = {
kink = 1;
};
shapes = (
{
closed = 1;
nodes = (
(60,550,l),
(60,480,l),
(118,480,l),
(118,550,l),
(118,640,l),
(60,640,l)
);
}
);
width = 178;
},
{
associatedMasterId = m01;
layerId = "854F4A57-98FE-4ECA-97FF-E760947D7FDD";
name = Kink;
partSelection = {
kink = 2;
};
shapes = (
{
closed = 1;
nodes = (
(58,550,l),
(58,480,l),
(120,480,l),
(120,550,l),
(120,640,l),
(78,640,l)
);
}
);
width = 178;
},
{
layerId = m002;
partSelection = {
kink = 1;
};
shapes = (
{
closed = 1;
nodes = (
(30,550,l),
(30,460,l),
(148,460,l),
(148,550,l),
(148,670,l),
(30,670,l)
);
}
);
width = 178;
},
{
associatedMasterId = m002;
layerId = "C3329183-5F8A-4E9D-9799-93D7A9CAC278";
name = Kink;
partSelection = {
kink = 2;
};
shapes = (
{
closed = 1;
nodes = (
(30,550,l),
(30,460,l),
(148,460,l),
(148,550,l),
(148,670,l),
(80,670,l)
);
}
);
visible = 1;
width = 178;
}
);
partsSettings = (
{
bottomValue = 0;
name = kink;
topValue = 100;
}
);
},
{
export = 0;
glyphname = _part.shoulder;
lastChange = "2025-12-27 21:27:15 +0000";
layers = (
{
anchors = (
{
name = connect;
pos = (217,0);
}
);
layerId = m01;
partSelection = {
Width = 2;
};
shapes = (
{
closed = 1;
nodes = (
(351,0,l),
(351,324,ls),
(351,346,o),
(345,361,o),
(331,379,cs),
(319,394,o),
(309,404,o),
(295,415,cs),
(278,429,o),
(262,435,o),
(240,435,cs),
(178,435,ls),
(133,435,o),
(122,431,o),
(97,409,cs),
(80,394,o),
(65,381,o),
(51,363,c),
(81,316,l),
(81,325,o),
(86,346,o),
(121,374,cs),
(130,381,o),
(138,383,o),
(148,383,cs),
(233,383,ls),
(243,383,o),
(251,380,o),
(260,374,cs),
(272,366,o),
(280,358,o),
(288,347,cs),
(294,338,o),
(297,331,o),
(297,320,cs),
(297,0,l)
);
}
);
width = 485;
},
{
anchors = (
{
name = connect;
pos = (217,0);
}
);
associatedMasterId = m01;
layerId = "E3C57E56-B921-40B9-ADB9-507FDA1609B1";
name = Width;
partSelection = {
Width = 1;
};
shapes = (
{
closed = 1;
nodes = (
(341,0,l),
(341,324,ls),
(341,346,o),
(335,361,o),
(321,379,cs),
(309,394,o),
(299,404,o),
(285,415,cs),
(268,429,o),
(252,435,o),
(230,435,cs),
(178,435,ls),
(133,435,o),
(122,431,o),
(97,409,cs),
(80,394,o),
(65,381,o),
(51,363,c),
(81,316,l),
(81,325,o),
(86,346,o),
(121,374,cs),
(130,381,o),
(138,383,o),
(148,383,cs),
(223,383,ls),
(233,383,o),
(241,380,o),
(250,374,cs),
(262,366,o),
(270,358,o),
(278,347,cs),
(284,338,o),
(287,331,o),
(287,320,cs),
(287,0,l)
);
}
);
width = 485;
},
{
anchors = (
{
name = connect;
pos = (217,0);
}
);
layerId = m002;
partSelection = {
Width = 2;
};
shapes = (
{
closed = 1;
nodes = (
(341,0,l),
(341,324,ls),
(341,346,o),
(335,361,o),
(321,379,cs),
(309,394,o),
(299,404,o),
(285,415,cs),
(268,429,o),
(252,435,o),
(230,435,cs),
(178,435,ls),
(133,435,o),
(122,431,o),
(97,409,cs),
(80,394,o),
(65,381,o),
(51,363,c),
(81,279,l),
(81,288,o),
(85,297,o),
(93,305,cs),
(102,314,o),
(108,316,o),
(118,316,cs),
(185,316,ls),
(192,316,o),
(198,314,o),
(204,308,cs),
(207,305,o),
(210,302,o),
(213,299,cs),
(219,293,o),
(221,288,o),
(221,280,cs),
(221,0,l)
);
}
);
width = 485;
},
{
anchors = (
{
name = connect;
pos = (217,0);
}
);
associatedMasterId = m002;
layerId = "7A177A83-CF47-4CD8-BC34-F99110794C48";
name = Width;
partSelection = {
Width = 1;
};
shapes = (
{
closed = 1;
nodes = (
(331,0,l),
(331,324,ls),
(331,346,o),
(325,361,o),
(311,379,cs),
(299,394,o),
(289,404,o),
(275,415,cs),
(258,429,o),
(242,435,o),
(220,435,cs),
(178,435,ls),
(133,435,o),
(122,431,o),
(97,409,cs),
(80,394,o),
(65,381,o),
(51,363,c),
(81,279,l),
(81,288,o),
(85,297,o),
(93,305,cs),
(102,314,o),
(108,316,o),
(118,316,cs),
(175,316,ls),
(182,316,o),
(188,314,o),
(194,308,cs),
(197,305,o),
(200,302,o),
(203,299,cs),
(209,293,o),
(211,288,o),
(211,280,cs),
(211,0,l)
);
}
);
visible = 1;
width = 485;
}
);
partsSettings = (
{
bottomValue = 290;
name = Width;
topValue = 300;
}
);
},
{
export = 0;
glyphname = _part.stem_down;
lastChange = "2025-12-27 19:46:11 +0000";
layers = (
{
hints = (
{
origin = (0,0);
target = (0,3);
type = Stem;
}
);
layerId = m01;
partSelection = {
kink = 1;
Height = 1;
};
shapes = (
{
closed = 1;
nodes = (
(47,65,l),
(47,0,l),
(101,0,l),
(101,65,l),
(101,430,l),
(47,430,l)
);
}
);
width = 485;
},
{
associatedMasterId = m01;
layerId = "4751D069-4A78-42C6-B1A9-0C9D7AB0FF7D";
name = Tall;
partSelection = {
kink = 1;
Height = 2;
};
shapes = (
{
closed = 1;
nodes = (
(47,65,l),
(47,0,l),
(101,0,l),
(101,65,l),
(101,530,l),
(47,530,l)
);
}
);
width = 485;
},
{
associatedMasterId = m01;
layerId = "F3D3851F-7EC8-415F-9C32-3AB8E1108848";
name = Kink;
partSelection = {
kink = 2;
Height = 1;
};
shapes = (
{
closed = 1;
nodes = (
(47,65,l),
(39,0,l),
(93,0,l),
(101,65,l),
(101,430,l),
(47,430,l)
);
}
);
width = 485;
},
{
hints = (
{
origin = (0,0);
target = (0,3);
type = Stem;
}
);
layerId = m002;
partSelection = {
kink = 1;
Height = 1;
};
shapes = (
{
closed = 1;
nodes = (
(47,65,l),
(47,0,l),
(167,0,l),
(167,65,l),
(167,430,l),
(47,430,l)
);
}
);
width = 485;
},
{
associatedMasterId = m002;
layerId = "4B405E94-69D9-432F-8D09-D902B488DBA7";
name = Tall;
partSelection = {
kink = 1;
Height = 2;
};
shapes = (
{
closed = 1;
nodes = (
(47,65,l),
(47,0,l),
(167,0,l),
(167,65,l),
(167,530,l),
(47,530,l)
);
}
);
visible = 1;
width = 485;
},
{
associatedMasterId = m002;
layerId = "0E4DDF44-66CE-4204-B3A5-90E88033D4A7";
name = Kink;
partSelection = {
kink = 2;
Height = 1;
};
shapes = (
{
closed = 1;
nodes = (
(47,65,l),
(39,0,l),
(139,0,l),
(167,65,l),
(167,430,l),
(47,430,l)
);
}
);
visible = 1;
width = 485;
}
);
partsSettings = (
{
bottomValue = 0;
name = kink;
topValue = 100;
},
{
bottomValue = 215;
name = Height;
topValue = 315;
}
);
},
{
export = 0;
glyphname = _part.stem_up;
lastChange = "2025-12-27 19:30:28 +0000";
layers = (
{
hints = (
{
origin = (0,5);
target = (0,0);
type = Stem;
}
);
layerId = m01;
partSelection = {
kink = 1;
Height = 1;
};
shapes = (
{
closed = 1;
nodes = (
(101,0,l),
(101,365,l),
(101,430,l),
(47,430,l),
(47,365,l),
(47,0,l)
);
}
);
width = 485;
},
{
associatedMasterId = m01;
layerId = "4751D069-4A78-42C6-B1A9-0C9D7AB0FF7D";
name = Tall;
partSelection = {
kink = 1;
Height = 2;
};
shapes = (
{
closed = 1;
nodes = (
(101,0,l),
(101,465,l),
(101,530,l),
(47,530,l),
(47,465,l),
(47,0,l)
);
}
);
width = 485;
},
{
associatedMasterId = m01;
layerId = "F3D3851F-7EC8-415F-9C32-3AB8E1108848";
name = Kink;
partSelection = {
kink = 2;
Height = 1;
};
shapes = (
{
closed = 1;
nodes = (
(101,0,l),
(101,365,l),
(93,430,l),
(39,430,l),
(47,365,l),
(47,0,l)
);
}
);
width = 485;
},
{
hints = (
{
origin = (0,5);
target = (0,0);
type = Stem;
}
);
layerId = m002;
partSelection = {
kink = 1;
Height = 1;
};
shapes = (
{
closed = 1;
nodes = (
(167,0,l),
(167,365,l),
(167,430,l),
(47,430,l),
(47,365,l),
(47,0,l)
);
}
);
width = 485;
},
{
associatedMasterId = m002;
layerId = "AC0EEAF3-C1AA-4E45-B58F-656591B0EFAD";
name = Tall;
partSelection = {
kink = 1;
Height = 2;
};
shapes = (
{
closed = 1;
nodes = (
(167,0,l),
(167,465,l),
(167,530,l),
(47,530,l),
(47,465,l),
(47,0,l)
);
}
);
visible = 1;
width = 485;
},
{
associatedMasterId = m002;
layerId = "DBEA6493-3D85-4A10-889F-A63642383294";
name = Kink;
partSelection = {
kink = 2;
Height = 1;
};
shapes = (
{
closed = 1;
nodes = (
(167,0,l),
(167,365,l),
(159,430,l),
(39,430,l),
(47,365,l),
(47,0,l)
);
}
);
visible = 1;
width = 485;
}
);
partsSettings = (
{
bottomValue = 0;
name = kink;
topValue = 100;
},
{
bottomValue = 215;
name = Height;
topValue = 315;
}
);
},
{
export = 0;
glyphname = _part.tail;
lastChange = "2025-12-27 19:54:56 +0000";
layers = (
{
layerId = m01;
partSelection = {
Width = 2;
};
shapes = (
{
closed = 1;
nodes = (
(284,383,ls),
(294,383,o),
(303,381,o),
(311,374,cs),
(325,363,o),
(337,351,o),
(348,336,cs),
(355,327,o),
(357,320,o),
(357,309,c),
(357,234,l),
(411,234,l),
(411,314,l),
(411,336,o),
(406,352,o),
(391,369,cs),
(377,385,o),
(362,401,o),
(345,415,cs),
(328,430,o),
(312,435,o),
(290,435,cs),
(162,435,ls),
(140,435,o),
(124,430,o),
(107,415,cs),
(87,397,o),
(71,383,o),
(58,364,c),
(113,344,l),
(120,355,o),
(129,364,o),
(142,374,cs),
(150,380,o),
(159,383,o),
(169,383,cs)
);
}
